<svg xmlns="http://www.w3.org/2000/svg" viewBox="0 0 798.48 470.02"><defs><style>.cls-1{fill:#e8f2fa;}.cls-2,.cls-7{opacity:0.5;}.cls-3,.cls-5,.cls-7{fill:#a8ccff;}.cls-4{fill:#c8dffd;}.cls-5{opacity:0.6;}.cls-6{fill:#dceafa;}.cls-8{fill:#ffae73;}.cls-9{fill:#25468f;}.cls-10{fill:#1e3865;}.cls-11{fill:#ff912b;}.cls-12{fill:#fc7600;}.cls-13{fill:#f9924f;}.cls-14{fill:#f48f4e;}.cls-15{fill:#0b3563;}.cls-16{fill:#0d458e;}.cls-17{fill:#fc9f38;}.cls-18{fill:#e65f00;}.cls-19{fill:#152d4e;}.cls-20{fill:#3d6aa9;}.cls-21{fill:#316099;}.cls-22{fill:#f70;}.cls-23{fill:#fddbba;}.cls-24{fill:#fff;}.cls-25{fill:#2d3554;}</style></defs><title>1</title><g id="Layer_2" data-name="Layer 2"><g id="Layer_1-2" data-name="Layer 1"><path class="cls-1" d="M770.13,466.64c-14.83,0-45.23,1.33-45.55,1.94H647.94l-22.43-.06H424.68L366,468.46H211.4l-64.58-.06H30s-.19-.49-.58-1.46l-.07-.13a.6.6,0,0,1-.06-.18c-.26-.48-97.19-193.76,62.85-289,62.61-37.28,29.62-111.71,122.29-156.81C334-37.36,366.52,47.12,507.82,26.69,630.53,9,686.45,65.45,677.84,149.47c-4.05,39.46,23.73,69.71,51.12,75.14,75.59,15,72.88,102.65,66.7,167.07C791.85,431.4,770.65,466.64,770.13,466.64Z"/><g class="cls-2"><path class="cls-3" d="M595.21,132.63l-5.59-3.37a1.42,1.42,0,0,1-.68-1.34c0-.69.08-1.39.08-2.1a24.27,24.27,0,0,0-.29-3.84,1.43,1.43,0,0,1,.68-1.46l5.84-3.52a1.4,1.4,0,0,0,.53-1.83l-2.75-5.6a1.39,1.39,0,0,0-1.71-.69l-5.9,2.14a1.38,1.38,0,0,1-1.6-.47,25.64,25.64,0,0,0-5.8-5.44,1.42,1.42,0,0,1-.53-1.66l1.31-3.59a1.45,1.45,0,0,0-.72-1.78l-5.56-2.72a1.12,1.12,0,0,0-.35-.12,1.39,1.39,0,0,0-1.48.65l-2.52,4.17-.61,1a25.58,25.58,0,0,0-3.52-.25,25,25,0,0,0-4.69.44,1.4,1.4,0,0,1-1.46-.65l-2.83-4.71a1.44,1.44,0,0,0-1.87-.55l-4.28,2.11-1.23.6a1.46,1.46,0,0,0-.73,1.81l1.79,4.93a1.41,1.41,0,0,1-.43,1.59,24.63,24.63,0,0,0-3.77,3.8c-.1.11-.19.23-.28.35l-.1.11a1.43,1.43,0,0,1-1.54.36l-5.83-2.12a.84.84,0,0,0-.2-.05,1.46,1.46,0,0,0-1.58.76l-2.72,5.54a1.45,1.45,0,0,0,.55,1.87l5.83,3.51a1.4,1.4,0,0,1,.67,1.43,24.53,24.53,0,0,0-.29,3.86c0,.7,0,1.39.08,2.07a1.49,1.49,0,0,1-.7,1.38l-5.62,3.39a1.39,1.39,0,0,0-.53,1.81L535,140a1.45,1.45,0,0,0,1.81.73l4.67-1.69a1.44,1.44,0,0,1,1.69.54,25,25,0,0,0,5.22,5.74,1.42,1.42,0,0,1,.46,1.61L547,152.2a1.47,1.47,0,0,0,.73,1.82l5.52,2.72a1.42,1.42,0,0,0,1.84-.55l.15-.24,2.93-4.85a1.43,1.43,0,0,1,1.5-.67h0a25.56,25.56,0,0,0,4.41.39c.81,0,1.6,0,2.39-.12a1.44,1.44,0,0,1,1.36.68l2.87,4.78a1.47,1.47,0,0,0,1.9.56l5.52-2.71a1.74,1.74,0,0,0,.4-.3,1.46,1.46,0,0,0,.32-1.48l-1.44-3.94a1.46,1.46,0,0,1,.25-1.41,1.31,1.31,0,0,1,.3-.27,25.25,25.25,0,0,0,7-7,1.4,1.4,0,0,1,1.42-.62l.24.07,4.72,1.72a1.44,1.44,0,0,0,1.77-.72l.07-.13,2.65-5.39A1.46,1.46,0,0,0,595.21,132.63ZM551.08,122a16.45,16.45,0,0,1,1.13-2.91,13.17,13.17,0,0,1,5.07-5.08l.6-.28c12.21-5.48,24,6.5,18.06,18.71a13.6,13.6,0,0,1-4.17,4.63,8.13,8.13,0,0,1-1.13.67,15.6,15.6,0,0,1-5,1.5A13.52,13.52,0,0,1,551.08,122Z"/></g><path class="cls-4" d="M355,104.35l-13.87-6.43a3.41,3.41,0,0,1-1.93-3c0-1.62-.15-3.25-.33-4.9a56.61,56.61,0,0,0-1.65-8.86,3.33,3.33,0,0,1,1.21-3.57l12.71-9.69a3.29,3.29,0,0,0,.78-4.4l-7.82-12.34A3.24,3.24,0,0,0,339.94,50L326.73,56.5a3.28,3.28,0,0,1-3.85-.69A58.86,58.86,0,0,0,308,44.6a3.37,3.37,0,0,1-1.66-3.75l2.14-8.69a3.41,3.41,0,0,0-2.11-4l-13.64-4.93a3.1,3.1,0,0,0-.84-.19,3.25,3.25,0,0,0-3.28,1.9l-4.82,10.35-1.17,2.53a59.39,59.39,0,0,0-19.06,2.5A3.25,3.25,0,0,1,260,39.21L252.2,29a3.37,3.37,0,0,0-4.5-.81l-9.44,6-2.7,1.72a3.44,3.44,0,0,0-1.25,4.4l5.41,11a3.24,3.24,0,0,1-.6,3.79,58.63,58.63,0,0,0-7.81,9.81,10.28,10.28,0,0,0-.58.88,1.15,1.15,0,0,1-.2.29A3.32,3.32,0,0,1,227,67.29l-14.12-3.46a2.83,2.83,0,0,0-.48-.08A3.4,3.4,0,0,0,209,65.94L204,79.53a3.38,3.38,0,0,0,1.75,4.21l14.47,6.7a3.27,3.27,0,0,1,1.91,3.17,58.92,58.92,0,0,0,.29,9.07q.27,2.43.72,4.8a3.43,3.43,0,0,1-1.29,3.38l-12.22,9.31a3.29,3.29,0,0,0-.78,4.37l7.75,12.2A3.44,3.44,0,0,0,221,138l10.46-5.13a3.37,3.37,0,0,1,4.07.85,58.65,58.65,0,0,0,13.6,12,3.36,3.36,0,0,1,1.47,3.65l-3.12,12.73a3.47,3.47,0,0,0,2.17,4.06l13.54,4.92a3.3,3.3,0,0,0,4.14-1.72l.29-.6,5.59-12a3.38,3.38,0,0,1,3.33-2h0a58.28,58.28,0,0,0,10.38-.21c1.88-.2,3.71-.5,5.53-.86a3.33,3.33,0,0,1,3.34,1.23l7.91,10.4a3.43,3.43,0,0,0,4.57.83l12.15-7.71a3.35,3.35,0,0,0,.87-.8,3.42,3.42,0,0,0,.36-3.53l-4.35-8.81a3.4,3.4,0,0,1,.23-3.34,3.25,3.25,0,0,1,.63-.71,58.64,58.64,0,0,0,14.51-18.12,3.31,3.31,0,0,1,3.16-1.79,5.62,5.62,0,0,1,.57.09l11.43,2.81a3.36,3.36,0,0,0,3.95-2.11l.11-.31,4.83-13.25A3.42,3.42,0,0,0,355,104.35ZM249.51,90.7a39.5,39.5,0,0,1,1.89-7.07,30.87,30.87,0,0,1,10.54-13.11l1.32-.82c27.05-15.85,57.49,9.09,46.8,39a32,32,0,0,1-8.54,11.84,21.78,21.78,0,0,1-2.48,1.85,36.49,36.49,0,0,1-11.39,4.75A31.67,31.67,0,0,1,249.51,90.7Z"/><path class="cls-5" d="M582.61,417.86c-4.45,1.69-33.94,4.79-32.73,8.52s21.83,7.5,32.51,2.75c0,0-8.67,31.66-24.91,32s-22.38-9-32.41-8.58-17,3.94-11.7,6,21.9-1.7,30.74,4.18c1.29.86,2.55,1.67,3.71,2.44l2,1.35H490.7c0-.48,0-.93,0-1.35a34.64,34.64,0,0,0-.26-3.91s-30.58-12.67-19.77-36.05c0,0,9.12-14.65,20.19-19.44,0,0-2.28,33.22,3.93,33.26s-.13-37.2-.13-37.2,28.49-18.1,40.48-18.36c0,0-15,34-9,32.47s23.27-36.09,23.27-36.09,30.29-9.4,37.43,8.37S587.06,416.17,582.61,417.86Z"/><path class="cls-6" d="M211.07,442.89c-13.06-13.22,7-36.56,7-36.56s37.47-2,41.12-6.76S226.85,395,226.85,395c4.86-10.58,32-28.95,32-28.95s30.71,20.05,33.07,14.5-28.1-16.36-28.1-16.36c8.55-8,25.12-10.45,25.12-10.45,25-.59,24.45,31.53,24.45,31.53s10.79,6.71,27.34,7.27h0a42.79,42.79,0,0,1,8.07.57l-1.54,2.64q-1.25-.3-2.46-.48h-.05l-2.15-.22h0c-2-.11-3.54-.25-4.58-.39h0c-6.37-.46-14.86-.74-17.56.79a6.31,6.31,0,0,0-.89-1.27c.28.41.58.83.89,1.27,7.05,10.16-4.5,33.71-14.41,44.8s-10.28,3.53-12.09-6.61,8-23.46,8.16-29-5.65-.7-9.9,8.07,1.71,17.86-4.89,32.18-38.14,9.8-38.14,9.8c8.36-7.68,13-27.48,10.12-30s-17,22.53-20.24,25.85S224.13,456.12,211.07,442.89Z"/><path class="cls-6" d="M215.36,287.26c3.11-12.82,24.69-9.41,24.69-9.41s15.18,21.89,19.43,22.3-9.32-21.24-9.32-21.24c8.2-1,29.42,8.5,29.42,8.5s-.64,26,3.59,25.38-.61-23.07-.61-23.07c8,2.18,15.69,11.26,15.69,11.26,9.68,14.87-9.91,26.53-9.91,26.53a42.24,42.24,0,0,0,5.82,19.22h0a31.54,31.54,0,0,1,2.67,5.09l-2.17.06a16.52,16.52,0,0,0-.64-1.67h0v0c-.16-.34-.38-.81-.66-1.38h0c-.69-1.28-1.17-2.22-1.47-2.91h0c-2.09-4-5.1-9.25-7-10.31a4.23,4.23,0,0,0,.43-1c-.13.32-.28.66-.43,1-3.5,8.05-22,9.87-32.43,8s-6-4.88-.52-9.76,17.14-3.95,20.54-5.89-1.69-3.67-8.57-3-10.15,7.7-21.25,9.06-20.15-19.37-20.15-19.37c7.75,2.18,21.42-2.43,21.88-5.09s-20-1.86-23.15-2.57S212.25,300.08,215.36,287.26Z"/><path class="cls-7" d="M576.93,328.22c13.06-11.08-3.48-34.14-3.48-34.14s-34.25-4.85-37.21-9.55S566.33,283,566.33,283c-3.6-10.11-27-29.18-27-29.18s-29.83,15.91-31.55,10.63,27.13-12.74,27.13-12.74c-7.2-8-22.21-11.64-22.21-11.64-22.9-2.57-25,27-25,27s-10.45,5.29-25.69,4.45h0a40.07,40.07,0,0,0-7.46-.13l1.19,2.55c.79-.12,1.55-.2,2.31-.24h.05c.47,0,1.15,0,2,0h0c1.89.06,3.26.06,4.23,0h0c5.89.08,13.7.52,16.07,2.15a5.34,5.34,0,0,1,.91-1.1c-.29.35-.6.71-.91,1.1-7.31,8.75,1.38,31.32,9.59,42.31s9.14,4.07,11.64-5.09-5.42-22.19-5.14-27.27,5.24-.18,8.42,8.22-3,16.26,1.89,29.94S541,336,541,336c-7.05-7.73-9.68-26.29-6.85-28.37s13.79,22.07,16.48,25.37S563.86,339.31,576.93,328.22Z"/><g id="man"><path class="cls-8" d="M252.08,204.54c-1.43,3.83-3.9,8.27-6.49,9.38a10.06,10.06,0,0,0-4.16,3l-2.37-1.38-2.84-1.64s.07-.32.21-.83.35-1.22.64-2a2.73,2.73,0,0,0,.33-2.52,5.86,5.86,0,0,1,.49-4.89c.9-1.32,1.78-4.58,2.33-4.48,1.32.23-.65,4.7-.09,5.53a1,1,0,0,0,1.28.44l0,0c3.72-1.63,8.22-10.44,10.22-9.25C252.4,196.33,252.68,202.9,252.08,204.54Z"/><rect class="cls-9" x="236.83" y="198.84" width="22.21" height="7.15" rx="0.73" transform="translate(-60.24 288.88) rotate(-54.9)"/><rect class="cls-10" x="240.13" y="202.52" width="22.21" height="4.45" rx="0.56" transform="translate(-60.74 292.56) rotate(-54.9)"/><path class="cls-10" d="M172.42,185.52s23.69,41.32,32.29,48.92L236.23,211a11.48,11.48,0,0,1,6.57,6s-19.14,39-38,40.64-45.29-46.73-45.29-46.73Z"/><path class="cls-10" d="M118.8,466.58H105.11c-1.72-.93-3.25-3.08-3.74-6.27-.67-4.41-5.61-6.81-6.68-10.42s4.41-8.68,4.41-8.68L100,440l1-1.22,9.09,2.14s.22,2.16.36,4.92a63,63,0,0,1,0,6.3c-.27,4.81,1.34,10,5.62,10.93C119.24,463.78,119.09,465.65,118.8,466.58Z"/><path class="cls-10" d="M198.25,466.58H167c-1.51-1.83-1-8.61-.73-10.83l.08-.7s10.69-8.56,12.16-2a6.06,6.06,0,0,0,.16.61c1.85,6.12,10.15,8.9,14.94,9.68C196.67,463.83,197.83,465.45,198.25,466.58Z"/><path class="cls-11" d="M192.29,291.83s-1.63,20.26-3.53,44.6c-2.6,33.07-5.72,73.7-6,81.39-.54,13.36-2.68,34.74-2.68,34.74s-5.07,5.08-15.23,2.94c0,0-9.05-30.52-11.63-62.8,0-.53-.09-1.06-.13-1.6-2.4-32.86-6.14-102.07-6.14-102.07Z"/><path class="cls-12" d="M192.29,291.83s-1.63,20.26-3.53,44.6L153.2,392.7c0-.53-.09-1.06-.13-1.6-2.4-32.86-6.14-102.07-6.14-102.07Z"/><path class="cls-11" d="M184.87,294.24s-29.26,73.35-48.49,107.82-25.26,44.09-25.26,44.09-11-4.41-12-7.42c0,0,7.36-66.54,20.24-82.77,7.28-9.16,15.83-36.67,16.23-46.29S138.18,281,138.18,281Z"/><path class="cls-8" d="M177.59,187.31c-11.43,3.61-31.22-6.13-31.22-6.13s10.54-7.91,10-24.36l8.84,7.12,6,4.84a73.88,73.88,0,0,1-.68,7.86c-.18,1.31-.39,2.78-.66,4.38A27.39,27.39,0,0,1,177.59,187.31Z"/><path class="cls-13" d="M171.21,168.78a73.88,73.88,0,0,1-.68,7.86c-6.66-1.15-14.21-11.9-14.21-11.9a21.35,21.35,0,0,1,8.88-.8Z"/><path class="cls-8" d="M174.7,168.51s-18.88,3.14-20.65-8.65-5.41-19.33,6.57-21.83,15,1.64,16.56,5.44S179.57,167.39,174.7,168.51Z"/><path class="cls-9" d="M193.55,293.52a1.85,1.85,0,0,1-1.2.46c-4.3-.06-16.82,2.33-27.41,1.24-8.93-.86-16.84-3.51-25.33-7.31-1.12-.51-3.72-1.89-3.66-3.15s.17-3.38.35-5.9a316.24,316.24,0,0,0,.62-41.22c-.18-3.24-.28-6.45-.29-9.61-.09-23.57,4.59-44.3,14-51.31.8-.58,5.72,1.83,10.25,4.06a18.74,18.74,0,0,0,12.31,1.49l3.94,3.49c4.81,4.47,10.08,10.54,12.37,19.76,2,7.84,3.09,22,3.72,36.64.29,6.64.52,13.34.58,19.7v.23c.05.63.05,1.31.05,1.94C194.06,280.35,193.83,293.29,193.55,293.52Z"/><path class="cls-10" d="M136.3,278.86a316.24,316.24,0,0,0,.62-41.22c-.18-3.24-.28-6.45-.29-9.61,3.91-9.49,7.11-16.37,7.11-16.37h9.86S160.83,261,136.3,278.86Z"/><rect class="cls-10" x="90.28" y="287.46" width="38.51" height="62.57" rx="10.05" transform="translate(-221.48 382.22) rotate(-81.89)"/><path class="cls-9" d="M135.65,308.11h0a10.12,10.12,0,0,0-7-6.08h0a9.79,9.79,0,0,0-1-.18l-8.37-1.19.56-3.94a3.32,3.32,0,0,0-2.83-3.76l-2.18-.31-8.79-1.26-1.59-.22a3.33,3.33,0,0,0-3.76,2.82l-.56,3.94-14.45-2.06a10.11,10.11,0,0,0-11.41,8.56l-2.63,18.43a10.11,10.11,0,0,0,8.56,11.41l42,6a10.07,10.07,0,0,0,2.19.06h0a9.83,9.83,0,0,0,3.28-.82,10.1,10.1,0,0,0,5.94-7.81l2.63-18.43A10.09,10.09,0,0,0,135.65,308.11ZM102.8,294.28a1.24,1.24,0,0,1,1-1,1.51,1.51,0,0,1,.37,0l1.87.27,6.92,1,3.77.53a1.24,1.24,0,0,1,1,1.41l-.56,3.93-15-2.14Z"/><path class="cls-8" d="M117.77,280.55s-2.21,2.95-2.3,4.12c-.59,8,3,9.07-6.37,13.49,0,0-4,1.54-4.1-1.58s2.8-3.18,2.27-7.55c-.6-5-.54-5.09,2.77-7.73l2.19-3.62Z"/><path class="cls-9" d="M112.15,282.81a32.41,32.41,0,0,0,7.4.41s10.54-32.56,11.9-35.53,31.31-38.18,31.31-38.18l-12.48-31.22S117.88,232.4,114.59,240c-5.43,12.56-7.32,40.73-7.32,40.73A13.44,13.44,0,0,0,112.15,282.81Z"/><path class="cls-9" d="M154,158.72s1.94-.32,1.63-3-.31-6.16,1.86-5.51,2.28,2.39,3.17,1.38.91-5.29,7.36-5.59,9.09,2,12.09.63,3.16-5.87,3.16-5.87a5.17,5.17,0,0,1-2.14,2.14s5-6.85-.79-11.55-11.72-1.62-15.08-1.42c-7.39.45-12.17.89-14.59,5.75S149.28,154.05,154,158.72Z"/><path class="cls-8" d="M114.29,284.06s2.12,2.21,2.26,3.14c.43,3,1.42,4.24.92,4.56-1,.67-2.39-1.53-3-3.49A8.85,8.85,0,0,1,114.29,284.06Z"/></g><path class="cls-10" d="M630.47,139.31A23.49,23.49,0,0,1,642,143c4.59,2.93,15,17.74,18.38,26.56s-3.7,12.63,1.39,17.69,11.9,19.1.24,26c-6.59,3.91-18.32-8.18-25.85-9.89s-27.69,13.82-33,8.94-10.61-13.27,5.32-23.89c4.11-2.74-14-4.46-6.25-24.12C607.54,150.8,617,138.93,630.47,139.31Z"/><path class="cls-8" d="M573.18,224.4c0-.2,2.9-6.2,2-6.66s-2.58-.4-2.78.66S573.18,224.4,573.18,224.4Z"/><path class="cls-10" d="M616.52,149.78s14.21-14.31,23.22-1.22c0,0,5.57-1.62,8,9.82,2.48,11.68-1.31,18.82-5.32,16.63-2.58-1.41-4.53,3.1-4.53,3.1Z"/><path class="cls-8" d="M595.4,258.65c-13.53-5-26.57-28.15-26.57-28.15l4.27-3c3.55,5.2,19.55,15.19,19.55,15.19.37-4.38.9-8.36,1.55-12,4.44-24.48,14.6-31.73,17.33-33.27a7,7,0,0,1,.68-.35s0,.18,0,.52c0,.74-.12,2.22-.26,4.26C610.86,217.05,606.71,262.82,595.4,258.65Z"/><path class="cls-8" d="M660.82,283.65c-6.68-15-9.88-19.24-10-24-.09-3.73,1.75-7.76,5.32-17.63a37.11,37.11,0,0,0,1.78-7.14c2.83-19-8.23-39.85-15.07-41.25-3-.72-5.08-7.13-5-18.21l-.86.17-14.4,2.85s.33,4.54.34,8.81c0,3.56.6,7.3-1,7.35l-1.65.16s-12,16.68-13,32.19,9.62,22.25-.08,53.25C597.24,311.9,664.52,291.93,660.82,283.65Z"/><path class="cls-14" d="M622.56,178.48s.33,4.54.34,8.81c8.06-.23,12.32-7.58,14.06-11.66Z"/><path class="cls-10" d="M638.45,174.06s4.23-6.67,5.24-12.38c.72-4.07-1.35-19.17-16.53-17a20.7,20.7,0,0,0-8.55,3.24c-3.29,2.22-8.05,7-2.73,20.2l1.38,4.46Z"/><path class="cls-8" d="M619.87,182.53s19.07.31,19.08-11.57,2.49-19.83-9.69-20.54-14.54,3.83-15.51,7.79S614.91,182.14,619.87,182.53Z"/><path class="cls-10" d="M620.58,150.13s5.22,13.94,13.23,16S645.3,166,645.3,166a22.65,22.65,0,0,1-7.42-13.4S624.51,143.5,620.58,150.13Z"/><path class="cls-10" d="M621.87,151.26a16.84,16.84,0,0,0-4.83,4.93c-1.74,2.65-3.47,5-3.21,10.25,0,0-3.94-9.47.48-14.83C619,145.93,621.87,151.26,621.87,151.26Z"/><path class="cls-15" d="M643.94,427.55a188.58,188.58,0,0,1-12,33.72l-6.29-.44a178.25,178.25,0,0,0,2.91-34.49c-.13-13.86-1.84-30.24-7.32-45.87-18.81-53.74-15.77-92.85-15.77-92.85l35.38,4.14,1.65.19c.15,16.25.57,38.31.93,55.57.33,15.51.61,27.14.61,27.14C650.83,389.31,648.36,410,643.94,427.55Z"/><path class="cls-8" d="M685.62,299.58l-5.72,1.71S661,270,659.3,261.81c-.56-2.66-1.94-8-3.54-13.92-3.31-12.33-7.59-27.41-7.59-27.41l-1.41-6.1L642,193.56s9.2.94,14.59,3.19c1.78.75,3.14,1.63,3.62,2.68,4,8.69,7.9,30.64,10.68,46.3,1.54,8.73,2.72,15.5,3.34,16.93C675.89,266.67,681.14,288.7,685.62,299.58Z"/><path class="cls-16" d="M664.24,424.51c-2,21.71-11,35.75-11,35.75l-3,2.18s-2.84-15.29-4.85-33.49c-1.92-17.3-4.55-35.61-7.52-41.2C626.07,365.6,622.52,282,622.52,282l35.87-1.78c3.61,6.06,5.18,16,5.56,27.32.94,28.55-5.77,65.78-6.77,71.16a0,0,0,0,1,0,0,2,2,0,0,0,.24,1.21C664.55,394,665.58,410.16,664.24,424.51Z"/><path class="cls-11" d="M665.32,294.47a8.58,8.58,0,0,1-.22,2.87c-.77,2.4-3.39,3.5-9.73,2.84-3.87-.4-5.6-6.89-6.37-12.43-2.32,7.92-5.58,12.37-9.79,13.3-6.14,1.37-37.14,5.14-39.17-9.59-2.23-16.21,4.45-44.9,4.82-60.37a76.52,76.52,0,0,1-1.12-14.34c.26-11,3.81-17.42,6.29-19.91a46.89,46.89,0,0,1,11.34-2.13c-.52.94-2.3,6.37-2,9.14.91,8.6,9.79,7.67,17.59,2.47,5.77-3.85,9-12.22,9-12.22s11.52.94,14.22,5.35c5.16,8.43,9.19,30.86,12.42,46.63a22.92,22.92,0,0,1-16.79,2.46C658.61,266.7,664.91,286.2,665.32,294.47Z"/><path class="cls-8" d="M573.1,227.51c0-.59.49-9.11-1-10.89s-4.62-4.34-5.59-4.26-4.78,5.14-3.64,9,6,9.12,6,9.12Z"/><rect class="cls-17" x="567.8" y="200.13" width="10.32" height="18.68" rx="0.55" transform="translate(-36.02 173.32) rotate(-16.68)"/><rect class="cls-18" x="565.91" y="200.69" width="10.32" height="18.68" rx="0.98" transform="matrix(0.96, -0.29, 0.29, 0.96, -36.26, 172.79)"/><path class="cls-19" d="M635.54,466.54h-4c-1.35-.21-2.34-.6-3.72-.78a3.75,3.75,0,0,0-3.25.78l0,0h-17c-.43-.61,0-2,.38-3.07a2.43,2.43,0,0,1,1.6-1.46c1.81-.53,5.37-1,8.64-3.95,1.83-1.66,8.87-6.1,8.87-6.1h0c.15,0,.89.23,4.08,2.93,1.66,1.39,4.48-2,4.48-2a4,4,0,0,1,.92,1.25,4.25,4.25,0,0,1,.37,2.62c-.26,1.54.56,4.39,1.22,6.33.4,1.17.73,2,.73,2S639,466.11,635.54,466.54Z"/><path class="cls-20" d="M636.48,454.2a12.57,12.57,0,0,1-4.32,2.18c-1.81.24-5.2-4.38-5.2-4.38h0c.15,0,.89.23,4.08,2.93,1.66,1.39,4.48-2,4.48-2A4,4,0,0,1,636.48,454.2Z"/><path class="cls-21" d="M635.54,466.54h-4c-1.35-.21-2.34-.6-3.72-.78a3.75,3.75,0,0,0-3.25.78l0,0h-17c-.43-.61,0-2,.38-3.07.52-.46.67,2,.95,2.39s13.91.14,14.7-.43a8.28,8.28,0,0,1,6.44-.79c2.86.69,7.08-1.07,8.13-1.53.4,1.17.73,2,.73,2S639,466.11,635.54,466.54Z"/><path class="cls-10" d="M657,466.54h-4c-1.35-.21-2.34-.6-3.72-.78a3.77,3.77,0,0,0-3.25.78l0,0H628.89c-.43-.61,0-2,.39-3.07a2.41,2.41,0,0,1,1.59-1.46c1.81-.53,5.38-1,8.64-3.95,1.84-1.66,8.87-6.1,8.87-6.1h0c.15,0,.89.23,4.09,2.93,1.65,1.39,4.47-2,4.47-2a4.11,4.11,0,0,1,.93,1.25,4.33,4.33,0,0,1,.36,2.62c-.25,1.54.57,4.39,1.22,6.33.4,1.17.74,2,.74,2S660.42,466.11,657,466.54Z"/><path class="cls-20" d="M657.91,454.2a12.62,12.62,0,0,1-4.33,2.18c-1.81.24-5.2-4.38-5.2-4.38h0c.15,0,.89.23,4.09,2.93,1.65,1.39,4.47-2,4.47-2A4.11,4.11,0,0,1,657.91,454.2Z"/><path class="cls-20" d="M657,466.54h-4c-1.35-.21-2.34-.6-3.72-.78a3.77,3.77,0,0,0-3.25.78l0,0H628.89c-.43-.61,0-2,.39-3.07.51-.46.66,2,1,2.39s13.91.14,14.7-.43a8.24,8.24,0,0,1,6.43-.79c2.87.69,7.09-1.07,8.13-1.53.4,1.17.74,2,.74,2S660.42,466.11,657,466.54Z"/><path class="cls-22" d="M665.32,294.47c-4.35-6.85-6.9-15.15-10.31-24.65-8.77-24.48-7.44-37.85-5.31-38.35s6.14,17.07,6.14,17.07C658.61,266.7,664.91,286.2,665.32,294.47Z"/><path class="cls-11" d="M606.75,234a11,11,0,0,1-2-.3,3.17,3.17,0,0,1-.44-.12,15.21,15.21,0,0,1-4.64-2.33,46.75,46.75,0,0,1-6.14-5.65c5.67-25.27,16.5-28.79,16.5-28.79S613.49,234.39,606.75,234Z"/><path class="cls-8" d="M565.58,213s3.68-5.65,4.57-5.34c1.29.45-3.33,7.63-3.33,7.63s3.42-5.36,3.95-5c1.22.92-.72,4.29-2.64,6.87,0,0,3.44-3.15,3.55-2.58.4,2-3.77,6.8-3.77,6.8l-2.33-5.32Z"/><path class="cls-8" d="M562.82,218.26c.18-.69,1.08-14.19,1.46-12.91s1.3,8.36,1.3,8.36Z"/><path class="cls-11" d="M646.14,224.65l7,25.53s14.62,1,19.46-4.1l-8.84-22.73Z"/><path class="cls-22" d="M604.75,233.73a3.17,3.17,0,0,1-.44-.12,15.21,15.21,0,0,1-4.64-2.33,7.77,7.77,0,0,1,1.72-2.49c1.72-1.59,3.13-8.1,3.73-7.57S604.75,233.73,604.75,233.73Z"/><path class="cls-8" d="M685.62,299.58s6.91,4.59,8,6.52,3.52,9.06,3.52,9.06-1.76.27-3.52-2.81-7.57-2.82-9.5-4.49-4.19-6.57-4.19-6.57Z"/><path class="cls-8" d="M680.65,302.81s1.15,5.4,2.56,7,3.34,4.22,4.13,3.52-.88-6.6-.88-6.6Z"/><path class="cls-8" d="M692.62,306.72c.17.26,6.24,6.71,6.24,6.71s-2.19,1-2.81,0S692.62,306.72,692.62,306.72Z"/><path class="cls-3" d="M510.53,84V442.57A21.32,21.32,0,0,1,489.2,463.9H301.73a21.32,21.32,0,0,1-21.33-21.33V84a21.33,21.33,0,0,1,21.33-21.33H489.2A21.33,21.33,0,0,1,510.53,84Z"/><path class="cls-23" d="M492.64,238.57a97.3,97.3,0,0,1-40.15,78.68c-.46.33-.92.67-1.39,1a97.3,97.3,0,0,1-95.74,8.85q-2.26-1-4.47-2.18A97.28,97.28,0,0,1,341,319a97.15,97.15,0,1,1,151.64-80.45Z"/><path class="cls-10" d="M477.22,291.12a98.15,98.15,0,0,1-24.73,26.13c-.46.33-.92.67-1.39,1-11.55-2.26-25.56-17-37.45-23.18a26,26,0,0,0-6.12-2.38c-6.9-1.56-18.94,3.9-31.14,9.56-7.28,3.37-14.61,6.81-20.94,8.87l-.17.06c-5.7,1.84-10.58,2.54-13.86,1a6.34,6.34,0,0,1-1.74-1.15,46.13,46.13,0,0,1-6.14-6.79c-7.37-10.26-9.19-24.82,17.08-42.34,8.46-5.64-29.83-3.77-13.88-44.2,11-27.87,31.57-57.69,59.19-56.9a48.31,48.31,0,0,1,23.6,7.66c9.44,6,22.91,33.43,29.94,51.55s-6.71,29.62,4.38,39.37C465.41,269.58,475.05,280.68,477.22,291.12Z"/><path class="cls-10" d="M367.26,182.27s29.23-29.44,47.77-2.52c0,0,11.45-3.33,16.45,20.21,5.1,24-2.7,38.7-11,34.19-5.29-2.89-9.3,6.38-9.3,6.38Z"/><path class="cls-8" d="M452.49,317.25c-.46.33-.92.67-1.39,1a97.3,97.3,0,0,1-95.74,8.85q-2.26-1-4.47-2.18a124.29,124.29,0,0,1,4.4-13.4h0c0-.14.11-.27.16-.4a185.44,185.44,0,0,1,19.46-36.25h.35l.16,0,.6-.06.21,0h.18l.18,0h.28l1.43-.13c3.69-.62,2.1-7.81,2.08-15.13,0-1.65,0-3.31-.07-4.93l0-.81c0-.24,0-.48,0-.72s0-.42,0-.62,0-.16,0-.24q0-.78-.06-1.53c0-.41,0-.82,0-1.21-.09-1.89-.18-3.57-.25-4.9l0-.44v0a2.45,2.45,0,0,0,0-.27c0-.22,0-.42,0-.61s0-.26,0-.38l0-.45v-.06c0-.21,0-.39,0-.53s0-.09,0-.13,0-.24,0-.24l27.94-5.53,1.68-.33,1.76-.35v0q0,2.76.09,5.34c.67,19.5,5.37,30.8,9,31.75,1.35.68,4.38,1.07,7.31,1.42s6,.66,6.83,1.21C442.79,280.61,449.67,297.17,452.49,317.25Z"/><path class="cls-14" d="M379.69,241.3s.67,9.33.69,18.11c16.58-.47,25.34-15.59,28.93-24Z"/><path class="cls-10" d="M412.37,232.21s8.69-13.72,10.77-25.46c1.49-8.38-2.78-39.44-34-35a42.49,42.49,0,0,0-17.58,6.65C364.79,183,355,192.89,366,220l2.84,9.16Z"/><path class="cls-8" d="M374.15,249.62s39.22.65,39.25-23.78,5.11-40.8-19.93-42.25-29.92,7.87-31.91,16S364,248.82,374.15,249.62Z"/><path class="cls-10" d="M375.6,183s10.74,28.66,27.22,32.9,23.63-.18,23.63-.18a46.65,46.65,0,0,1-15.26-27.57S383.71,169.35,375.6,183Z"/><path class="cls-10" d="M378.27,185.32a34.65,34.65,0,0,0-9.93,10.12c-3.58,5.46-7.15,10.3-6.62,21.09,0,0-8.09-19.48,1-30.5C372.37,174.34,378.27,185.32,378.27,185.32Z"/><path class="cls-11" d="M457.12,284.41c-7-9.34-29.68-10.81-29.68-10.81v0c-.17.44-4.91,13-13.79,21.44a33,33,0,0,1-4.34,3.49c-12.62,8.42-26.61,11.4-32.92,3.69a16.23,16.23,0,0,1-3.27-8.77c-.61-5.7,3-16.86,4.12-18.79,0,0-.14,0-.37,0h-.28l-.18,0h-.18l-.21,0-.6.06-.16,0h-.35c-5.83.77-17.54,2-21.64,4.66h0c-.24.12-10.61,5.53-19.73,24.74-1,2.06-1.94,4.28-2.87,6.67A96.23,96.23,0,0,0,341,319a97.28,97.28,0,0,0,9.89,5.89q2.21,1.14,4.47,2.18a97.3,97.3,0,0,0,95.74-8.85c.47-.32.93-.66,1.39-1A97.12,97.12,0,0,0,466.39,305C463.67,296.3,460.62,289.09,457.12,284.41Z"/><g class="cls-2"><path class="cls-24" d="M365.05,201.08a2.16,2.16,0,1,1,2.15,2.16A2.16,2.16,0,0,1,365.05,201.08Z"/><path class="cls-24" d="M365.05,229.52a2.16,2.16,0,1,1,2.15,2.16A2.15,2.15,0,0,1,365.05,229.52Z"/><path class="cls-24" d="M365.05,215.82A2.16,2.16,0,1,1,367.2,218,2.16,2.16,0,0,1,365.05,215.82Z"/><path class="cls-24" d="M349.1,215.82a2.16,2.16,0,1,1,2.15,2.16A2.16,2.16,0,0,1,349.1,215.82Z"/><path class="cls-24" d="M382.63,201.08a2.16,2.16,0,1,1,2.16,2.16A2.16,2.16,0,0,1,382.63,201.08Z"/><path class="cls-24" d="M382.63,215.82a2.16,2.16,0,1,1,2.16,2.16A2.16,2.16,0,0,1,382.63,215.82Z"/><path class="cls-24" d="M382.63,229.52a2.16,2.16,0,1,1,2.16,2.16A2.15,2.15,0,0,1,382.63,229.52Z"/><path class="cls-24" d="M382.63,244.05a2.16,2.16,0,1,1,2.16,2.15A2.15,2.15,0,0,1,382.63,244.05Z"/><path class="cls-24" d="M400.9,215.82a2.16,2.16,0,1,1,2.15,2.16A2.16,2.16,0,0,1,400.9,215.82Z"/><path class="cls-24" d="M413.91,215.82a2.16,2.16,0,1,1,2.16,2.16A2.16,2.16,0,0,1,413.91,215.82Z"/><path class="cls-24" d="M400.9,229.52a2.16,2.16,0,1,1,2.15,2.16A2.15,2.15,0,0,1,400.9,229.52Z"/><path class="cls-24" d="M382.63,186.34a2.16,2.16,0,1,1,2.16,2.16A2.15,2.15,0,0,1,382.63,186.34Z"/><path class="cls-24" d="M400.21,201.08a2.16,2.16,0,1,1,2.16,2.16A2.16,2.16,0,0,1,400.21,201.08Z"/><polygon class="cls-24" points="366.92 230.09 366.92 201.08 367.48 201.08 367.48 228.95 384.51 215.68 384.51 186.34 385.06 186.34 385.06 215.96 366.92 230.09"/><path class="cls-24" d="M384.78,244.41l-18.36-15.17h18.09V216.1H366.43l18.35-15.38,18.55,15v13.14l12.35-13-13.5-14.54-17.39-14.57L367.38,201.3l-15.71,14.51,14.79,13.06-.37.42-15.25-13.47L367,200.88,384.79,186l17.78,14.91,13.88,14.93-13.12,13.81v.17h-.18ZM368,229.8l16.81,13.89,17.46-13.89Zm17.08-.56h17.71V216l-18-14.51L368,215.54h17.09Z"/><polygon class="cls-24" points="385.06 244.05 384.51 244.05 384.51 229.38 401.69 216.5 402.02 216.95 385.06 229.66 385.06 244.05"/><rect class="cls-24" x="352.61" y="215.54" width="13.07" height="0.56"/><rect class="cls-24" x="386.94" y="215.54" width="14.91" height="0.56"/><polygon class="cls-24" points="403.32 214.93 402.11 201.36 368.12 201.36 368.12 200.8 402.62 200.8 403.88 214.88 403.32 214.93"/><polygon class="cls-24" points="402.89 229.75 384.33 215.83 402.19 200.87 402.55 201.3 385.24 215.81 403.22 229.3 402.89 229.75"/><rect class="cls-24" x="375.71" y="196.81" width="0.56" height="22.37" transform="translate(-19.9 375.02) rotate(-51.83)"/><rect class="cls-24" x="403.05" y="215.54" width="13.72" height="0.56"/></g><polygon class="cls-24" points="331.91 190.47 327.19 190.47 327.19 176.03 342.92 176.03 342.92 180.75 331.91 180.75 331.91 190.47"/><polygon class="cls-24" points="460.64 191.11 455.93 191.11 455.93 180.1 446.2 180.1 446.2 175.38 460.64 175.38 460.64 191.11"/><polygon class="cls-24" points="460.64 283.02 444.92 283.02 444.92 278.3 455.93 278.3 455.93 268.58 460.64 268.58 460.64 283.02"/><polygon class="cls-24" points="341.63 283.66 327.19 283.66 327.19 267.93 331.91 267.93 331.91 278.94 341.63 278.94 341.63 283.66"/><path class="cls-11" d="M477.54,430.93v31.81c0,.39,0,.78,0,1.16H314.64c0-.38,0-.77,0-1.16V430.93c0-14.51,9.36-26.38,20.81-26.38h121.3C468.17,404.55,477.54,416.42,477.54,430.93Z"/><path class="cls-9" d="M489.2,466.58H301.73a24,24,0,0,1-24-24V84a24,24,0,0,1,24-24H489.2a24,24,0,0,1,24,24V442.57A24,24,0,0,1,489.2,466.58ZM301.73,65.3A18.68,18.68,0,0,0,283.08,84V442.57a18.68,18.68,0,0,0,18.65,18.66H489.2a18.68,18.68,0,0,0,18.66-18.66V84A18.68,18.68,0,0,0,489.2,65.3Z"/><polygon class="cls-24" points="395.13 442.36 384.64 432.97 387.59 429.68 394.36 435.74 403.73 422.33 407.35 424.87 395.13 442.36"/><path class="cls-24" d="M396,452.3A20,20,0,1,1,416,432.35,20,20,0,0,1,396,452.3Zm0-39.11a19.16,19.16,0,1,0,19.15,19.16A19.18,19.18,0,0,0,396,413.19Z"/><rect class="cls-1" x="321.24" y="357.88" width="151.03" height="1.35"/><path class="cls-11" d="M316.3,358.55a4.95,4.95,0,1,1,4.95,4.95A4.94,4.94,0,0,1,316.3,358.55Z"/><path class="cls-11" d="M390.13,358.55a6.63,6.63,0,1,1,6.63,6.63A6.63,6.63,0,0,1,390.13,358.55Z"/><path class="cls-1" d="M467.33,358.55a4.95,4.95,0,1,1,4.94,4.95A4.94,4.94,0,0,1,467.33,358.55Z"/><rect class="cls-11" x="321.24" y="357.88" width="75.41" height="1.35"/><path class="cls-25" d="M768.41,470H31.75A1.72,1.72,0,0,1,30,468.3h0a1.73,1.73,0,0,1,1.72-1.72H768.41a1.73,1.73,0,0,1,1.72,1.72h0A1.73,1.73,0,0,1,768.41,470Z"/><path class="cls-1" d="M299.19,118.19v-.67h15.14l9.21-17.5h.2c7.18,0,18.05-.07,19.15-.26L361.66,81h27.46v.68H361.94l-18.55,18.55c-.16.31-1.32.37-10,.44-4.25,0-8.5,0-9.47,0l-9.2,17.49Z"/><polygon class="cls-1" points="346.41 102.98 346.41 98.3 342.36 95.96 338.31 98.3 338.31 102.98 342.36 105.32 346.41 102.98"/><polygon class="cls-1" points="366.06 84.36 366.06 79.68 362 77.34 357.95 79.68 357.95 84.36 362 86.7 366.06 84.36"/><polygon class="cls-1" points="376.34 115.51 376.34 110.84 372.29 108.5 368.24 110.84 368.24 115.51 372.29 117.85 376.34 115.51"/><polygon class="cls-1" points="319.2 120.17 319.2 115.49 315.15 113.15 311.1 115.49 311.1 120.17 315.15 122.51 319.2 120.17"/><polygon class="cls-1" points="298.92 119.09 298.92 116.57 296.73 115.31 294.55 116.57 294.55 119.09 296.73 120.35 298.92 119.09"/><polygon class="cls-1" points="391.3 82.97 391.3 80.44 389.12 79.18 386.93 80.44 386.93 82.97 389.12 84.23 391.3 82.97"/><polygon class="cls-1" points="342.85 100.31 343.3 99.8 358.14 113.12 369.47 113.12 369.47 113.79 357.88 113.79 357.79 113.71 342.85 100.31"/><polygon class="cls-1" points="435.51 115.68 443.06 115.68 446.84 122.22 443.06 128.76 435.51 128.76 431.73 122.22 435.51 115.68"/><polygon class="cls-1" points="394.84 97.18 398.61 97.18 400.5 100.45 398.61 103.71 394.84 103.71 392.95 100.45 394.84 97.18"/><polygon class="cls-1" points="412.65 119.16 416.43 119.16 418.31 122.43 416.43 125.69 412.65 125.69 410.77 122.43 412.65 119.16"/><polygon class="cls-1" points="471.49 137.02 475.26 137.02 477.14 140.28 475.26 143.55 471.49 143.55 469.6 140.28 471.49 137.02"/><polygon class="cls-1" points="485.59 106.58 489.36 106.58 491.25 109.85 489.36 113.11 485.59 113.11 483.71 109.85 485.59 106.58"/><polygon class="cls-1" points="435.28 115.83 435.74 115.53 425.58 99.93 398.95 99.93 398.95 100.47 425.28 100.47 435.28 115.83"/><polygon class="cls-1" points="471.45 137.67 471.95 137.46 465.2 121.95 446.84 121.95 446.84 122.49 464.84 122.49 471.45 137.67"/><polygon class="cls-1" points="465.24 122.38 474.07 110.12 487.29 110.12 487.29 109.58 473.79 109.58 464.8 122.06 465.24 122.38"/><rect class="cls-1" x="416.27" y="121.95" width="15.46" height="0.54"/></g></g></svg>