<svg xmlns="http://www.w3.org/2000/svg" viewBox="0 0 810.53 432.45"><defs><style>.cls-1{fill:#e8f2fa;}.cls-2,.cls-7{opacity:0.5;}.cls-3,.cls-6,.cls-7{fill:#a8ccff;}.cls-4{fill:#c8dffd;}.cls-5{fill:#dceafa;}.cls-6{opacity:0.6;}.cls-8{fill:#7fcfff;}.cls-9{fill:#fddbba;}.cls-10{fill:#fda397;}.cls-11{fill:#0e0e0e;}.cls-12{fill:#ff912b;}.cls-13{fill:#bb4a32;}.cls-14{fill:#fd8d7f;}.cls-15{fill:#fff;}.cls-16{fill:#286aca;}.cls-17{fill:#a8defd;}.cls-18{fill:#e77b5d;}.cls-19{fill:#0d458e;}.cls-20{fill:#7fb1fd;}.cls-21{fill:#25468f;}.cls-22{fill:#404040;}.cls-23{fill:#2d3554;}</style></defs><title>2</title><g id="Layer_2" data-name="Layer 2"><g id="Layer_1-2" data-name="Layer 1"><path class="cls-1" d="M781.76,429.15c-15.06,0-45.91,1.22-46.24,1.78H657.73L635,430.88H431.09l-59.54-.06h-157L149,430.77H30.48s-.19-.45-.59-1.35l-.06-.11a.47.47,0,0,1-.07-.17C29.5,428.7-68.89,251,93.56,163.33,157.12,129,123.63,60.58,217.7,19.11,339-34.36,372.06,43.33,515.49,24.55,640.06,8.24,696.82,60.19,688.07,137.46c-4.1,36.3,24.09,64.12,51.9,69.11,76.73,13.76,74,94.4,67.71,153.64C803.81,396.74,782.29,429.15,781.76,429.15Z"/><g class="cls-2"><path class="cls-3" d="M526.7,143.58l-5-3a1.27,1.27,0,0,1-.6-1.19c.05-.61.07-1.23.07-1.85a21.09,21.09,0,0,0-.26-3.4,1.29,1.29,0,0,1,.6-1.29l5.17-3.12a1.24,1.24,0,0,0,.47-1.62l-2.43-4.95a1.22,1.22,0,0,0-1.51-.61l-5.22,1.9a1.24,1.24,0,0,1-1.42-.42,22.35,22.35,0,0,0-5.13-4.81,1.26,1.26,0,0,1-.47-1.47l1.16-3.18a1.28,1.28,0,0,0-.63-1.57l-4.92-2.41a1.15,1.15,0,0,0-.31-.11,1.24,1.24,0,0,0-1.31.58l-2.23,3.69-.54.91a21.28,21.28,0,0,0-3.11-.22,22.64,22.64,0,0,0-4.15.38,1.25,1.25,0,0,1-1.29-.57l-2.5-4.17a1.28,1.28,0,0,0-1.66-.48l-3.79,1.86-1.08.53a1.29,1.29,0,0,0-.65,1.6l1.58,4.37a1.21,1.21,0,0,1-.38,1.39,22.57,22.57,0,0,0-3.33,3.37,3.76,3.76,0,0,0-.25.31l-.09.1a1.25,1.25,0,0,1-1.36.31L475,122.59l-.17,0a1.27,1.27,0,0,0-1.39.68l-2.41,4.9a1.28,1.28,0,0,0,.48,1.65l5.16,3.11a1.23,1.23,0,0,1,.59,1.26,22.56,22.56,0,0,0-.26,3.42c0,.61,0,1.23.08,1.83a1.34,1.34,0,0,1-.63,1.22l-5,3a1.23,1.23,0,0,0-.47,1.61l2.41,4.89a1.28,1.28,0,0,0,1.6.65l4.14-1.5a1.27,1.27,0,0,1,1.49.49,22.29,22.29,0,0,0,4.62,5.07,1.27,1.27,0,0,1,.4,1.43L484,160.89a1.31,1.31,0,0,0,.65,1.61l4.88,2.4a1.26,1.26,0,0,0,1.63-.48l.13-.21,2.59-4.29a1.27,1.27,0,0,1,1.33-.6h0a21.87,21.87,0,0,0,3.91.34c.71,0,1.41,0,2.11-.1a1.26,1.26,0,0,1,1.2.6l2.55,4.23a1.3,1.3,0,0,0,1.68.5l4.87-2.4a1.41,1.41,0,0,0,.36-.27,1.3,1.3,0,0,0,.28-1.31l-1.27-3.48a1.28,1.28,0,0,1,.22-1.25,1.2,1.2,0,0,1,.26-.24,22.18,22.18,0,0,0,6.19-6.21,1.25,1.25,0,0,1,1.26-.54.76.76,0,0,1,.2.06l4.18,1.51a1.27,1.27,0,0,0,1.57-.62l.05-.12,2.35-4.77A1.29,1.29,0,0,0,526.7,143.58Zm-39-9.42a14.64,14.64,0,0,1,1-2.57,11.7,11.7,0,0,1,4.49-4.5l.53-.25c10.8-4.85,21.21,5.75,16,16.56a12,12,0,0,1-3.68,4.09,8.45,8.45,0,0,1-1,.59,13.61,13.61,0,0,1-4.47,1.32A12,12,0,0,1,487.66,134.16Z"/></g><path class="cls-4" d="M314.23,118.56,302,112.87a3,3,0,0,1-1.71-2.62c0-1.43-.13-2.88-.29-4.33a49.82,49.82,0,0,0-1.46-7.84,3,3,0,0,1,1.07-3.16l11.24-8.57a2.9,2.9,0,0,0,.69-3.89l-6.91-10.91a2.86,2.86,0,0,0-3.68-1l-11.68,5.73a2.9,2.9,0,0,1-3.41-.61,52,52,0,0,0-13.15-9.91,3,3,0,0,1-1.48-3.32l1.9-7.68a3,3,0,0,0-1.86-3.51l-12.07-4.37a2.83,2.83,0,0,0-.74-.17,2.89,2.89,0,0,0-2.91,1.68l-4.26,9.16-1,2.24A52.22,52.22,0,0,0,233.36,62a2.88,2.88,0,0,1-3.16-1l-6.89-9.06a3,3,0,0,0-4-.71L211,56.46,208.6,58a3,3,0,0,0-1.11,3.89l4.78,9.77a2.88,2.88,0,0,1-.52,3.35,52,52,0,0,0-6.92,8.68c-.19.26-.34.51-.5.78a2.4,2.4,0,0,1-.18.26,3,3,0,0,1-3.09,1.07l-12.49-3a2.14,2.14,0,0,0-.43-.07,3,3,0,0,0-3.07,1.93l-4.36,12a3,3,0,0,0,1.54,3.73l12.8,5.93a2.88,2.88,0,0,1,1.69,2.8,51.43,51.43,0,0,0,.26,8c.15,1.44.37,2.86.64,4.25a3,3,0,0,1-1.15,3l-10.8,8.24a2.9,2.9,0,0,0-.7,3.86l6.86,10.79a3,3,0,0,0,3.9,1.11l9.25-4.54a3,3,0,0,1,3.6.75,52,52,0,0,0,12,10.65,3,3,0,0,1,1.3,3.23l-2.76,11.25a3.07,3.07,0,0,0,1.92,3.59l12,4.36a2.91,2.91,0,0,0,3.66-1.53l.26-.53,4.94-10.64a3,3,0,0,1,2.95-1.73h0a53.44,53.44,0,0,0,9.19-.18c1.65-.18,3.27-.45,4.89-.77a2.92,2.92,0,0,1,2.95,1.09l7,9.2a3,3,0,0,0,4,.73l10.75-6.82a3.18,3.18,0,0,0,.76-.7,3,3,0,0,0,.32-3.12l-3.84-7.8a3,3,0,0,1,.19-3,3.61,3.61,0,0,1,.56-.62,52,52,0,0,0,12.84-16,2.92,2.92,0,0,1,2.8-1.58,2.78,2.78,0,0,1,.49.08l10.11,2.48a3,3,0,0,0,3.5-1.86l.1-.28,4.27-11.71A3,3,0,0,0,314.23,118.56Zm-93.3-12.07a35.17,35.17,0,0,1,1.67-6.25,27.29,27.29,0,0,1,9.33-11.6c.39-.25.78-.48,1.17-.72,23.92-14,50.85,8,41.38,34.52a28.32,28.32,0,0,1-7.55,10.47,17.43,17.43,0,0,1-2.19,1.63,32,32,0,0,1-10.07,4.21A28,28,0,0,1,220.93,106.49Z"/><path class="cls-5" d="M179.06,391.74c-11.55-11.69,6.21-32.33,6.21-32.33s33.14-1.74,36.37-6S193,349.38,193,349.38c4.29-9.35,28.29-25.6,28.29-25.6s27.16,17.73,29.25,12.83-24.85-14.47-24.85-14.47c7.56-7.08,22.21-9.25,22.21-9.25,22.11-.52,21.63,27.89,21.63,27.89s9.54,5.94,24.18,6.43h0a38,38,0,0,1,7.14.5l-1.36,2.34c-.74-.18-1.47-.32-2.18-.43h-.05l-1.89-.2h0c-1.81-.1-3.12-.22-4.05-.35h0c-5.64-.41-13.14-.66-15.54.7a5.2,5.2,0,0,0-.78-1.13l.78,1.13c6.24,9-4,29.81-12.74,39.62s-9.09,3.13-10.7-5.84,7.06-20.76,7.22-25.63-5-.62-8.75,7.14,1.51,15.8-4.33,28.46-33.73,8.67-33.73,8.67c7.39-6.79,11.47-24.31,9-26.54s-15.05,19.93-17.9,22.86S190.61,403.44,179.06,391.74Z"/><path class="cls-3" d="M290.74,71.77H456.55a18.86,18.86,0,0,1,18.86,18.86V407.83a18.87,18.87,0,0,1-18.87,18.87H290.74a18.86,18.86,0,0,1-18.86-18.86V90.63A18.86,18.86,0,0,1,290.74,71.77Z"/><path class="cls-6" d="M525.75,380.42c-3.93,1.5-30,4.24-28.94,7.54s19.3,6.63,28.75,2.43c0,0-7.67,28-22,28.33s-19.8-8-28.67-7.59-15,3.49-10.35,5.34,19.37-1.51,27.19,3.69l3.28,2.16q.93.62,1.74,1.2H444.46c0-.43,0-.83,0-1.2a29.3,29.3,0,0,0-.23-3.46s-27-11.21-17.49-31.88c0,0,8.08-13,17.86-17.2,0,0-2,29.39,3.48,29.42s-.12-32.91-.12-32.91,25.2-16,35.81-16.23c0,0-13.26,30-7.92,28.72s20.57-31.93,20.57-31.93,26.8-8.31,33.11,7.41S529.69,378.93,525.75,380.42Z"/><path class="cls-7" d="M530.38,316.58c11.56-9.8-3.07-30.2-3.07-30.2s-30.29-4.29-32.92-8.45S521,276.54,521,276.54c-3.19-8.94-23.9-25.8-23.9-25.8s-26.38,14.07-27.9,9.4,24-11.27,24-11.27c-6.37-7.11-19.65-10.3-19.65-10.3-20.25-2.27-22.12,23.85-22.12,23.85s-9.25,4.68-22.73,3.94h0a35.83,35.83,0,0,0-6.6-.12l1.06,2.26q1.05-.15,2-.21h0l1.76,0h0c1.67.06,2.88.05,3.74,0h0c5.2.08,12.12.46,14.21,1.9a4.8,4.8,0,0,1,.81-1l-.81,1c-6.46,7.75,1.22,27.7,8.48,37.42s8.09,3.61,10.29-4.49S459,283.46,459.2,279s4.64-.16,7.45,7.27-2.67,14.39,1.67,26.49,30.27,10.7,30.27,10.7c-6.24-6.84-8.56-23.25-6.06-25.1s12.19,19.52,14.58,22.44S518.83,326.38,530.38,316.58Z"/><path class="cls-5" d="M196,253.88c2.75-11.34,21.85-8.33,21.85-8.33s13.42,19.36,17.18,19.73-8.24-18.79-8.24-18.79c7.25-.9,26,7.52,26,7.52s-.57,23,3.17,22.45-.54-20.4-.54-20.4C262.51,258,269.3,266,269.3,266c8.56,13.15-8.77,23.47-8.77,23.47a37.47,37.47,0,0,0,5.15,17h0A27.68,27.68,0,0,1,268,311l-1.92,0c-.17-.51-.35-1-.56-1.48h0v0c-.14-.29-.34-.71-.59-1.21h0c-.62-1.13-1-2-1.3-2.57h0c-1.86-3.55-4.51-8.18-6.22-9.12a3.67,3.67,0,0,0,.38-.89l-.38.89c-3.1,7.13-19.49,8.74-28.68,7.1s-5.28-4.32-.47-8.63,15.17-3.49,18.17-5.22-1.49-3.24-7.58-2.61-9,6.81-18.8,8-17.82-17.13-17.82-17.13c6.86,1.93,19-2.15,19.36-4.5S204,272,201.14,271.34,193.23,265.22,196,253.88Z"/><rect class="cls-8" x="330.83" y="366.26" width="80.21" height="6.2"/><rect class="cls-8" x="303.7" y="379.43" width="132.91" height="6.2" transform="translate(740.32 765.07) rotate(180)"/><rect class="cls-8" x="309.51" y="392.61" width="121.68" height="6.2" transform="translate(740.7 791.42) rotate(180)"/><rect class="cls-9" x="296.73" y="91.52" width="153.84" height="157.71" rx="41.95"/><path class="cls-10" d="M348.93,271.71c7.35-21.44-6.42-58.06-22.59-48.92-16.55,9.2-26.56,32.7-25.38,48.92Z"/><path class="cls-10" d="M400.54,271.71c-7.35-21.44,6.42-58.06,22.59-48.92,16.55,9.2,26.56,32.7,25.38,48.92Z"/><path class="cls-11" d="M426,226.32c2.32-22.94,6.36-116.15-50.71-116.15-57.56,0-52.31,92.66-50.37,114.37Z"/><path class="cls-12" d="M323.71,224.87c20.21-15.08,84.68-15.45,103.6.92l.26,45.92H323.46Z"/><path class="cls-12" d="M358.16,214.31s-23.74,14.37-9.61,27.65c11.72,11,28.83-5.39,28.83-5.39Z"/><path class="cls-12" d="M391.17,214.07s23.74,14.37,9.61,27.66c-11.72,11-28.83-5.39-28.83-5.39Z"/><path class="cls-12" d="M393.54,228.85c0,13.17-37.59,13.17-37.59,0l2-20.29,1.31-13.19H390.3l2.12,21.9Z"/><polygon class="cls-12" points="392.42 217.27 357.94 208.56 359.25 195.37 390.3 195.37 392.42 217.27"/><path class="cls-10" d="M413.81,159.43C415,187,398,209.33,376,209.33s-39-22.34-37.83-49.9c1.1-26,18-45.92,37.83-45.92S412.72,133.47,413.81,159.43Z"/><path class="cls-11" d="M333.71,156.23h84S413.47,110,375.29,110,333.71,156.23,333.71,156.23Z"/><path class="cls-13" d="M374,179.37a3.15,3.15,0,0,1-2.49-.88c-1.36-1.64,2-9.87,2.71-11.5a.4.4,0,1,1,.74.31c-1.64,3.87-3.6,9.75-2.83,10.68.9,1.08,3.9.39,5,0a.4.4,0,1,1,.26.76A12,12,0,0,1,374,179.37Z"/><path class="cls-13" d="M364.33,187.21s11.36,4.48,27.35-2.24C382.27,196.48,370.61,203.2,364.33,187.21Z"/><path class="cls-11" d="M353.93,165.91c0,2,.81,3.67,1.82,3.67s1.82-1.64,1.82-3.67-.82-3.67-1.82-3.67S353.93,163.88,353.93,165.91Z"/><path class="cls-13" d="M359.2,161.43a.37.37,0,0,1-.3-.15c-3-3.52-6.65-.57-6.81-.44a.4.4,0,0,1-.56-.06.41.41,0,0,1,.05-.57c.05,0,4.47-3.57,7.93.56a.4.4,0,0,1-.05.56A.37.37,0,0,1,359.2,161.43Z"/><path class="cls-11" d="M393.24,165.91c0,2,.82,3.67,1.82,3.67s1.82-1.64,1.82-3.67-.81-3.67-1.82-3.67S393.24,163.88,393.24,165.91Z"/><path class="cls-13" d="M398.51,161.43a.38.38,0,0,1-.3-.15c-3-3.52-6.65-.57-6.81-.44a.4.4,0,0,1-.56-.06.41.41,0,0,1,.05-.57c.05,0,4.47-3.57,7.93.56a.39.39,0,0,1-.05.56A.35.35,0,0,1,398.51,161.43Z"/><ellipse class="cls-14" cx="355.82" cy="176.96" rx="4.84" ry="2.52"/><ellipse class="cls-14" cx="394.18" cy="176.96" rx="4.84" ry="2.52"/><path class="cls-15" d="M342.84,219.78H332.32A14.28,14.28,0,0,1,318,205.5V194.59h3.87v11a10.34,10.34,0,0,0,10.33,10.33h10.6Z"/><path class="cls-15" d="M415.74,219.78H405.61v-3.87h10.22a10.33,10.33,0,0,0,10.32-10.33V194.21H430V205.5A14.28,14.28,0,0,1,415.74,219.78Z"/><path class="cls-15" d="M430,137.63h-3.88v-9.82a10.32,10.32,0,0,0-10.32-10.33H405.61V113.6h10.13A14.29,14.29,0,0,1,430,127.89Z"/><path class="cls-15" d="M321.91,139.57H318V127.89a14.28,14.28,0,0,1,14.28-14.29h10.13v3.88H332.24a10.33,10.33,0,0,0-10.33,10.33Z"/><path class="cls-16" d="M358,315.88V340.6c0,2.75,33.71,2.75,33.71,0V315.88Z"/><path class="cls-16" d="M388.56,314.72h-3.48v-8.06a10.58,10.58,0,0,0-9.17-10.58,10.48,10.48,0,0,0-11.76,10.39v1.66h-3.49v-1.45a14,14,0,1,1,27.9-.21Z"/><path class="cls-17" d="M371.53,337a1.29,1.29,0,0,1-.95-.41L365,330.63a1.31,1.31,0,1,1,1.91-1.79l4.65,5,13-11.92a1.31,1.31,0,1,1,1.77,1.93l-14,12.79A1.28,1.28,0,0,1,371.53,337Z"/><polygon class="cls-17" points="628.46 111.38 552.04 111.5 568.26 155.77 628.46 111.38"/><path class="cls-11" d="M550.45,111s-28.25,4.58-24.37,62.33c5.1,4.94,57.18-.19,57.18-.19-8.73-9-11.6-27.54-12.15-50C571.11,123.16,570,108.84,550.45,111Z"/><path class="cls-10" d="M577.1,165l30.65-8.29,29-26.17,5.63,4.8s-22.34,28.24-28,33.28c-5,4.48-34.35,17-34.35,17Z"/><path class="cls-12" d="M538.65,189.18c1.3,7.06,14,38.41,14,38.41,0,7.66,37.11,7.66,37.11,0,.45-11.71,1.5-33.66,1.34-46.63a35.58,35.58,0,0,0-14.76-18.06C560.77,159.5,531.89,163.49,538.65,189.18Z"/><path class="cls-10" d="M541,274.52h33c-.82,6.72-4.32,14-5.82,20-13.45,36.85-20,86.17-34.2,118.67,0,0-6.11,3.16-10.17,0,2.78-24.45,2.58-39.62,10.54-80.13C537.11,321.31,536,293.15,541,274.52Z"/><path class="cls-10" d="M596.52,274.52c4.28,40.89,12.16,129.22,13,138.34l-10.5.05c-6.89-23.4-15.68-44.4-16.46-74.09-5.36-16.34-14.28-43.82-21-64.3Z"/><path class="cls-18" d="M540.05,282.84,565,284.9l6,.5,26.77,2.22c1.16,11.34,2.46,24.8,3.72,38.65-8,3.34-19.3,8.16-20.26,8.6l-13.11-40.14c-3.84,12.5-8.53,28.85-12.08,41.61a99.35,99.35,0,0,0-21-7.35C536.39,314.2,538,297.21,540.05,282.84Z"/><path class="cls-15" d="M572.45,161.78s10.44,7.14,6.54,12.48c-3.35,4.6-11.64-.64-11.64-.64s-1.39,7.11-7,6.16c-7.74-1.32-9.36-12.72-6.12-16.44S568.67,159.86,572.45,161.78Z"/><path class="cls-10" d="M555.23,165.72c.27,3.1,5,7.16,11.1,6.28,3.86-.56,5.82-3.33,4.91-6.48l-1-4L567.35,150l-14.19,1.67Z"/><path class="cls-18" d="M553.32,149.54c2.37,4.65,6.57,8,15.89,7.75l-2.87-11.52-13.16,1.58Z"/><path class="cls-19" d="M519.36,322c9.81,3.56,22.16,5.47,34.51,6.26,24.65,1.41,52.94-2.67,55.48-7.12-5-46.08-19.66-93.55-19.66-93.55H552.63c-6.54,5.13-12.46,14.1-16.3,23.69C533.74,258.88,523.36,292,519.36,322Z"/><path class="cls-16" d="M628.5,423.43c0-.13-6.24-.14-12.91-.11-7.67,0-17.23.11-17.23.11a35.07,35.07,0,0,1,.67-10.57l12-.06a81.34,81.34,0,0,1,9.18,2.34c.38.12.79.2,1.22.31C630.8,417.61,628.5,423.7,628.5,423.43Z"/><path class="cls-20" d="M628.5,423.53c0-.13-6.24-.14-12.91-.11a5.81,5.81,0,0,1-.31-1.92,6.73,6.73,0,0,1,5-6.26c.38.11.79.2,1.22.3C630.8,417.71,628.5,423.8,628.5,423.53Z"/><rect class="cls-20" x="598.2" y="421.77" width="31" height="1.94"/><path class="cls-21" d="M456.55,429.06H290.74a21.26,21.26,0,0,1-21.24-21.23V90.63A21.26,21.26,0,0,1,290.74,69.4H456.55a21.26,21.26,0,0,1,21.24,21.23v317.2A21.26,21.26,0,0,1,456.55,429.06ZM290.74,74.14a16.51,16.51,0,0,0-16.5,16.49v317.2a16.52,16.52,0,0,0,16.5,16.5H456.55a16.52,16.52,0,0,0,16.5-16.5V90.63a16.51,16.51,0,0,0-16.5-16.49Z"/><path class="cls-16" d="M534.64,423.88l-7-.07c-6.16-.06-14.27-.11-15,.07-2.15-5.19,2.31-7.86,6.41-9.32,1.75-.62,3.44-1,4.52-1.31l10.45.06A34.72,34.72,0,0,1,534.64,423.88Z"/><rect class="cls-20" x="511.79" y="422.16" width="23.25" height="1.94" transform="translate(1046.83 846.26) rotate(180)"/><path class="cls-20" d="M527.62,423.89c-6.16-.06-14.27-.11-15,.07-2.15-5.19,2.31-7.86,6.41-9.33a8.58,8.58,0,0,1,7.34,2.42A5.91,5.91,0,0,1,527.62,423.89Z"/><path class="cls-15" d="M570.82,232.21a45.86,45.86,0,0,1-18.51-3.83.85.85,0,0,1-.43-1.12.83.83,0,0,1,1.11-.43c18.83,8.26,36.15.09,36.32,0a.85.85,0,1,1,.74,1.52A48.69,48.69,0,0,1,570.82,232.21Z"/><path class="cls-10" d="M572.28,152.09c-10.42,5.39-22.18,1.29-26.34-7.7-7.64-10.21-10.06-22.63-1.43-29.41,10.06-7.85,25.2-4.2,27.92,11.19a20.58,20.58,0,0,1,3.8,7.55,10.17,10.17,0,0,1,.51,2.51A18.33,18.33,0,0,1,572.28,152.09Z"/><path class="cls-11" d="M539.59,137.83s25.19-9.7,36.08-11.44c-2.83-8.64-14.06-22.15-30.21-13.34C531.77,120.24,539.59,137.83,539.59,137.83Z"/><path class="cls-11" d="M551,124c-2.46,10.5-1.69,28.52,14.61,49L559,174.05s-7.55-1.36-19.29-28C532.75,128.07,543.82,121.36,551,124Z"/><path class="cls-10" d="M551.7,181c-1.17,7-12.15,31.12-12.15,31.12l8.36,42.83-6.66,2.63s-16.51-35.45-16.39-45.68C525,198.92,536,175.3,536,175.3,541.73,165.07,553.8,168.29,551.7,181Z"/><path class="cls-10" d="M540.73,255.05s-4.42,14.21.12,17.06,7.29-12.48,7.29-12.48,2,2.54,2.85,2.07-1.76-6.19-3.58-7.85S542,251.47,540.73,255.05Z"/><path class="cls-10" d="M632.56,129.71s2.07-2.11,3,1.1c3.36,1.2,6.42-2.69,7.76.84C645.46,137.22,634.6,139.41,632.56,129.71Z"/><path class="cls-10" d="M642.51,126.54s-2.68-6.66-7.49-9.42c-1.82-.89-2.74-.31-2.74-.31l7,19.07C642.72,138.27,645.59,133.08,642.51,126.54Z"/><path class="cls-22" d="M639.56,142.82l-11.81-34.9a2.77,2.77,0,0,1,1-1.26l12.14,36.66A3.28,3.28,0,0,1,639.56,142.82Z"/><path d="M628.7,106.66c.42-.26,1-.3,1.71.36,1.79,1.63,12.05,32.37,11.81,34.9-.12,1.24-.75,1.48-1.38,1.4Z"/><path class="cls-10" d="M633.76,116.61s-2.17-.68-1.31,4.17c1,5.87,4.37,9.08,6.23,8.69S638.06,117.42,633.76,116.61Z"/><path class="cls-13" d="M570.79,137a.18.18,0,0,1-.17-.14.17.17,0,0,1,.12-.22c.5-.14,1.79-.63,1.86-1.27s-2.16-2.24-3.75-3.28a.18.18,0,0,1-.05-.25.19.19,0,0,1,.25-.05c.67.44,4,2.67,3.91,3.62s-1.92,1.52-2.12,1.58Z"/><path class="cls-13" d="M573.19,142.14s-4.31,2.84-11.51,1.43C566.57,147.52,572,149.3,573.19,142.14Z"/><path class="cls-11" d="M561.25,133.69c.23.7.13,1.35-.21,1.46s-.81-.36-1-1.05-.13-1.36.21-1.47S561,133,561.25,133.69Z"/><path class="cls-11" d="M573.18,129.77c.2.61.11,1.18-.19,1.28s-.7-.32-.9-.92-.11-1.18.19-1.28S573,129.17,573.18,129.77Z"/><path class="cls-14" d="M559.67,139.77c.14.7,1.33,1,2.64.76s2.27-1.07,2.13-1.76-1.34-1-2.65-.75S559.52,139.08,559.67,139.77Z"/><path class="cls-14" d="M576.63,136.18h0c-1.23.24-2.32-.05-2.46-.71s.79-1.36,2-1.63l0,0A9.19,9.19,0,0,1,576.63,136.18Z"/><rect class="cls-23" x="34.65" y="428.96" width="747.11" height="3.49" rx="1.21"/></g></g></svg>