<svg xmlns="http://www.w3.org/2000/svg" viewBox="0 0 794.02 412.97"><defs><style>.cls-1{fill:#e8f2fa;}.cls-2{fill:#aed2fd;}.cls-3{fill:#93bef1;}.cls-4{fill:#c8e3fc;}.cls-5{fill:#ddebf9;}.cls-6{fill:#fff;}.cls-7{fill:#fda214;}.cls-8{fill:#ecf4fd;}.cls-9{fill:#77aae8;}.cls-10{fill:#b8e6e1;}.cls-11{fill:#a0d4cc;}.cls-12{fill:#f79547;}.cls-13{fill:#bed6f9;}.cls-14{fill:#dde9fb;}.cls-15{fill:#b5d1f1;}.cls-16{fill:#fcb07b;}.cls-17{fill:#243862;}.cls-18{fill:#a7453c;}.cls-19{fill:#eb955d;}.cls-20{fill:#294e94;}.cls-21{fill:#6098a6;}.cls-22{fill:#1e3d70;}.cls-23{fill:#eb7c2b;}.cls-24{fill:#173560;}.cls-25{fill:#ff912b;}.cls-26{fill:#f70;}.cls-27{fill:#e6925b;}.cls-28{fill:#e9f1f8;}.cls-29{fill:#f0caa8;}.cls-30{fill:#b2453c;}.cls-31{fill:#2b4788;}.cls-32{fill:#e9f1fd;}.cls-33{fill:#203f7a;}.cls-34{fill:#e08f5b;}.cls-35{fill:#2d3554;}</style></defs><title>3</title><g id="Layer_2" data-name="Layer 2"><g id="Layer_1-2" data-name="Layer 1"><path class="cls-1" d="M30,409.61s735.79-.09,735.79-.09C790,357.85,790,332.61,792.73,303,808,139.31,684.66,114.14,648.54,107.32,538,86.42,588.28-17,300.1,2.41,273.69,4.19,211.41,18.55,190,27.85c-15,6.51-71.77,35.68-88.41,85C96.29,128.44,95,146,100.32,165.53c18.76,69-30.14,65.08-65.87,98C-13.23,307.42-8.25,379.24,30,409.61Z"/><path class="cls-2" d="M468.27,409.57h.1a1.07,1.07,0,0,0,1.06-1.09l-1.61-69.56-4.73-.56,4,70.13A1.14,1.14,0,0,0,468.27,409.57Z"/><path class="cls-3" d="M495.82,409.57h.1a1.06,1.06,0,0,0,1.06-1.09l-1.61-69.56-4.72-.56,4,70.13A1.14,1.14,0,0,0,495.82,409.57Z"/><path class="cls-2" d="M419.79,409.57h-.1a1.07,1.07,0,0,1-1.06-1.09l1.61-69.56,4.73-.56-4,70.13A1.14,1.14,0,0,1,419.79,409.57Z"/><path class="cls-2" d="M499,334.6V286.93a15.19,15.19,0,0,0-15.18-15.19H449.42a15.19,15.19,0,0,0-15.19,15.19v49.49Z"/><path class="cls-3" d="M428.08,342.13h63.35A7.53,7.53,0,0,0,499,334.6H428.08Z"/><path class="cls-4" d="M420.52,342.13h49.39a3.76,3.76,0,0,0,3.76-3.77h0a3.76,3.76,0,0,0-3.76-3.76H420.52a3.76,3.76,0,0,0-3.76,3.76h0A3.76,3.76,0,0,0,420.52,342.13Z"/><rect class="cls-3" x="337.74" y="83.7" width="198" height="170.92"/><rect class="cls-5" x="341.51" y="86.55" width="190.38" height="164.67"/><polygon class="cls-6" points="408.05 158.19 366.33 158.19 366.33 106.1 373.4 99.72 408.05 99.72 408.05 158.19"/><polygon class="cls-2" points="366.33 106.1 373.18 106.1 373.4 99.72 366.33 106.1"/><rect class="cls-2" x="380.51" y="104.79" width="13.36" height="0.64"/><rect class="cls-2" x="377.36" y="106.7" width="19.65" height="0.64"/><rect class="cls-2" x="371.27" y="118.95" width="32.62" height="0.82"/><rect class="cls-2" x="371.27" y="121.44" width="32.62" height="0.82"/><rect class="cls-2" x="371.27" y="123.92" width="32.62" height="0.82"/><rect class="cls-2" x="371.27" y="126.41" width="32.62" height="0.82"/><rect class="cls-2" x="371.27" y="152.98" width="32.62" height="0.82"/><polygon class="cls-6" points="456.22 230.46 414.5 230.46 414.5 178.37 421.57 171.99 456.22 171.99 456.22 230.46"/><polygon class="cls-2" points="414.5 178.37 421.35 178.37 421.57 171.99 414.5 178.37"/><rect class="cls-2" x="428.68" y="177.06" width="13.36" height="0.64"/><rect class="cls-2" x="425.53" y="178.97" width="19.65" height="0.64"/><rect class="cls-2" x="419.44" y="191.23" width="32.62" height="0.82"/><rect class="cls-2" x="419.44" y="193.71" width="32.62" height="0.82"/><rect class="cls-2" x="419.44" y="196.2" width="32.62" height="0.82"/><rect class="cls-2" x="419.44" y="198.68" width="32.62" height="0.82"/><rect class="cls-2" x="419.44" y="206.32" width="32.62" height="0.82"/><rect class="cls-2" x="419.44" y="208.8" width="32.62" height="0.82"/><rect class="cls-2" x="419.44" y="211.69" width="32.62" height="0.82"/><rect class="cls-2" x="456.72" y="99.72" width="23.04" height="20.31"/><path class="cls-7" d="M467.23,102.14a1,1,0,1,1,1,1A1,1,0,0,1,467.23,102.14Z"/><rect class="cls-6" x="456.72" y="127.19" width="23.04" height="20.31" transform="translate(-8.43 32.94) rotate(-3.99)"/><path class="cls-2" d="M466.78,131a1,1,0,1,1,1.08.94A1,1,0,0,1,466.78,131Z"/><rect class="cls-6" x="380.17" y="202.01" width="23.04" height="20.31" transform="translate(-13.82 27.79) rotate(-3.99)"/><path class="cls-2" d="M390.23,205.77a1,1,0,1,1,1.08.94A1,1,0,0,1,390.23,205.77Z"/><rect class="cls-6" x="350.63" y="215.92" width="23.04" height="20.31" transform="translate(-2.3 3.73) rotate(-0.59)"/><path class="cls-2" d="M361.07,219.61a1,1,0,1,1,1,1A1,1,0,0,1,361.07,219.61Z"/><rect class="cls-8" x="489.26" y="140.54" width="23.04" height="20.31" transform="translate(34.32 -85.75) rotate(10.13)"/><path class="cls-9" d="M501.21,143.26a.88.88,0,1,1,.71,1A.87.87,0,0,1,501.21,143.26Z"/><rect class="cls-8" x="421.26" y="127.19" width="23.04" height="20.31" transform="translate(-12.27 47.36) rotate(-6.18)"/><path class="cls-9" d="M431.11,130.08a.88.88,0,1,1,1.74-.19.88.88,0,0,1-1.74.19Z"/><rect class="cls-10" x="362.68" y="176.19" width="23.04" height="20.31" transform="translate(-30.63 82.13) rotate(-12.04)"/><path class="cls-7" d="M372.17,179.83a.88.88,0,1,1,1-1.47.9.9,0,0,1,.26,1.22A.88.88,0,0,1,372.17,179.83Z"/><polygon class="cls-6" points="443.74 120.03 421.81 120.03 421.81 105.3 427.88 99.72 443.74 99.72 443.74 120.03"/><polygon class="cls-2" points="421.7 105.3 427.69 105.3 427.88 99.72 421.7 105.3"/><path class="cls-2" d="M432.86,101.6a.72.72,0,1,1,.72.72A.72.72,0,0,1,432.86,101.6Z"/><polygon class="cls-6" points="507.8 240.62 485.88 240.62 485.88 225.89 491.95 220.31 507.8 220.31 507.8 240.62"/><polygon class="cls-2" points="485.76 225.89 491.75 225.89 491.95 220.31 485.76 225.89"/><path class="cls-2" d="M496.92,222.19a.72.72,0,1,1,.72.72A.72.72,0,0,1,496.92,222.19Z"/><polygon class="cls-6" points="517.8 211.38 495.88 211.38 495.88 196.65 501.95 191.07 517.8 191.07 517.8 211.38"/><polygon class="cls-2" points="495.76 196.65 501.75 196.65 501.95 191.07 495.76 196.65"/><path class="cls-2" d="M506.92,193a.72.72,0,1,1,.72.72A.72.72,0,0,1,506.92,193Z"/><polygon class="cls-10" points="488.87 211.38 466.94 211.38 466.94 196.65 473.01 191.07 488.87 191.07 488.87 211.38"/><polygon class="cls-11" points="466.83 196.65 472.82 196.65 473.01 191.07 466.83 196.65"/><path class="cls-12" d="M478,193a.72.72,0,1,1,.72.72A.72.72,0,0,1,478,193Z"/><polygon class="cls-10" points="523.99 114.94 502.06 114.94 502.06 100.21 508.14 94.64 523.99 94.64 523.99 114.94"/><polygon class="cls-11" points="501.95 100.21 507.94 100.21 508.14 94.64 501.95 100.21"/><path class="cls-12" d="M513.11,96.51a.72.72,0,1,1,.72.73A.72.72,0,0,1,513.11,96.51Z"/><rect class="cls-13" x="261.99" y="32.35" width="48.67" height="47.21" rx="7.47"/><rect class="cls-14" x="264.1" y="34.39" width="44.45" height="43.12" rx="6.83"/><path class="cls-15" d="M285.31,38.7a1,1,0,1,1,2,0,1,1,0,0,1-2,0Z"/><path class="cls-15" d="M293.45,40.13a1,1,0,1,1,.39,1.37A1,1,0,0,1,293.45,40.13Z"/><path class="cls-15" d="M300.42,45.66a1,1,0,1,1-.3,1.4A1,1,0,0,1,300.42,45.66Z"/><path class="cls-15" d="M303.87,54.23a1,1,0,1,1-1,1A1,1,0,0,1,303.87,54.23Z"/><path class="cls-15" d="M302.11,64.18a1,1,0,1,1-1.43,0A1,1,0,0,1,302.11,64.18Z"/><path class="cls-15" d="M295.78,70.53a1,1,0,1,1-1.43,0A1,1,0,0,1,295.78,70.53Z"/><path class="cls-15" d="M285.31,73.8a1,1,0,1,1,1,1A1,1,0,0,1,285.31,73.8Z"/><path class="cls-15" d="M279.16,40.13a1,1,0,1,0-1.76,1,1,1,0,0,0,1.76-1Z"/><path class="cls-15" d="M272.19,45.66a1,1,0,1,0,.31,1.4A1,1,0,0,0,272.19,45.66Z"/><path class="cls-15" d="M268.74,54.23a1,1,0,1,0,0,2,1,1,0,0,0,0-2Z"/><path class="cls-15" d="M270.51,64.18a1,1,0,0,0,1.42,1.43,1,1,0,0,0,0-1.43A1,1,0,0,0,270.51,64.18Z"/><path class="cls-15" d="M276.84,70.53a1,1,0,1,0,1.42,0A1,1,0,0,0,276.84,70.53Z"/><path class="cls-15" d="M286.05,55.24a1,1,0,1,1,1,1A1,1,0,0,1,286.05,55.24Z"/><rect class="cls-15" x="286.92" y="42.65" width="0.28" height="12.59"/><rect class="cls-15" x="286.03" y="52.19" width="8.49" height="0.83" transform="translate(29.48 190.5) rotate(-38.14)"/><path class="cls-16" d="M563.92,407.08c-.2,2.71-4,2.74-8.36,2.23s-3.18.6-9.26.68-8.16-1.92-8.45-2.79,2.66-1.42,5.79-2.18l1.18-.29c3.53-.9,5.86-3.54,8.88-5.84,2.86-2.19,6.55-10.09,6.55-10.09l8.29-.37s-3.49,7.08-4.8,10.13c-.77,1.8-.45,4-.11,5.7A10.64,10.64,0,0,1,563.92,407.08Z"/><path class="cls-17" d="M555.56,409.31c-4.34-.5-3.18.6-9.26.68s-8.16-1.92-8.45-2.79,2.66-1.42,5.79-2.18l0,.06a17,17,0,0,0,8.91,1.6c4.08-.41,8.24-2.11,11-2.42a10.64,10.64,0,0,1,.29,2.82C563.72,409.79,559.9,409.82,555.56,409.31Z"/><path class="cls-16" d="M621.2,407.64c-.19,2.71-4,2.74-8.35,2.24s-3.19.6-9.26.69-8.16-1.91-8.46-2.78,2.66-1.42,5.79-2.19l1.18-.29c3.53-.9,5.86-3.54,8.88-5.85,2.85-2.19,0-15.13,0-15.13l9.12-.89s-.43,10.9-.43,15.85c0,2,.9,3.84,1.24,5.53A10.69,10.69,0,0,1,621.2,407.64Z"/><path class="cls-17" d="M612.85,409.88c-4.34-.5-3.19.6-9.26.69s-8.16-1.91-8.46-2.78,2.66-1.42,5.79-2.19l0,.06a17,17,0,0,0,8.91,1.59c4.07-.41,8.23-2.12,11-2.43a10.69,10.69,0,0,1,.29,2.82C621,410.35,617.18,410.38,612.85,409.88Z"/><path class="cls-18" d="M594.58,183.9c-1.57-6.46.7-9.46,2.76-11.07,1-2.37,2.08-4.09,3.22-4.73a11.66,11.66,0,0,1,6.3-1.21,3,3,0,0,0-1.33-.63c1.08-.16,3.48.91,3.48.91,15-5.77,17.35,16.3,17,21.43s-.27,11.16,7.53,15.2c14.88,7.71-4.94,36.76-4.94,36.76.37-4.14-18.75-26-28.72-32.56-2.43-3.57-3.29-9.89-3.36-10.39.42,5,1.28,7.82,2,9.4C594.05,202.83,593.37,192.78,594.58,183.9Z"/><path class="cls-16" d="M600.5,208.33s4.82,2.55,8.48,1.55c3.44-.94,5.69-5.41,5.64-5.42-1.46-.29-1.88-2.29-1.85-10.9l-.66.13L601,195.88s.25,3.49.26,6.78C601.3,205.42,601.13,208,600.5,208.33Z"/><path class="cls-19" d="M601,195.88s.25,3.49.26,6.78c6.2-.18,9.48-5.84,10.82-9Z"/><path class="cls-20" d="M555.94,393.19a2.71,2.71,0,0,0,2.46,3.54l4.33.21,4.58.14a3.71,3.71,0,0,0,3-1.36A129,129,0,0,0,592,354.56c.19-.61.39-1.23.61-1.85,4.51-13.15,13.85-29.65,18.78-44.59.78-2.38,1.49-4.62,2.12-6.74l.59-2a158.68,158.68,0,0,0,5.65-29.75l-35.57.29A783.79,783.79,0,0,1,555.94,393.19Z"/><path class="cls-6" d="M589.18,249.48c.09,16.92-2.49,24.19-2.49,24.19a47.86,47.86,0,0,0,33.34,2c.21-.07,15-3.44,15-3.44-.3-.69-3-12.09-3.29-12.72-3.82-8.21-6.72-11.81-7.18-14.33A53.66,53.66,0,0,1,624.1,231a114.43,114.43,0,0,1,4.39-22.28c-4.93-1.12-9.55-3.09-14.68-5-1.18,1.47-4.79,3-7.92,2.93-3.61-.08-4.78-1.62-4.59-3.3-3.84,2.13-6.91,4.15-6.91,4.15-3.27,5.68-9.89,11.19-10.37,19.89C583.9,229.56,589.17,249,589.18,249.48Z"/><path class="cls-21" d="M619.77,251.36c1.55,2.2,4.53,15.58,12,17.26-3.82-9.53-6.72-13.71-7.18-16.64a72.36,72.36,0,0,1-.44-16.48c-2.48-4.35-4.33-7.33-4.33-7.33-.2-.71-3.95-12.3-5.15-1.94S618,248.9,619.77,251.36Z"/><path class="cls-16" d="M599,199s14.67.25,14.68-8.89,1.91-15.27-7.45-15.81-11.2,2.94-11.94,6S595.14,198.7,599,199Z"/><path class="cls-18" d="M599.5,174.06s4,10.73,10.19,12.31,8.84-.06,8.84-.06A17.47,17.47,0,0,1,612.82,176S602.53,169,599.5,174.06Z"/><path class="cls-18" d="M600.5,174.94s-3,2.39-3.73,4.72-1.06,7.12-2.46,7c0,0-3-7.29.37-11.41C598.29,170.83,600.5,174.94,600.5,174.94Z"/><polygon class="cls-16" points="575.87 261.23 568.94 282.36 572.89 283.94 584.35 265.27 575.87 261.23"/><path class="cls-12" d="M594.56,206.29s-8.18,3.24-10.54,8.3-5.95,39-7.37,42.45-2.5,6.24-2.5,6.24,4.12,3.47,8.26,3.73S594.56,206.29,594.56,206.29Z"/><path class="cls-12" d="M601.3,203.38s-8.49,21-8.74,25.21-1,69.42-1,69.42.5,3-5.24,1.74-7.24-2.49-7.24-2.49,5.49-40.2,4-54.18,11.49-36.79,11.49-36.79Z"/><path class="cls-22" d="M562.73,396.94l5,.15a2.89,2.89,0,0,0,2.31-1,128.43,128.43,0,0,0,22-41.49c.19-.61.39-1.23.61-1.85,4.51-13.15,13.85-29.65,18.78-44.59.78-2.38,1.49-4.62,2.12-6.74l.59-2-5.24-4s-15.73,25.47-20.6,49.44C584.05,365.66,567.11,390.71,562.73,396.94Z"/><path class="cls-20" d="M608.33,347.07c-.08,11,.44,35.6,1.78,47.61a2.17,2.17,0,0,0,2.16,1.93H616l3.51,0a1.42,1.42,0,0,0,1.38-1.15c3.69-18.78,6.33-34.39,8.27-47.87,1.62-11.29,3.05-21,4.16-29.29s1.89-15.4,2.17-21.33q.06-1.41.09-2.73c0-.88,0-1.74,0-2.58l-30.73-3C605.22,309.06,608.38,340.3,608.33,347.07Z"/><path class="cls-22" d="M616,396.61c1.41,0,2.5,0,3.27,0a1.73,1.73,0,0,0,1.67-1.39c3.67-18.68,6.29-34.21,8.22-47.63,1.62-11.29,3.05-21,4.16-29.29s1.89-15.4,2.17-21.33l-11.28,6.63s7.2,2.54,4.45,21.77S619.81,393.89,616,396.61Z"/><path class="cls-12" d="M614.53,296.76s2.17,7.82,9.66,6.82,18.14-5.49,18.14-5.49-3.2-10.12-7.18-23.4c-4.82-16.09-10.79-36.83-13.6-49.91a81.1,81.1,0,0,1-1.53-8.92l-6.21-12.06s-9.27,20.8-9.77,26S614.53,296.76,614.53,296.76Z"/><path class="cls-16" d="M622,229.06l-8.2-25.26s10.36,3.08,15.56,5.71c0,0,3.25,4.19,5.26,13.85,0,0,2.12,23.21-2.62,31.7,0,0-15,3-39-5.24v-5.5s26.22,1.38,31.58,2Z"/><path class="cls-23" d="M614.86,240.83c.34,8.49,2.34,25,20.15,33.79l.14.07c-4.82-16.09-10.79-36.83-13.6-49.91C618.28,229.67,614.68,236.15,614.86,240.83Z"/><path class="cls-12" d="M613.81,203.8s15.2,1.07,18.87,9.23,4.82,35.29.16,43.28c0,0-6.42,1.83-17.76-.3l-.42-.08s-3.62-8.86-.38-10.61c0,0,9.57.5,8.57-2.66S613.81,203.8,613.81,203.8Z"/><path class="cls-18" d="M575.69,247.72l.45,1.44,24.94-7.76a1,1,0,0,0,.17-.89.7.7,0,0,0-.61-.55Z"/><polygon class="cls-18" points="573.88 249.08 575.69 247.72 576.14 249.16 573.88 249.08"/><path class="cls-16" d="M569.92,281.78s-6.33,3.5-7.16,6.16-.26,8.24.75,8.16,2.5-6,3.33-6.41,2-1.67,2-.75-.83,2.58-.42,2.83,1.75-2.33,2.67-2.83,1.3-4.62,2.19-5.72S569.92,281.78,569.92,281.78Z"/><path class="cls-16" d="M593.06,244.32s-5.66-3.48-8-2.95-8.42,4.92-5.51,5.87,5.27,0,6.39.65,1.94,1.94,7.16,1.93S593.06,244.32,593.06,244.32Z"/><path class="cls-24" d="M147.94,206.87c-.95-1.83,20.7-8.42,21,9.64,0,0,40.56-1,21.19-23.6-6.7-7.82-6-14.29-5.81-20.31s-4.18-23.53-19.19-21.77a11.17,11.17,0,0,0-8.83.94C145.18,157.56,120.19,213.53,147.94,206.87Z"/><path class="cls-16" d="M214.24,227.06s2.64-4,4.77-4.09,6.06-1.19,5.75-.4-2.76.87-3,1.34,3.62,1.18,4.72,1.26,3.71,0,3.63.55-4.69,2.84-7.94,2.53a22,22,0,0,0-7.27.94Z"/><path class="cls-25" d="M176.06,228.36a39.62,39.62,0,0,0,4,6.11c3.14,3.93,8,8.47,14.05,9.36a15,15,0,0,0,8.34-1.35h0c7.38-3.28,12.92-10.81,12.92-10.81a6.08,6.08,0,0,0-.82-5.95s-14.9,3.35-16.32,2.64-9.69-24.54-11.66-27.54-8.68-4.55-8.68-4.55Z"/><path class="cls-26" d="M180.1,234.47c3.14,3.93,8,8.47,14.05,9.36a15,15,0,0,0,8.34-1.35c-.29,0-7.65,1-10.59-4.31s-6.23-13.86-10.68-11C179.3,228.37,179.38,231.41,180.1,234.47Z"/><path class="cls-17" d="M120.5,389.12s-4.54,4.15-3.66,7.1,5,4.91,5.55,8.51,2.77,5.56,4.76,5.56h9.51s1.47-2.53-2.07-3.29-4.89-5-4.67-8.93a69.81,69.81,0,0,0-.33-9.17l-7.54-1.74Z"/><path class="cls-17" d="M159,390.88s-1.63,17.57.36,18.55l25.54-.05s0-2.95-4.1-3.6-11.31-3.06-12.53-8.4S159,390.88,159,390.88Z"/><path class="cls-16" d="M140.77,264.84c5.25-11.78,8.47-15.16,7.86-18.82-.46-2.72,1.39-50.75,1.39-50.75.62-.19,1.87-.37,2.55-.52a6.4,6.4,0,0,0,4.68-4.07,32.45,32.45,0,0,0,1.59-10.84l.68.14,11.31,2.24s-.26,3.56-.26,6.91v.09a6.5,6.5,0,0,0,4.69,6.29l2.68.77a104.07,104.07,0,0,1,4.95,24.05c.79,12.18-7.56,17.48.06,41.83C190.73,287,137.87,271.35,140.77,264.84Z"/><path class="cls-27" d="M170.83,182.22s-.26,3.56-.26,6.91c-6.34-.18-9.68-5.95-11-9.15Z"/><path class="cls-16" d="M173,185.39s-15,.25-15-9.08-1.95-15.59,7.62-16.14,11.43,3,12.19,6.12S176.84,185.09,173,185.39Z"/><path class="cls-24" d="M172.39,159.94s-4.1,10.95-10.4,12.57-9-.07-9-.07a17.83,17.83,0,0,0,5.83-10.53S169.3,154.73,172.39,159.94Z"/><path class="cls-24" d="M171.38,160.83s3,1.14,4.29,3.35a15.08,15.08,0,0,1,2,8.57s3.1-7.44-.38-11.65C173.63,156.64,171.38,160.83,171.38,160.83Z"/><path class="cls-28" d="M169.69,179.6a3.77,3.77,0,0,0,3.1,1.27,2.77,2.77,0,0,0,2.31-1.53A10.14,10.14,0,0,0,169.69,179.6Z"/><path class="cls-25" d="M139.32,216.51a102,102,0,0,0,0,11.81c.26,4.26,4.57,10,5.19,11.39,1.53,3.55,3.26,4.12,3.26,4.12l13.41,3.29,4.71,1.15,14.87-4.44s6.77-18.89,4.05-29.53a82,82,0,0,0-6.87-18s-12.13,11.88-27.92-1Z"/><path class="cls-29" d="M143.25,230.06c.25,4.26.64,8.24,1.26,9.65,1.53,3.55,3.26,4.12,3.26,4.12l13.41,3.29,5.82-1.71s-19.43-2.95-17.28-19.67Z"/><path class="cls-20" d="M179.81,246.7s7.36,22.91,7.84,30.72S173.58,388.23,173,391.83c-.55,3.39-4.76,5.55-4.76,5.55a6.37,6.37,0,0,1-4.7.36c-3.83-1.08-5-2.38-5-2.38s-5.73-73.47-2.18-99.72a417.41,417.41,0,0,0,3.59-48.94Z"/><path class="cls-17" d="M148.63,246s-11.23,15.06-12.28,25.25-1.64,46-3.87,55.89-10.43,29-10.43,60a6.24,6.24,0,0,0,3.48,2.72,29.5,29.5,0,0,0,3.07.84,4.8,4.8,0,0,0,5.38-2.55c5.54-11.15,23.19-47.13,24.09-54.59.64-5.29,6.21-40.26,18.37-60.79,2.91-4.92-1.79-24.52-1.79-24.52Z"/><path class="cls-6" d="M170,179.85s.26,1.1,3,.93c0,0,2.3-.14,2.23-1.35A7.39,7.39,0,0,0,170,179.85Z"/><path class="cls-17" d="M181,243.17s-3,2.33-8.83,2.45c-7,.14-24.38-1.79-24.38-1.79a14.31,14.31,0,0,0-.75,4.44s21.23,5.35,33.52.78A7.75,7.75,0,0,0,181,243.17Z"/><path class="cls-6" d="M170.65,248a3.22,3.22,0,1,1,3.2,3.62A3.43,3.43,0,0,1,170.65,248Zm1.06,0a2.17,2.17,0,1,0,2.14-2.56A2.38,2.38,0,0,0,171.71,248Z"/><rect class="cls-30" x="134.34" y="222.16" width="28.83" height="39.46" transform="translate(102.09 522.01) rotate(-138.95)"/><path class="cls-16" d="M152.68,247.38s8,.93,7.94,2.82-2,5.78-3,5.95-6.48-5.25-6.48-5.25Z"/><path class="cls-25" d="M150,195.27s-10.64.74-14.72,10.65-11.81,26.55-11.81,29.35,4.32,11.43,27.53,16.39c0,0,2.4-2.52,2.25-4.52,0,0-14.48-12.44-14.44-13.89.07-2.75,2.37-6.39,15.09-19.11C157.38,210.68,150,195.27,150,195.27Z"/><path class="cls-2" d="M267.52,409.75h-.1a1.06,1.06,0,0,1-1.06-1.08L268,339.1l4.72-.55-4,70.12A1.13,1.13,0,0,1,267.52,409.75Z"/><path class="cls-3" d="M240,409.75h-.1a1.06,1.06,0,0,1-1.06-1.08l1.6-69.57,4.73-.55-4,70.12A1.13,1.13,0,0,1,240,409.75Z"/><path class="cls-2" d="M316,409.75h.1a1.06,1.06,0,0,0,1.06-1.08l-1.61-69.57-4.73-.55,4,70.12A1.15,1.15,0,0,0,316,409.75Z"/><path class="cls-2" d="M236.84,334.79V287.12A15.19,15.19,0,0,1,252,271.93h34.35a15.19,15.19,0,0,1,15.19,15.19v49.49Z"/><path class="cls-3" d="M307.71,342.31H244.36a7.52,7.52,0,0,1-7.52-7.52h70.87Z"/><path class="cls-2" d="M315.27,342.31H265.88a3.76,3.76,0,0,1-3.76-3.76h0a3.76,3.76,0,0,1,3.76-3.76h49.39a3.76,3.76,0,0,1,3.76,3.76h0A3.76,3.76,0,0,1,315.27,342.31Z"/><path class="cls-17" d="M313.71,322.91c-4.92,8.56-11.11,11.87-11.11,11.87H276.86S317.46,316.38,313.71,322.91Z"/><path class="cls-16" d="M293.94,389.17a2.38,2.38,0,0,0-.43,2.54s0,0,0,0c.61,1.69,2.64,3.59,5,5.48.3.24.57.46.8.67l.18.16.14.13c2.2,2,1.37,2.48,5.32,6.6,4.5,4.68,7.6,4.76,8.48,4.34s-.77-2.85-2.45-5.64l-.24-.41c-.23-.37-.45-.75-.67-1.12-2-3.36-1.46-4.94-1-9.94.38-4.06,6.33-22.7,6.33-22.7l-8.63-1.49s-2.6,14.84-5.46,17.13c-1.53,1.22-3.25,1.23-4.72,2.14l-.3.19A11.06,11.06,0,0,0,293.94,389.17Z"/><path class="cls-17" d="M293.94,389.17a2.38,2.38,0,0,0-.43,2.54s0,0,0,0c.75,1.69,2.73,3.58,5,5.46l.79.69.18.16.14.13c2.2,2,1.37,2.48,5.32,6.6,4.5,4.68,7.6,4.76,8.48,4.34s-.77-2.85-2.45-5.64a19.19,19.19,0,0,1-8-5.92c-2.71-3.45-4.52-7.9-6.37-10.47l-.3.19A11.06,11.06,0,0,0,293.94,389.17Z"/><path class="cls-16" d="M363.5,383.78c.53,2.66,4.33,2.22,8.57,1.18s3.23.2,9.26-.47,7.87-2.92,8.05-3.82-2.82-1.07-6-1.44l-1.21-.15c-3.62-.45-6.26-2.78-9.54-4.69-3.11-1.82-7.75-9.2-7.75-9.2l-8.27.65s4.34,6.6,6,9.47c1,1.68.94,3.92.81,5.64A10.75,10.75,0,0,0,363.5,383.78Z"/><path class="cls-17" d="M372.07,385c4.24-1,3.23.2,9.26-.47s7.87-2.92,8.05-3.82-2.82-1.07-6-1.44l0,.06a17,17,0,0,1-8.65,2.69c-4.09.1-8.43-1.08-11.26-1a10.75,10.75,0,0,0,.07,2.83C364,386.44,367.83,386,372.07,385Z"/><path class="cls-17" d="M331.78,330.85,324,351.68l-10.1,27.18a16.23,16.23,0,0,1-5.37-.49,23.45,23.45,0,0,1-5.19-2.53s2.81-29.19,8-45.94c1.34-4.3,2.84-7.78,4.5-9.74C324,310.57,331.78,330.85,331.78,330.85Z"/><path class="cls-31" d="M323.91,297.79c-5.07-1.64-19.53.46-34.05,3.31l-3-5-31.37-2.45s-10.35,23-4.68,37.58a5.31,5.31,0,0,0,5.31,3.58h25.19c15.6,0,33-10.73,35.27-11.18,3.68-.74,5.16,6.64,8.85,14.38s34.66,34.3,34.66,34.3,4.76.05,6.73-.69a6.72,6.72,0,0,0,2.89-1.83S335.34,301.48,323.91,297.79Z"/><path class="cls-17" d="M285.59,204.74c-4-2.11-10.14-2.4-11.13-2.53-11.89-1.6-19,15.67-19.46,20.91-.78,9.65-5.88,11.12-13.07,17.16-14.4,12.11-10.17,26.19-2.3,31.42,4.73,3.14,13.06,0,13.06,0s22.77-12.67,33.95-18.82C303.38,250.5,295.83,210.11,285.59,204.74Z"/><path class="cls-16" d="M277.27,247.64c.05,0-5.49,1.93-9.2.29-3.49-1.54-6.13-7.28-6.08-7.29,1.59-.07,3.33-1.46,4.67-10.56l.68.24,11.36,4.09s-.83,3.65-1.36,7.12C276.89,244.44,276.65,247.23,277.27,247.64Z"/><path class="cls-19" d="M278.7,234.41s-.83,3.65-1.36,7.12c-6.52-1.18-9.09-7.68-10-11.21Z"/><path class="cls-16" d="M280.39,238s-15.55-2.09-14.1-11.75.42-16.43,10.41-15.51,11.35,4.9,11.65,8.24S284.47,238.32,280.39,238Z"/><path class="cls-17" d="M287.79,213.72s-10,8.57-16.72,9.26-9.33-1.48-9.33-1.48a26.38,26.38,0,0,0,6.39-8.66,4.77,4.77,0,0,1,3.92-2.8C276.88,209.62,286.05,209.43,287.79,213.72Z"/><path class="cls-17" d="M281.57,213s3.33,3.22,4.37,5.6,1.32,7.82.51,10c0,0,5.19-10.09,2.25-15C285.59,208.38,281.57,213,281.57,213Z"/><path class="cls-6" d="M290.36,270.54c-.47,31.47-.13,24.89-3.57,27.88-.83.72-3.16,1.15-6.23,1.35-9.65.64-26.61-.95-27.25-2.73-2.23-6.17-.66-8.09-2.51-17.54q-.3-1.5-.72-3.27c-1.55-6.49-3.05-8.7,2.44-19.12,5-9.44,10.15-17.1,10.62-16.83,13.14,7.81,14.2,1.25,14.2,1.25S290.59,255.19,290.36,270.54Z"/><path class="cls-31" d="M324,351.68l-10.1,27.18a16.23,16.23,0,0,1-5.37-.49,23.45,23.45,0,0,1-5.19-2.53s2.81-29.19,8-45.94Z"/><path class="cls-6" d="M277.34,241.53s13.52,2.29,15.11,8.11l10.93,40.05s-6.87,1.23-10.05-1.94-11.05-29.46-11.05-29.46Z"/><path class="cls-32" d="M280.56,299.77c-9.65.64-26.61-.95-27.25-2.73-2.23-6.17-.66-8.09-2.51-17.54l4.65-13.1S254.68,281,259,284.83s17.62,7.41,19.72,10.62A11.8,11.8,0,0,1,280.56,299.77Z"/><path class="cls-16" d="M269.51,293.63s9.52-2.12,11.05-1.27,5.29,3.92,5.76,5-3.42-.81-4.68-1.15c-.82-.22-3,.53-4.05.88-4.49,1.5-7.24.73-7.24.73Z"/><path class="cls-6" d="M263.13,240.28s-12.78.78-17.2,7c-6.23,8.68-18.59,45.7-11.51,50.64,8,5.56,36.3,1.46,36.3,1.46s.94-4.41-.37-6.54-22.62-5.57-23.6-6.56S259,267.07,259,264.12,263.13,240.28,263.13,240.28Z"/><path class="cls-16" d="M281,295a18.76,18.76,0,0,0,2.65,2.88,2,2,0,0,0,1.08.23l-1.35-2.42Z"/><path class="cls-16" d="M280.56,292.36l5.8,2.81a1,1,0,0,1-1,.37,13.82,13.82,0,0,1-2.52-.69Z"/><polygon class="cls-12" points="283.67 301.83 329.54 301.83 343.34 267.51 297.54 267.51 283.67 301.83"/><polygon class="cls-23" points="330.08 300.49 269.51 300.49 269.51 301.83 329.54 301.83 330.08 300.49"/><path class="cls-6" d="M318,284.67a1.58,1.58,0,0,0-1.56-2.18,3.13,3.13,0,0,0-2.81,2.18,1.59,1.59,0,0,0,1.56,2.18A3.12,3.12,0,0,0,318,284.67Z"/><path class="cls-9" d="M523.24,411h.13a1.44,1.44,0,0,0,1.4-1.51l-2.12-97.41-6.25-.77,5.33,98.18A1.55,1.55,0,0,0,523.24,411Z"/><path class="cls-9" d="M269.73,411h-.13a1.44,1.44,0,0,1-1.4-1.51l2.12-97.41,6.26-.77-5.34,98.18A1.54,1.54,0,0,1,269.73,411Z"/><path class="cls-9" d="M528.86,313.89H265.16a5.87,5.87,0,0,1-5.87-5.87h0a5.87,5.87,0,0,1,5.87-5.88h263.7a5.87,5.87,0,0,1,5.87,5.88h0A5.87,5.87,0,0,1,528.86,313.89Z"/><path class="cls-5" d="M205,135.2c-1-25,20-36.12,41.39-36.12s44.76,5.55,46.78,38.81c1.3,21.39-10.1,34.56-43,34.56-11.07,0-19.68-1.75-26.27-4.86l-16.42,14.58L215.55,162C208.4,155.36,205.39,146,205,135.2Z"/><path class="cls-17" d="M692.12,410.92a29.62,29.62,0,0,1,2-7.5c1.4-2.79,10.29-1,10.29-1s1.78,1.52,2.16,8.63Z"/><path class="cls-17" d="M661.84,410.85c2.09-1.27.9-10.78.9-10.78s-9.73-7.79-11.07-1.83-9.25,8.64-13.75,9.37c-3.1.5-4.07,2.23-4.36,3.24Z"/><path class="cls-33" d="M682,341.68a45.37,45.37,0,0,0-.72,5.26c-.9,17.65-14.85,58-17.35,58.94-3.86,1.45-9.94-1.64-13.12-2.66a2.73,2.73,0,0,1-1.91-3.1c6.91-31.75,9.45-77.49,10.37-104.56a123,123,0,0,1,2.81-23.06s34-9.08,34.22,2.41C696.48,285.07,685,324.92,682,341.68Z"/><path class="cls-17" d="M682,341.68l-22.73-46.12a123,123,0,0,1,2.81-23.06s34-9.08,34.22,2.41C696.48,285.07,685,324.92,682,341.68Z"/><path class="cls-33" d="M674.43,275l18,130.36s7.9,1.9,14.05.38c0,0,5.26-69.33,4.82-86.1s3.78-44.85-1-47.94S674.43,275,674.43,275Z"/><path class="cls-12" d="M713.83,272.77a2.51,2.51,0,0,1-1.8,2.58c-2.51.73-5.41,1.24-11,2.39a106.84,106.84,0,0,1-20.95,2.11c-13.78.09-19-4.66-19-4.66-.59,0,.31-2.88,1.13-16.59.28-4.64.54-10.53.74-18,.17-6.69.29-14.64.3-24.08,0-11.35,17.58-23.56,17.91-23.56h0c0,1.64,2.57,4.65,6.54,4.91,4.71.31,10.49-2,10.49-4.74,0,0,8.51,13.61,11.53,28.15C711.27,228.63,710.65,228.43,713.83,272.77Z"/><path class="cls-12" d="M681.18,193s-16.34-.14-20.27,5.37-12.55,35.18-8.06,45,12.92-4.08,17.59-10.13S681.18,193,681.18,193Z"/><path class="cls-16" d="M681,190.5v1.68s-.46,5.29,6,6.06,11.33-1,11.16-5.06a59.25,59.25,0,0,1-1.18-9,19,19,0,0,1,.23-3.16l-12.6-.26-3.71.61Z"/><path class="cls-34" d="M681,181.36l0,9.14a10.7,10.7,0,0,0,4.54,1c5.79,0,9.54-4.25,11.49-7.33a19,19,0,0,1,.23-3.16l-12.6-.26Z"/><path class="cls-16" d="M698.24,179c-1.46,7.87-11.62,7.61-16,7.11-1.24-.13-2-.29-2-.29-1.39-.37-2.16-2.57-2.53-5.44-.71-5.68.19-14,1.15-16.16,1.45-3.21,4.17-6.69,14.4-4.18S700.12,168.9,698.24,179Z"/><path class="cls-23" d="M664.47,215.1s-6.32,14-6.13,18.13a21.65,21.65,0,0,1,6.13.79C669.41,235.49,664.47,215.1,664.47,215.1Z"/><path class="cls-17" d="M675.71,156.71a33.8,33.8,0,0,0,9.8-2.66c4.31-1.87,9.75.19,11.51,1.12a2.53,2.53,0,0,0-.43-1.06,2.33,2.33,0,0,1,.91,1.35c.08.06.12.1.1.11a3,3,0,0,1,1.47.1s-.4-.06-.54.2l-.07.07c6.72,3.25,7.34,13.87,5.18,16.33a85.84,85.84,0,0,0-6.53,9.65,12.2,12.2,0,0,1,.14-4.21c.48-2.6-1.77-2.6-4.61-3.79s-.47-4.49-3-6.5-11.59-.83-11.47-2.37C674.83,163.82,675.71,157.05,675.71,156.71Z"/><path class="cls-23" d="M700.3,241.23c-2.67,10.71-31.51,16.25-38.07,17.37.28-4.64.54-10.53.74-18Z"/><path class="cls-16" d="M694,244.72c.27,0,6.41-.92,7.51-1.47s6.13-7.7,2.83-9.53-12.13,5.5-12.13,5.5Z"/><path class="cls-12" d="M656.64,246.84s23.73,1.29,39.66-2.12a6.83,6.83,0,0,0-4.6-6.65s-24.83-5.26-30.79-3.8S656.64,246.84,656.64,246.84Z"/><path class="cls-12" d="M711.15,228.21c-4.93,5.94-11.37,10.79-18.47,11.92h0a13.16,13.16,0,0,1-1.75-7.92,15.85,15.85,0,0,1,2.58-7.28,16.47,16.47,0,0,0,1.4-2.82c3.87-9.89,3.3-29,3.3-29s16.46,1.72,21.59,9.05C722.94,206.7,718.94,218.82,711.15,228.21Z"/><path class="cls-34" d="M682.24,186.09c-1.24-.13-2-.29-2-.29-1.39-.37-2.16-2.57-2.53-5.44a6.88,6.88,0,0,1,4.31,3.52A5,5,0,0,1,682.24,186.09Z"/><path class="cls-16" d="M675.6,190.55s-5.68-9.39-1.26-9.8a6.71,6.71,0,0,1,6.84,3.69c.63,1.1-.17,6.06-.17,6.06Z"/><path class="cls-12" d="M697.27,231.89a12.15,12.15,0,0,1-1,3.26,15.42,15.42,0,0,1-3.62,5h0c-14.76-6.66-17.75-29.55-18.25-42.13-.2-5.05,0-8.44,0-8.44,6.66-2.21,8.53,1.63,8.53,1.63s7.87,18.7,11.95,30.92C696.47,226.79,697.47,230.52,697.27,231.89Z"/><path class="cls-23" d="M711.15,228.21c-4.93,5.94-11.37,10.79-18.47,11.92h0c-14.76-6.66-17.75-29.55-18.25-42.13,0,0,7,25.35,16.5,34.21a10.39,10.39,0,0,0,5.37,2.94s12-3.39,14.51-6.58C711,228.34,711.1,228.22,711.15,228.21Z"/><polygon class="cls-31" points="442.19 302.14 396.32 302.14 382.52 267.83 428.32 267.83 442.19 302.14"/><polygon class="cls-31" points="395.78 300.8 456.35 300.8 456.35 302.14 396.32 302.14 395.78 300.8"/><path class="cls-6" d="M407.9,285a1.59,1.59,0,0,1,1.56-2.18,3.14,3.14,0,0,1,2.81,2.18,1.59,1.59,0,0,1-1.56,2.19A3.13,3.13,0,0,1,407.9,285Z"/><path class="cls-35" d="M764.11,413H23.53a1.68,1.68,0,0,1-1.68-1.68h0a1.68,1.68,0,0,1,1.68-1.68H764.11a1.69,1.69,0,0,1,1.68,1.68h0A1.69,1.69,0,0,1,764.11,413Z"/></g></g></svg>