<svg width="411" height="557" viewBox="0 0 411 557" fill="none" xmlns="http://www.w3.org/2000/svg">
<path d="M0 149C0 140.716 6.71573 134 15 134H396C404.284 134 411 140.716 411 149V557H0V149Z" fill="#35858B"/>
<path d="M332.432 493.183H305.917C303.824 493.183 302.129 491.486 302.129 489.394V478.074C302.129 475.983 303.824 474.285 305.917 474.285H332.432C334.524 474.285 336.219 475.983 336.219 478.074V489.394C336.219 491.486 334.524 493.183 332.432 493.183Z" fill="#71B3B8"/>
<path d="M307.536 493.183V503.007L313.653 493.183H307.536Z" fill="#71B3B8"/>
<path d="M330.699 481.956H307.65C306.532 481.956 305.626 481.049 305.626 479.933C305.626 478.816 306.532 477.91 307.65 477.91H330.699C331.816 477.91 332.721 478.816 332.721 479.933C332.721 481.049 331.816 481.956 330.699 481.956Z" fill="#549FA5"/>
<path d="M330.699 488.488H307.65C306.532 488.488 305.626 487.582 305.626 486.465C305.626 485.347 306.532 484.443 307.65 484.443H330.699C331.816 484.443 332.721 485.347 332.721 486.465C332.721 487.582 331.816 488.488 330.699 488.488Z" fill="#549FA5"/>
<path d="M127.674 448.413C127.174 448.413 126.746 448.031 126.698 447.524C126.647 446.984 127.042 446.505 127.582 446.453C128.981 446.32 130.42 446.239 131.857 446.213C132.403 446.206 132.846 446.636 132.856 447.179C132.866 447.72 132.434 448.168 131.892 448.177C130.506 448.201 129.117 448.28 127.768 448.409C127.736 448.412 127.705 448.413 127.674 448.413V448.413ZM140.271 448.633C140.232 448.633 140.191 448.63 140.149 448.625C138.773 448.455 137.387 448.33 136.026 448.256C135.485 448.225 135.07 447.762 135.099 447.221C135.13 446.679 135.59 446.264 136.134 446.295C137.539 446.372 138.971 446.5 140.392 446.676C140.929 446.744 141.311 447.233 141.244 447.772C141.182 448.269 140.759 448.633 140.271 448.633V448.633ZM119.404 449.907C118.972 449.907 118.577 449.619 118.457 449.183C118.316 448.66 118.623 448.12 119.146 447.977C120.506 447.606 121.915 447.289 123.334 447.034C123.867 446.937 124.378 447.294 124.474 447.827C124.57 448.361 124.215 448.872 123.681 448.967C122.319 449.211 120.967 449.516 119.663 449.872C119.576 449.896 119.489 449.907 119.404 449.907V449.907ZM148.532 450.207C148.45 450.207 148.368 450.197 148.286 450.176C146.946 449.831 145.584 449.527 144.241 449.27C143.709 449.169 143.359 448.654 143.461 448.121C143.563 447.59 144.077 447.24 144.61 447.341C145.992 447.605 147.394 447.919 148.774 448.274C149.3 448.41 149.616 448.945 149.481 449.469C149.367 449.913 148.968 450.207 148.532 450.207V450.207ZM156.533 452.792C156.415 452.792 156.295 452.77 156.177 452.725C154.891 452.223 153.577 451.754 152.269 451.332C151.754 451.165 151.471 450.611 151.638 450.095C151.803 449.579 152.357 449.297 152.873 449.462C154.218 449.897 155.57 450.38 156.891 450.896C157.395 451.092 157.645 451.662 157.449 452.167C157.297 452.555 156.926 452.792 156.533 452.792V452.792ZM111.539 452.86C111.166 452.86 110.809 452.645 110.644 452.285C110.42 451.791 110.637 451.209 111.13 450.983C111.572 450.782 112.013 450.582 112.45 450.382C113.298 449.998 114.176 449.633 115.057 449.301C115.564 449.11 116.131 449.365 116.322 449.873C116.514 450.381 116.257 450.948 115.75 451.139C114.908 451.456 114.071 451.803 113.262 452.171C112.824 452.37 112.386 452.569 111.945 452.77C111.812 452.83 111.675 452.86 111.539 452.86V452.86ZM41.2196 454.549C40.7267 454.549 40.3018 454.178 40.2454 453.676C40.1847 453.137 40.5723 452.651 41.111 452.59C42.5016 452.435 44.0032 452.428 45.5134 452.572C46.0533 452.624 46.4487 453.104 46.3971 453.644C46.3455 454.184 45.8641 454.578 45.3265 454.528C43.9507 454.396 42.5863 454.401 41.3306 454.542C41.2933 454.546 41.2563 454.549 41.2196 454.549V454.549ZM164.171 456.31C164.016 456.31 163.857 456.274 163.71 456.195C162.497 455.546 161.246 454.925 159.995 454.348C159.502 454.122 159.287 453.539 159.514 453.046C159.74 452.552 160.323 452.338 160.816 452.565C162.103 453.157 163.387 453.795 164.635 454.463C165.114 454.718 165.294 455.313 165.038 455.791C164.861 456.122 164.522 456.31 164.171 456.31V456.31ZM103.888 456.371C103.515 456.371 103.16 456.159 102.995 455.798C102.769 455.305 102.985 454.723 103.477 454.497C104.358 454.093 105.233 453.689 106.102 453.29L107.301 452.738C107.793 452.512 108.376 452.728 108.604 453.22C108.829 453.714 108.613 454.296 108.121 454.523L106.922 455.073C106.053 455.474 105.176 455.877 104.296 456.281C104.164 456.341 104.024 456.371 103.888 456.371V456.371ZM53.3365 457.062C53.1286 457.062 52.9189 456.996 52.7408 456.86C52.0602 456.34 51.3361 455.943 50.5889 455.683C50.1607 455.533 49.7211 455.394 49.2824 455.271C48.7607 455.125 48.4569 454.582 48.6039 454.06C48.7508 453.539 49.293 453.234 49.8149 453.382C50.2916 453.516 50.7691 453.666 51.2345 453.828C52.179 454.157 53.0871 454.652 53.9339 455.3C54.3642 455.63 54.4464 456.246 54.117 456.677C53.9238 456.929 53.6318 457.062 53.3365 457.062V457.062ZM34.1429 458.392C34.0146 458.392 33.8842 458.367 33.7585 458.314C33.2599 458.1 33.0279 457.524 33.2405 457.024C33.8201 455.665 35.0357 454.528 36.7561 453.734C37.2488 453.506 37.8315 453.722 38.0584 454.215C38.2853 454.707 38.0703 455.291 37.5779 455.518C36.3071 456.103 35.4318 456.891 35.0464 457.795C34.8873 458.168 34.5244 458.392 34.1429 458.392V458.392ZM96.2216 459.848C95.8458 459.848 95.4882 459.632 95.3256 459.266C95.104 458.771 95.327 458.19 95.822 457.97C97.0195 457.435 98.2731 456.87 99.653 456.243C100.147 456.02 100.728 456.238 100.953 456.731C101.177 457.225 100.958 457.807 100.465 458.032C99.0808 458.66 97.823 459.227 96.6213 459.764C96.4908 459.822 96.3548 459.848 96.2216 459.848V459.848ZM171.338 460.714C171.143 460.714 170.946 460.656 170.774 460.536C169.651 459.747 168.486 458.981 167.308 458.259C166.847 457.976 166.702 457.371 166.986 456.908C167.269 456.447 167.873 456.301 168.336 456.585C169.546 457.329 170.746 458.117 171.902 458.928C172.346 459.239 172.453 459.851 172.142 460.296C171.951 460.568 171.647 460.714 171.338 460.714V460.714ZM88.4993 463.198C88.1151 463.198 87.7505 462.971 87.5935 462.595C87.3845 462.094 87.6187 461.519 88.1193 461.31C89.3477 460.795 90.6448 460.241 91.9783 459.663C92.4761 459.447 93.0539 459.674 93.2698 460.172C93.4858 460.67 93.2572 461.248 92.7608 461.464C91.4188 462.046 90.1133 462.603 88.8779 463.121C88.7531 463.173 88.6255 463.198 88.4993 463.198V463.198ZM57.9751 463.95C57.5724 463.95 57.1949 463.7 57.0513 463.299C56.577 461.978 55.9926 460.774 55.3139 459.725C55.0192 459.27 55.1498 458.661 55.6048 458.367C56.06 458.072 56.6676 458.203 56.9622 458.659C57.7225 459.834 58.3742 461.172 58.899 462.637C59.082 463.147 58.8167 463.709 58.3064 463.892C58.1969 463.932 58.0852 463.95 57.9751 463.95V463.95ZM37.0308 465.769C36.7826 465.769 36.5342 465.675 36.343 465.487C35.1064 464.271 34.1849 463.066 33.6047 461.902C33.3624 461.418 33.5593 460.827 34.0443 460.585C34.5295 460.343 35.1187 460.54 35.361 461.025C35.8442 461.993 36.6375 463.024 37.7189 464.086C38.1057 464.466 38.1111 465.089 37.731 465.475C37.5389 465.671 37.2851 465.769 37.0308 465.769V465.769ZM177.904 465.967C177.668 465.967 177.431 465.883 177.243 465.712C176.233 464.79 175.173 463.885 174.092 463.021C173.669 462.682 173.6 462.065 173.938 461.641C174.277 461.217 174.894 461.149 175.318 461.487C176.433 462.377 177.525 463.31 178.565 464.26C178.967 464.626 178.995 465.246 178.63 465.647C178.436 465.86 178.17 465.967 177.904 465.967ZM80.6793 466.312C80.2818 466.312 79.9076 466.069 79.7598 465.675C79.5697 465.167 79.8269 464.601 80.3346 464.41C81.5881 463.94 82.902 463.431 84.2392 462.898C84.7427 462.696 85.3148 462.941 85.5153 463.445C85.7158 463.95 85.4704 464.521 84.967 464.721C83.6166 465.26 82.2901 465.775 81.0236 466.249C80.9101 466.292 80.7937 466.312 80.6793 466.312V466.312ZM72.7216 469.053C72.3026 469.053 71.9146 468.782 71.7843 468.361C71.6238 467.842 71.9136 467.293 72.4316 467.133C73.7064 466.737 75.0415 466.299 76.3997 465.829C76.9118 465.653 77.4711 465.925 77.648 466.437C77.8251 466.95 77.5532 467.509 77.0407 467.687C75.6626 468.162 74.3071 468.607 73.0123 469.008C72.9154 469.039 72.8178 469.053 72.7216 469.053V469.053ZM43.8899 470.567C43.7586 470.567 43.6251 470.541 43.4972 470.485C42.3618 469.989 41.2853 469.388 40.2976 468.702C40.0892 468.556 39.8857 468.413 39.6876 468.269C39.2482 467.952 39.1495 467.337 39.4673 466.898C39.7849 466.459 40.3987 466.36 40.838 466.678C41.0263 466.814 41.2196 466.952 41.4177 467.089C42.3008 467.704 43.265 468.239 44.2835 468.685C44.7802 468.903 45.0069 469.481 44.7897 469.979C44.6287 470.348 44.2681 470.567 43.8899 470.567V470.567ZM64.5868 471.202C64.133 471.202 63.7253 470.885 63.6275 470.423C63.515 469.892 63.8538 469.371 64.3841 469.259C65.6781 468.984 67.0382 468.657 68.4267 468.289C68.9502 468.15 69.4882 468.461 69.6276 468.986C69.7669 469.509 69.4553 470.046 68.9313 470.186C67.5108 470.564 66.118 470.899 64.7912 471.18C64.7228 471.195 64.6542 471.202 64.5868 471.202ZM183.717 472.044C183.436 472.044 183.156 471.922 182.963 471.689C182.091 470.641 181.165 469.601 180.208 468.603C179.832 468.21 179.846 467.589 180.237 467.214C180.628 466.838 181.249 466.852 181.625 467.243C182.614 468.276 183.572 469.35 184.472 470.433C184.818 470.851 184.762 471.47 184.344 471.816C184.162 471.968 183.939 472.044 183.717 472.044V472.044ZM56.2626 472.375C55.7462 472.375 55.3136 471.971 55.2836 471.449C55.2523 470.907 55.666 470.443 56.2071 470.412C56.9094 470.372 57.6343 470.313 58.3758 470.234C58.3307 469.213 58.2238 468.196 58.0571 467.2C57.9675 466.666 58.3285 466.159 58.863 466.069C59.3973 465.98 59.9036 466.342 59.9932 466.876C60.1646 467.899 60.277 468.941 60.3296 469.989C60.8577 469.924 61.3422 470.293 61.4186 470.822C61.496 471.359 61.1239 471.857 60.5872 471.934C60.3772 471.965 60.1678 471.995 59.9594 472.021C59.7986 472.139 59.601 472.208 59.3872 472.209C59.2619 472.209 59.1303 472.185 59.0154 472.139C58.0918 472.244 57.1897 472.323 56.3199 472.373C56.3006 472.375 56.2816 472.375 56.2626 472.375ZM52.0599 472.387C52.041 472.387 52.0219 472.386 52.003 472.385C50.4894 472.298 49.0372 472.107 47.6865 471.818C47.1565 471.704 46.8191 471.181 46.9327 470.652C47.0464 470.122 47.5677 469.782 48.0984 469.897C49.3506 470.165 50.7021 470.344 52.1152 470.425C52.6566 470.456 53.0701 470.92 53.039 471.462C53.0091 471.983 52.5762 472.387 52.0599 472.387ZM188.593 478.892C188.259 478.892 187.934 478.722 187.75 478.416C187.049 477.251 186.286 476.088 185.484 474.963C185.17 474.521 185.274 473.908 185.714 473.594C186.156 473.279 186.769 473.382 187.084 473.824C187.914 474.989 188.705 476.194 189.433 477.404C189.712 477.868 189.562 478.471 189.098 478.752C188.939 478.847 188.764 478.892 188.593 478.892V478.892ZM58.0243 480.476C57.9144 480.476 57.8026 480.457 57.6934 480.418C57.1829 480.236 56.9174 479.673 57.1002 479.163C57.5407 477.934 57.8745 476.622 58.0929 475.264C58.1791 474.729 58.6818 474.365 59.2181 474.451C59.7533 474.536 60.1173 475.041 60.0312 475.576C59.7937 477.053 59.4294 478.482 58.9484 479.825C58.8047 480.226 58.4272 480.476 58.0243 480.476ZM53.5449 487.505C53.2839 487.505 53.0238 487.401 52.8306 487.196C52.4587 486.802 52.4769 486.181 52.8713 485.809C53.8109 484.922 54.6512 483.894 55.3688 482.754C55.6574 482.294 56.2635 482.156 56.7223 482.445C57.1811 482.734 57.3192 483.34 57.0304 483.799C56.2246 485.081 55.2785 486.237 54.2181 487.237C54.0285 487.416 53.7864 487.505 53.5449 487.505V487.505ZM46.2162 491.428C45.775 491.428 45.3739 491.129 45.2638 490.681C45.1343 490.155 45.4561 489.623 45.9825 489.494C47.3002 489.168 48.5439 488.698 49.6782 488.097C50.1573 487.843 50.7516 488.025 51.0053 488.505C51.2595 488.983 51.0771 489.578 50.5983 489.832C49.3213 490.509 47.926 491.037 46.4515 491.4C46.3727 491.42 46.2939 491.428 46.2162 491.428ZM41.0635 492.02C40.4532 492.02 39.8246 491.999 39.1947 491.957C38.7333 491.926 38.2716 491.902 37.8221 491.886C37.2803 491.866 36.8572 491.411 36.8767 490.869C36.8964 490.327 37.351 489.906 37.8934 489.923C38.3626 489.94 38.8448 489.965 39.3261 489.997C40.2457 490.059 41.1553 490.073 42.0211 490.038C42.5611 490.017 43.0196 490.436 43.0415 490.979C43.0637 491.521 42.6423 491.978 42.1006 492.001C41.7607 492.013 41.4117 492.02 41.0635 492.02V492.02ZM29.5008 492.531C29.0479 492.531 28.6408 492.215 28.5419 491.755C28.4284 491.225 28.766 490.702 29.2961 490.588C30.6473 490.299 32.0914 490.097 33.5879 489.99C34.1293 489.95 34.5985 490.358 34.6373 490.898C34.6762 491.439 34.2692 491.909 33.7285 491.949C32.3227 492.05 30.9697 492.238 29.7076 492.508C29.6382 492.524 29.569 492.531 29.5008 492.531ZM21.8053 495.752C21.4946 495.752 21.1889 495.604 20.9983 495.331C20.689 494.885 20.7992 494.273 21.2444 493.963C22.4216 493.145 23.7252 492.441 25.1187 491.869C25.6203 491.663 26.1936 491.902 26.3996 492.403C26.6054 492.905 26.3659 493.479 25.8643 493.685C24.6024 494.203 23.4249 494.84 22.3644 495.576C22.1938 495.695 21.9986 495.752 21.8053 495.752ZM16.2805 501.988C16.1245 501.988 15.9664 501.952 15.8193 501.873C15.3409 501.618 15.1601 501.023 15.4155 500.545C16.1203 499.223 16.9681 497.999 17.9349 496.905C18.2941 496.498 18.9144 496.46 19.3204 496.819C19.7266 497.178 19.7647 497.8 19.4056 498.205C18.5401 499.184 17.7803 500.282 17.1473 501.469C16.9706 501.8 16.6314 501.988 16.2805 501.988V501.988ZM13.9825 510.04C13.9654 510.04 13.948 510.04 13.9308 510.038C13.3892 510.01 12.9733 509.549 13.0013 509.007C13.0336 508.385 13.173 506.714 13.7677 504.637C13.9169 504.116 14.4603 503.813 14.9815 503.963C15.5027 504.113 15.8042 504.656 15.655 505.178C15.116 507.06 14.9907 508.554 14.962 509.11C14.9348 509.633 14.5012 510.04 13.9825 510.04" fill="#71B3B8"/>
<path d="M189.429 472.132L186.25 477.339L213.614 496.015L189.429 472.132Z" fill="#549FA5"/>
<path d="M183.428 483.59L185.086 489.563L212.397 495.154L183.428 483.59Z" fill="#549FA5"/>
<path d="M213.614 496.015L167.468 480.281L183.429 474.667L213.614 496.015Z" fill="#71B3B8"/>
<path d="M189.429 472.132L213.614 496.015L199.459 467.896L189.429 472.132Z" fill="#71B3B8"/>
<path d="M324.309 421.135C324.224 421.135 324.138 421.128 324.053 421.112C322.514 420.831 320.895 420.711 319.264 420.752C318.609 420.771 318.055 420.335 318.035 419.782C318.014 419.231 318.532 418.77 319.192 418.754C321.014 418.707 322.831 418.842 324.561 419.157C325.205 419.275 325.613 419.808 325.473 420.347C325.352 420.815 324.858 421.135 324.309 421.135V421.135ZM309.331 422.708C308.87 422.708 308.43 422.481 308.236 422.102C307.975 421.595 308.254 421.007 308.859 420.79C310.537 420.184 312.229 419.705 313.891 419.368C314.532 419.237 315.176 419.567 315.331 420.104C315.488 420.641 315.094 421.181 314.453 421.311C312.921 421.622 311.356 422.065 309.804 422.625C309.649 422.681 309.49 422.708 309.331 422.708V422.708ZM333.411 424.878C333.179 424.878 332.945 424.821 332.739 424.704C332.211 424.401 331.682 424.092 331.168 423.784C330.329 423.284 329.455 422.84 328.57 422.462C327.982 422.212 327.747 421.61 328.045 421.118C328.343 420.625 329.061 420.428 329.649 420.678C330.641 421.101 331.618 421.597 332.552 422.155C333.054 422.455 333.571 422.758 334.086 423.052C334.629 423.365 334.769 423.987 334.398 424.442C334.166 424.725 333.793 424.878 333.411 424.878V424.878ZM300.608 427.135C300.257 427.135 299.909 427.005 299.672 426.757C299.263 426.325 299.348 425.695 299.863 425.352C301.245 424.429 302.696 423.579 304.174 422.827C304.738 422.538 305.471 422.688 305.813 423.16C306.156 423.632 305.979 424.247 305.415 424.534C304.022 425.245 302.655 426.047 301.349 426.917C301.13 427.064 300.867 427.135 300.608 427.135ZM342.134 429.352C341.942 429.352 341.747 429.314 341.565 429.231C340.074 428.552 338.567 427.821 337.084 427.061C336.521 426.772 336.346 426.157 336.69 425.685C337.033 425.215 337.767 425.067 338.33 425.355C339.777 426.098 341.25 426.811 342.705 427.474C343.285 427.738 343.498 428.345 343.184 428.829C342.968 429.164 342.557 429.352 342.134 429.352ZM351.393 432.991C351.248 432.991 351.102 432.969 350.958 432.922C349.407 432.415 347.802 431.835 346.188 431.198C345.593 430.962 345.337 430.366 345.617 429.867C345.898 429.368 346.609 429.154 347.205 429.388C348.77 430.006 350.324 430.568 351.826 431.059C352.44 431.259 352.743 431.839 352.504 432.354C352.32 432.749 351.87 432.991 351.393 432.991V432.991ZM293.516 433.279C293.275 433.279 293.033 433.219 292.824 433.094C292.287 432.774 292.162 432.149 292.544 431.699C293.512 430.562 294.659 429.421 295.956 428.307C296.417 427.911 297.172 427.904 297.644 428.289C298.116 428.675 298.125 429.308 297.664 429.704C296.452 430.744 295.384 431.806 294.487 432.861C294.255 433.134 293.887 433.279 293.516 433.279ZM376.007 433.502C375.626 433.502 375.251 433.348 375.019 433.064C374.649 432.606 374.79 431.985 375.336 431.675C376.463 431.032 377.47 430.228 378.332 429.282C378.733 428.844 379.481 428.761 380.004 429.095C380.529 429.431 380.628 430.058 380.229 430.498C379.21 431.614 378.015 432.566 376.677 433.329C376.471 433.446 376.238 433.502 376.007 433.502V433.502ZM361.209 435.356C361.143 435.356 361.074 435.352 361.008 435.342C359.379 435.111 357.659 434.774 355.895 434.341C355.262 434.185 354.899 433.629 355.085 433.099C355.271 432.569 355.934 432.266 356.564 432.421C358.242 432.832 359.869 433.152 361.407 433.371C362.056 433.464 362.493 433.979 362.384 434.524C362.285 435.012 361.78 435.356 361.209 435.356V435.356ZM366.294 435.738C365.636 435.738 365.102 435.289 365.101 434.738C365.101 434.185 365.634 433.738 366.294 433.738C368.01 433.736 369.614 433.576 371.061 433.265C371.699 433.126 372.35 433.449 372.513 433.984C372.679 434.519 372.293 435.064 371.656 435.202C370.015 435.555 368.211 435.736 366.295 435.738C366.295 435.738 366.295 435.738 366.294 435.738" fill="#71B3B8"/>
<path d="M292.366 428.861L293.783 433.329L269.954 442.237L292.366 428.861Z" fill="#549FA5"/>
<path d="M294.742 438.508L292.411 442.658L271.018 441.819L294.742 438.508Z" fill="#549FA5"/>
<path d="M269.954 442.237L307.25 438.967L296.377 431.852L269.954 442.237Z" fill="#71B3B8"/>
<path d="M292.366 428.861L269.954 442.237L285.663 423.864L292.366 428.861Z" fill="#71B3B8"/>
<path d="M265.388 497.605C263.816 497.605 262.76 496.419 262.76 494.976C262.76 493.739 263.816 492.553 265.388 492.553C266.753 492.553 267.808 493.739 267.808 494.976C267.808 496.393 266.804 497.605 265.388 497.605ZM261.859 480.417C263.018 479.54 264.409 479.102 266.032 479.102C269.535 479.102 271.39 481.009 271.39 483.689C271.39 485.235 270.642 486.808 269.122 488.379C267.19 490.414 265.799 491.42 264.924 491.42C264.074 491.42 263.456 490.749 263.456 489.951C263.456 489.23 264.126 488.508 265.284 487.451C265.362 487.374 265.439 487.297 265.491 487.271C266.804 486.06 267.217 485.389 267.217 484.566C267.217 483.535 266.521 482.968 265.516 482.968C265.053 482.968 264.512 483.071 263.868 483.277C263.224 483.483 262.76 483.587 262.477 483.587C261.756 483.587 260.932 482.968 260.932 481.937C260.932 481.396 261.24 480.881 261.859 480.417" fill="#71B3B8"/>
<path d="M113.782 425.212C112.54 425.212 111.704 424.273 111.704 423.133C111.704 422.154 112.54 421.217 113.782 421.217C114.862 421.217 115.698 422.154 115.698 423.133C115.698 424.253 114.904 425.212 113.782 425.212ZM110.992 411.616C111.907 410.923 113.008 410.577 114.291 410.577C117.063 410.577 118.53 412.085 118.53 414.204C118.53 415.427 117.94 416.67 116.737 417.914C115.208 419.525 114.109 420.319 113.416 420.319C112.743 420.319 112.254 419.79 112.254 419.157C112.254 418.586 112.784 418.015 113.701 417.181C113.763 417.119 113.823 417.057 113.863 417.038C114.904 416.08 115.229 415.549 115.229 414.897C115.229 414.082 114.68 413.633 113.884 413.633C113.517 413.633 113.089 413.715 112.58 413.879C112.071 414.041 111.704 414.123 111.48 414.123C110.909 414.123 110.257 413.633 110.257 412.818C110.257 412.39 110.502 411.982 110.992 411.616" fill="#71B3B8"/>
<path d="M68.0912 422.11L59.8407 437.379C59.5262 437.961 58.8011 438.177 58.2202 437.863L31.6917 423.52C31.1108 423.206 30.8944 422.48 31.2091 421.898L39.4596 406.628C39.7741 406.047 40.4992 405.83 41.08 406.144L67.6085 420.488C68.1894 420.803 68.4057 421.528 68.0912 422.11Z" fill="#549FA5"/>
<path d="M68.0911 422.11L67.635 422.954L50.8557 425.102C49.2076 425.346 47.5922 424.491 46.8677 422.99L39.1991 407.11L39.4595 406.628C39.7737 406.047 40.4996 405.831 41.0809 406.145L67.6075 420.488C68.1887 420.803 68.4054 421.528 68.0911 422.11" fill="#71B3B8"/>
<path d="M226.948 439.487C223.897 439.487 221.415 441.97 221.415 445.023C221.415 448.075 223.897 450.558 226.948 450.558C229.999 450.558 232.481 448.075 232.481 445.023C232.481 441.97 229.999 439.487 226.948 439.487ZM226.948 452.662C222.737 452.662 219.311 449.235 219.311 445.023C219.311 440.81 222.737 437.383 226.948 437.383C231.159 437.383 234.585 440.81 234.585 445.023C234.585 449.235 231.159 452.662 226.948 452.662Z" fill="#71B3B8"/>
<path d="M387.635 493.595C384.585 493.595 382.102 496.08 382.102 499.131C382.102 502.183 384.585 504.666 387.635 504.666C390.688 504.666 393.17 502.183 393.17 499.131C393.17 496.08 390.688 493.595 387.635 493.595ZM387.635 506.77C383.425 506.77 379.998 503.343 379.998 499.131C379.998 494.918 383.425 491.491 387.635 491.491C391.847 491.491 395.273 494.918 395.273 499.131C395.273 503.343 391.847 506.77 387.635 506.77Z" fill="#549FA5"/>
<path d="M244.068 432.865C244.068 435.273 242.118 437.227 239.708 437.227C237.301 437.227 235.349 435.273 235.349 432.865C235.349 430.456 237.301 428.504 239.708 428.504C242.118 428.504 244.068 430.456 244.068 432.865Z" fill="#71B3B8"/>
<path d="M392.342 481.955C392.342 484.364 390.39 486.317 387.981 486.317C385.574 486.317 383.622 484.364 383.622 481.955C383.622 479.547 385.574 477.593 387.981 477.593C390.39 477.593 392.342 479.547 392.342 481.955Z" fill="#549FA5"/>
<path d="M296.65 47.4442C296.796 43.4087 293.813 39.9404 289.8 39.4823C285.469 38.9878 281.585 42.1663 281.218 46.5099C280.956 49.6196 281.255 54.974 281.631 60.6629L297.438 58.7596L296.65 47.4442" fill="#13375B"/>
<path d="M297.438 58.7595L281.631 60.6629C282.129 68.1936 282.762 72.5098 282.41 76.8049C282.014 81.6483 285.833 85.7987 290.693 85.8074C295.18 85.8146 298.865 82.2664 299.027 77.7835L297.438 58.7595" fill="#FFB27E"/>
<path d="M256.494 55.7772L292.809 73.9451C296.835 76.1806 297.969 80.6073 295.874 83.9641C293.755 87.3594 289.21 88.2601 285.955 85.9309L253.127 62.2856L256.494 55.7772" fill="#FFB27E"/>
<path d="M250.819 64.4336C254.546 65.6934 258.589 63.6929 259.849 59.965C261.108 56.2376 259.108 52.1945 255.38 50.9352C251.653 49.6754 247.61 51.6758 246.35 55.4037C245.09 59.1311 247.091 63.1738 250.819 64.4336Z" fill="#FFB27E"/>
<path d="M251.48 51.1495C251.48 51.1495 251.12 48.3622 254.743 49.2841C258.367 50.2055 261.607 53.0149 259.849 59.965L251.48 51.1495Z" fill="#FFB27E"/>
<path d="M257.029 37.6578L249.354 35.8664C248.926 35.7669 248.524 36.063 248.456 36.5273L245.507 56.4669C245.438 56.9312 245.729 57.3887 246.156 57.4882L253.832 59.2791C254.259 59.3791 254.661 59.083 254.729 58.6187L257.678 38.6796C257.747 38.2148 257.456 37.7577 257.029 37.6578Z" fill="#3B3261"/>
<path d="M257.771 37.8169L250.096 36.0255C249.668 35.926 249.266 36.2216 249.198 36.6864L246.249 56.6255C246.18 57.0903 246.471 57.5474 246.898 57.6469L254.574 59.4387C255.001 59.5382 255.403 59.2421 255.471 58.7778L258.42 38.8382C258.489 38.3735 258.198 37.9164 257.771 37.8169" fill="#2D2445"/>
<path d="M257.349 39.7548L250.604 38.1807L248.201 54.4318L254.946 56.0054L257.349 39.7548Z" fill="#E0DEDC"/>
<path d="M250.604 38.1807L254.946 56.0054L257.349 39.7548L250.604 38.1807Z" fill="white"/>
<path d="M256.763 50.0469C256.763 50.0469 255.282 49.3399 253.624 49.1351C252.894 49.0448 252.19 49.4432 251.908 50.1224C251.649 50.7414 251.799 51.4557 252.283 51.9195L255.02 54.5409C255.02 54.5409 254.581 58.4246 256.413 60.2568L258.062 54.0887L256.763 50.0469" fill="#FFB27E"/>
<path d="M302.252 72.3988L285.51 76.0796C285.51 76.0796 281.047 85.9982 273.626 130.272C273.512 130.955 273.399 131.632 273.288 132.303C281.287 132.414 289.288 132.637 297.287 132.907L307.941 80.7058L302.252 72.3988" fill="#0A213D"/>
<path d="M321.853 107.86C321.288 86.437 310.432 74.8573 310.432 74.8573L289.823 75.4999L295.315 132.84C304.197 133.131 313.08 133.483 321.963 133.807C322.037 123.654 322.025 114.366 321.853 107.86Z" fill="#0A213D"/>
<path d="M286.111 94.2653L292.436 99.4966L295.315 132.84" stroke="#071521" stroke-width="1.51951" stroke-miterlimit="10" stroke-linecap="round" stroke-linejoin="round"/>
<path d="M291.265 37.9082L285.421 40.3749C284.483 40.7767 283.892 41.7192 283.94 42.7397L285.51 76.0796L312.126 75.7552L313.697 41.2919C313.744 39.454 312.276 37.2526 310.442 37.1108L299.615 36.9152L291.265 37.9082" fill="#13375B"/>
<path d="M284.751 50.0469C284.751 50.0469 282.023 53.5114 284.766 60.2856" stroke="#232338" stroke-width="1.51951" stroke-miterlimit="10" stroke-linecap="round" stroke-linejoin="round"/>
<path d="M324.086 52.4732L310.099 60.0775C313.342 66.8921 316.928 74.2037 318.186 78.3247C319.605 82.973 324.688 85.42 329.207 83.6334C333.379 81.9848 335.494 77.3264 333.99 73.1001L324.086 52.4732" fill="#FFB27E"/>
<path d="M319.177 42.2475C317.823 38.4431 313.769 36.3211 309.871 37.3766C305.664 38.5157 305.772 48.3007 307.035 52.4732C307.938 55.4604 307.649 54.9293 310.099 60.0775L324.087 52.4732L319.177 42.2475Z" fill="#13375B"/>
<path d="M309.962 60.0775L306.898 52.4732" stroke="#232338" stroke-width="1.51951" stroke-miterlimit="10" stroke-linecap="round" stroke-linejoin="round"/>
<path d="M289.758 69.4712L327.003 70.2792C330.955 70.4849 333.934 73.9503 333.543 77.8883C333.149 81.8709 329.473 84.6928 325.523 84.0468L290.116 77.9334L289.758 69.4712Z" fill="#FFB27E"/>
<path d="M290.376 80.2011C294.276 79.6787 297.013 76.0935 296.49 72.1936C295.968 68.2936 292.383 65.5559 288.483 66.0788C284.583 66.6017 281.845 70.1869 282.368 74.0864C282.891 77.9863 286.476 80.7241 290.376 80.2011" fill="#FFB27E"/>
<path d="M285.082 68C285.082 68 283.523 65.6607 287.18 64.8815C290.836 64.1019 294.986 65.1843 296.49 72.1936L285.082 68Z" fill="#FFB27E"/>
<path d="M296.331 27.8565C297.407 32.4096 301.971 35.2281 306.524 34.152C311.077 33.0753 313.896 28.5116 312.819 23.9585C311.743 19.4053 307.179 16.5868 302.626 17.6634C298.073 18.7396 295.254 23.3033 296.331 27.8565" fill="#232338"/>
<path d="M278.285 4.97725C278.285 4.97725 291.97 -3.08124 301.346 5.30939C307.057 10.4201 304.889 18.7775 297.229 23.9589C289.932 28.8942 287.234 5.84867 287.234 5.84867L278.285 4.97725" fill="#232338"/>
<path d="M285.785 2.88796C285.785 2.88796 272.471 3.60508 273.404 13.6765C274.023 20.3666 284.444 20.1475 284.444 20.1475L285.785 2.88796" fill="#232338"/>
<path d="M283.41 21.1375C283.984 22.9818 282.953 24.9423 281.109 25.5162C279.265 26.0901 277.304 25.0601 276.731 23.2154C276.156 21.3711 277.187 19.4106 279.031 18.8367C280.876 18.2628 282.836 19.2928 283.41 21.1375Z" fill="#FFB27E"/>
<path d="M287.863 31.1345L290.405 39.4818C291.292 42.4147 292.861 43.6183 295.741 42.7228C298.199 41.9576 300.827 39.7885 300.372 37.2541L295.739 24.3112L287.863 31.1345" fill="#FFB27E"/>
<path d="M291.456 37.6458L288.494 38.932C288.494 38.932 283.889 46.6291 292.682 46.9141C303.29 47.2582 304.156 41.131 305.849 37.0282L300.428 36.5096L291.456 37.6458" fill="#FFB27E"/>
<path d="M289.206 35.5516C289.206 35.5516 296.569 34.4716 296.569 24.6405L287.585 30.2842L289.206 35.5516Z" fill="#232338"/>
<path d="M290.765 31.8944C285.762 33.0931 280.696 30.128 279.579 26.0747L277.004 16.4969C275.605 11.417 278.488 6.14382 283.519 4.57836C288.669 2.97636 295.046 5.57185 296.648 10.722L298.636 18.4479C300.173 24.4232 296.657 30.0617 290.765 31.8944" fill="#FFB27E"/>
<path d="M290.092 9.36219C290.128 15.4943 295.951 18.7636 295.951 18.7636L300.096 10.3629C300.096 10.3629 290.063 4.32454 290.092 9.36219" fill="#232338"/>
<path d="M291.79 10.448C291.79 10.448 279.611 9.33823 275.72 15.1685C275.72 15.1685 275.385 3.25182 288.452 2.55537C301.519 1.8594 297.727 11.0883 297.727 11.0883L291.79 10.448Z" fill="#232338"/>
<path d="M284.095 22.0378L284.305 23.9017L285.553 23.6547" stroke="#232338" stroke-width="1.46843" stroke-miterlimit="10" stroke-linecap="round" stroke-linejoin="round"/>
<path d="M281.955 20.9626C282.086 21.4476 281.8 21.947 281.315 22.0787C280.83 22.2099 280.33 21.9234 280.199 21.4384C280.067 20.9539 280.354 20.4541 280.839 20.3224C281.323 20.1912 281.823 20.4771 281.955 20.9626Z" fill="#232338"/>
<path d="M289.33 18.9621C289.461 19.4466 289.175 19.9465 288.69 20.0782C288.205 20.2094 287.706 19.9229 287.574 19.4384C287.443 18.9534 287.729 18.4536 288.214 18.3219C288.699 18.1907 289.198 18.4771 289.33 18.9621Z" fill="#232338"/>
<path d="M284.853 16.7074L290.231 16.1595C290.231 16.1595 289.386 14.7146 287.194 14.9593C285.003 15.2039 284.853 16.7074 284.853 16.7074Z" fill="#232338"/>
<path d="M282.137 17.5418L278.35 18.7636C278.35 18.7636 278.454 17.3015 280.002 16.8208C281.551 16.3407 282.137 17.5418 282.137 17.5418Z" fill="#232338"/>
<path d="M284.038 25.9113L289.524 24.6405C289.524 24.6405 289.091 27.2504 286.191 27.3004C284.179 27.335 284.038 25.9113 284.038 25.9113Z" fill="white"/>
<path d="M301.215 17.4962C301.339 19.2804 299.994 20.8271 298.21 20.9511C296.425 21.0756 294.879 19.7298 294.755 17.9456C294.63 16.1615 295.976 14.6147 297.76 14.4907C299.544 14.3667 301.091 15.7121 301.215 17.4962Z" fill="#FFB27E"/>
<path d="M296.922 18.7598C296.922 18.7598 296.76 16.4181 299.024 16.631" stroke="#232338" stroke-width="1.30803" stroke-miterlimit="10" stroke-linecap="round" stroke-linejoin="round"/>
<path d="M117.472 107.188V131.637L139.552 132.204V114.688L144.318 113.857L147.522 131.637L167.497 132.907L159.719 96.2037L117.472 107.188" fill="#0A213D"/>
<path d="M99.4032 66.9367L91.4346 120.617L100.053 121.549L114.313 66.4782L99.4032 66.9367Z" fill="#FFB27E"/>
<path d="M91.4346 120.617C91.4346 120.617 77.168 123.903 77.7374 127.706H95.1331C95.1331 127.706 101.72 127.203 100.053 121.549L91.4346 120.617Z" fill="#FFB27E"/>
<path d="M120.593 43.401C120.593 43.401 102.877 41.9456 93.0466 68.3974L114.905 76.2536L120.593 43.401" fill="#13375B"/>
<path d="M183.212 24.5122L175.442 50.4848L184.511 60.7451C184.511 60.7451 190.155 37.8405 190.333 24.5848L183.212 24.5122" fill="#FFB27E"/>
<path d="M182.909 25.2538C182.909 25.2538 189.867 26.1752 190.843 24.4367C192.548 21.3976 191.647 13.1478 191.647 13.1478C191.647 13.1478 179.438 13.4174 179.6 13.5337C179.763 13.65 182.909 25.2538 182.909 25.2538" fill="#FFB27E"/>
<path d="M182.909 25.2538C182.78 24.6429 178.099 19.3721 176.415 17.3674C176.008 16.8833 176.147 16.1186 176.704 15.7596C177.068 15.526 177.711 15.3237 178.232 15.7692L182.721 19.2438L182.909 25.2538Z" fill="#FFB27E"/>
<path d="M180.425 18.5199L178.594 8.70179C178.46 8.05388 178.899 7.393 179.552 7.2637C180.115 7.15171 180.649 7.47999 180.799 8.03033L182.725 15.1141L180.425 18.5199" fill="#FFB27E"/>
<path d="M182.707 13.7083L182.575 6.2246C182.552 5.57429 183.065 5.00232 183.705 4.96435C184.261 4.93118 184.733 5.31378 184.821 5.867L185.998 14.1019L182.707 13.7083" fill="#FFB27E"/>
<path d="M186.141 14.5484L186.713 6.91284C186.763 6.20581 187.368 5.64297 188.059 5.66172C188.708 5.6795 189.205 6.20726 189.197 6.87103L189.118 13.8942L186.141 14.5484" fill="#FFB27E"/>
<path d="M191.648 13.1478L192.538 8.25293C192.557 7.71172 192.161 7.27241 191.633 7.24838C191.128 7.22482 190.663 7.59011 190.547 8.10104L189.117 13.8943L191.648 13.1478" fill="#FFB27E"/>
<path d="M180.646 17.638C180.646 17.638 184.187 15.762 186.549 20.5358" stroke="#28262C" stroke-width="1.57747" stroke-miterlimit="10" stroke-linecap="round" stroke-linejoin="round"/>
<path d="M185.074 54.0122C185.074 54.0122 186.101 64.1058 180.411 64.9993C174.72 65.8923 162.13 58.0376 162.13 58.0376L156.305 38.3196L178.156 50.4242L185.074 54.0122" fill="#FFB27E"/>
<path d="M141.082 39.7505C141.082 39.7505 153.181 31.7242 171.993 44.3085L160.955 61.7699L149.968 60.7538L141.082 39.7505Z" fill="#13375B"/>
<path d="M112.516 72.7017L115.272 107.917L163.982 100.978L156.445 49.7071L141.082 39.7505L120.593 43.401L112.516 72.7017Z" fill="#13375B"/>
<path d="M112.733 75.4725L111.438 63.6222" stroke="#232338" stroke-width="1.51951" stroke-miterlimit="10" stroke-linecap="round" stroke-linejoin="round"/>
<path d="M158.181 61.5132L156.305 51.2831" stroke="#232338" stroke-width="1.51951" stroke-miterlimit="10" stroke-linecap="round" stroke-linejoin="round"/>
<path d="M124.358 40.7296L122.102 26.9851L134.773 24.9053L137.028 38.6499L141.082 39.7505C141.082 39.7505 141.133 45.5923 131.798 47.2539C122.463 48.9155 120.593 43.401 120.593 43.401L124.358 40.7296" fill="#FFB27E"/>
<path d="M135.486 29.2498C135.486 29.2498 135.274 34.6489 130.651 36.0241C125.331 37.6063 122.837 31.4623 122.837 31.4623C122.837 31.4623 125.713 33.965 129.511 33.3464C133.746 32.6567 135.486 29.2498 135.486 29.2498Z" fill="#232338"/>
<path d="M120.311 4.7687C120.311 4.7687 122.566 -0.816879 130.15 0.102114C135.502 0.750504 137.291 5.11524 138.235 7.10174C138.597 7.8626 138.757 8.70133 138.698 9.5415L137.658 18.9016L128.777 6.97774L121.462 8.29567L120.311 4.7687" fill="#232338"/>
<path d="M137.658 18.9016C137.658 18.9016 138.467 17.277 140.524 17.8321C142.581 18.3868 142.164 23.2908 139.251 24.2002C139.251 24.2002 138.208 24.5386 137.3 23.8916C137.3 23.8916 137.677 20.2627 137.658 18.9016" fill="#FFB27E"/>
<path d="M140.3 19.5697C140.3 19.5697 138.584 19.1808 137.649 21.7432" stroke="#1A181B" stroke-width="0.930455" stroke-miterlimit="10" stroke-linecap="round" stroke-linejoin="round"/>
<path d="M117.364 20.9203C117.364 20.9203 116.251 19.487 114.343 20.4363C112.435 21.3851 113.811 26.1108 116.846 26.4285C116.846 26.4285 117.935 26.5549 118.698 25.7422C118.698 25.7422 117.613 22.2584 117.364 20.9203" fill="#FFB27E"/>
<path d="M114.906 22.0955C114.906 22.0955 116.511 21.3764 117.933 23.7042" stroke="#1A181B" stroke-width="0.930455" stroke-miterlimit="10" stroke-linecap="round" stroke-linejoin="round"/>
<path d="M137.402 14.3133C137.692 17.2155 138.01 23.3163 136.585 27.0975C135.246 30.6486 133.132 32.3885 129.511 32.8581C125.889 33.3277 122.567 32.5538 119.961 28.3775C117.356 24.2017 116.687 16.4282 116.687 16.4282C116.687 16.4282 115.656 6.05923 125.903 5.04026C136.697 3.9665 137.402 14.3133 137.402 14.3133Z" fill="#FFB27E"/>
<path d="M117.364 20.9203L114.618 11.9957C114.44 11.2636 114.468 10.4975 114.713 9.78567C115.327 8.0068 117.211 4.01601 120.311 4.7687L121.462 8.29567C121.462 8.29567 117.735 9.44201 116.704 14.57L117.364 20.9203Z" fill="#232338"/>
<path d="M119.119 7.8131C119.119 7.8131 125.97 14.6089 138.075 12.6638C138.075 12.6638 136.046 3.99245 130.355 3.93092C124.664 3.8694 120.207 6.82249 120.207 6.82249L119.119 7.8131Z" fill="#232338"/>
<path d="M121.462 8.2957C121.462 8.2957 120.254 12.4725 116.629 15.849C116.629 15.849 114.987 7.66941 121.462 8.2957Z" fill="#232338"/>
<path d="M130.923 18.717C131.001 19.2169 131.47 19.5586 131.971 19.4803C132.471 19.4019 132.812 18.9328 132.734 18.4325C132.655 17.9326 132.186 17.5909 131.686 17.6697C131.186 17.748 130.844 18.2171 130.923 18.717" fill="#232338"/>
<path d="M122.434 20.0508C122.513 20.5507 122.982 20.8924 123.481 20.814C123.981 20.7352 124.323 20.2666 124.245 19.7662C124.166 19.2664 123.697 18.9246 123.197 19.0035C122.697 19.0818 122.355 19.5509 122.434 20.0508" fill="#232338"/>
<path d="M124.452 15.5371L118.612 18.0663C118.612 18.0663 118.62 16.3153 121.013 15.3035C123.406 14.2917 124.452 15.5371 124.452 15.5371Z" fill="#232338"/>
<path d="M128.732 14.943L135.066 15.5592C135.066 15.5592 134.521 13.8952 131.934 13.6659C129.346 13.4367 128.732 14.943 128.732 14.943" fill="#232338"/>
<path d="M127.143 21.5365L127.406 22.8246C127.473 23.1495 127.812 23.3341 128.106 23.2067L128.762 22.9231" stroke="#232338" stroke-width="1.36761" stroke-miterlimit="10" stroke-linecap="round" stroke-linejoin="round"/>
<path d="M125.235 25.7767L131.828 24.2886C131.828 24.2886 132.371 26.851 129.126 27.4777C125.881 28.105 125.235 25.7767 125.235 25.7767Z" fill="white"/>
<path d="M352.285 134.328H64V127.129H352.285V134.328Z" fill="#61A3C5"/>
<path d="M190.872 113.446H176.482C172.704 113.446 169.641 116.509 169.641 120.287C169.641 124.065 172.704 127.129 176.482 127.129H193.411L190.872 113.446Z" fill="#FFB27E"/>
<path d="M171.224 115.912L180.154 101.287L193.411 103.077L191.444 120.287L171.224 115.912Z" fill="#FFB27E"/>
<path d="M187.313 113.446H176.482" stroke="#232338" stroke-width="1.51951" stroke-miterlimit="10" stroke-linecap="round" stroke-linejoin="round"/>
<path d="M235.915 113.446H250.305C254.084 113.446 257.147 116.509 257.147 120.287C257.147 124.065 254.084 127.129 250.305 127.129H233.377L235.915 113.446" fill="#FFB27E"/>
<path d="M255.412 115.735L244.165 98.4075L233.377 103.077L235.344 120.287L255.412 115.735Z" fill="#FFB27E"/>
<path d="M236.731 113.446H250.305" stroke="#232338" stroke-width="1.51951" stroke-miterlimit="10" stroke-linecap="round" stroke-linejoin="round"/>
<path d="M212.186 75.6312C212.186 75.6312 197.86 75.6312 187.313 86.0025V115.069C187.313 115.069 237.784 115.837 237.784 115.069C237.784 114.301 237.797 84.0819 237.797 84.0819C237.797 84.0819 227.472 75.6312 212.186 75.6312" fill="#13375B"/>
<path d="M189.447 84.0819C189.447 84.0819 181.66 90.3682 173.451 104.21C173.451 104.21 175.222 112.22 190.512 113.446L189.447 84.0819" fill="#13375B"/>
<path d="M237.797 84.0819C237.797 84.0819 245.584 90.3682 253.793 104.21C253.793 104.21 252.022 112.22 236.731 113.446L237.797 84.0819" fill="#13375B"/>
<path d="M235.493 127.129H189.603C188.338 127.129 187.313 126.103 187.313 124.839V95.8673C187.313 94.6027 188.338 93.577 189.603 93.577H235.493C236.759 93.577 237.784 94.6027 237.784 95.8673V124.839C237.784 126.103 236.759 127.129 235.493 127.129Z" fill="#AAD1E2"/>
<path d="M215.641 110.353C215.641 112.061 214.257 113.446 212.549 113.446C210.84 113.446 209.455 112.061 209.455 110.353C209.455 108.645 210.84 107.26 212.549 107.26C214.257 107.26 215.641 108.645 215.641 110.353Z" fill="#D3E5F4"/>
<path d="M217.378 80.5996H207.478V69.5092H217.378V80.5996" fill="#FFB27E"/>
<path d="M206.994 68.9098C206.994 68.9098 207.867 74.4195 212.018 74.5194C217.468 74.6507 217.378 69.1545 217.378 69.1545C217.378 69.1545 216.634 70.7714 212.421 70.7771C207.722 70.7839 206.994 68.9098 206.994 68.9098" fill="#232338"/>
<path d="M226.217 50.901C226.217 58.7009 220.053 65.0243 212.448 65.0243C204.845 65.0243 198.68 58.7009 198.68 50.901C198.68 43.1011 204.845 36.7782 212.448 36.7782C220.053 36.7782 226.217 43.1011 226.217 50.901Z" fill="#232338"/>
<path d="M224.349 56.054C224.349 56.054 225.34 54.477 227.385 55.2528C229.43 56.0285 228.505 60.9941 225.438 61.6266C225.438 61.6266 224.338 61.8665 223.476 61.1138C223.476 61.1138 224.23 57.446 224.349 56.054Z" fill="#FFB27E"/>
<path d="M226.979 57.0047C226.979 57.0047 225.266 56.4333 224.051 58.9552" stroke="#1A181B" stroke-width="1.0338" stroke-miterlimit="10" stroke-linecap="round" stroke-linejoin="round"/>
<path d="M200.869 56.054C200.869 56.054 199.878 54.477 197.833 55.2528C195.788 56.0285 196.713 60.9941 199.781 61.6266C199.781 61.6266 200.88 61.8665 201.742 61.1138C201.742 61.1138 200.988 57.446 200.869 56.054Z" fill="#FFB27E"/>
<path d="M198.239 57.0047C198.239 57.0047 199.951 56.4333 201.167 58.9552" stroke="#1A181B" stroke-width="1.0338" stroke-miterlimit="10" stroke-linecap="round" stroke-linejoin="round"/>
<path d="M224.542 51.7748C224.543 54.9572 224.214 61.6151 222.151 65.5664C220.214 69.2765 217.011 71.2736 212.811 71.3923C208.612 71.5111 205.483 69.9759 202.976 65.1608C200.469 60.3452 200.589 51.8339 200.589 51.8339C200.589 51.8339 200.589 40.4657 212.435 40.4657C224.913 40.4657 224.542 51.7748 224.542 51.7748" fill="#FFB27E"/>
<path d="M200.869 56.054C200.869 56.054 203.398 50.5059 201.167 46.5117C201.167 46.5117 199.147 52.937 200.869 56.054Z" fill="#232338"/>
<path d="M224.312 56.054C224.312 56.054 221.783 50.5059 224.014 46.5117C224.014 46.5117 226.034 52.937 224.312 56.054Z" fill="#232338"/>
<path d="M218.586 41.104C218.586 41.104 217.42 47.8292 224.375 50.8861C224.375 50.8861 224.089 43.0146 218.586 41.104Z" fill="#232338"/>
<path d="M220.152 41.9446C220.152 41.9446 219.111 48.6549 209.988 47.1592C202.887 45.995 200.72 51.423 200.72 51.423C200.72 51.423 199.46 41.3332 210.924 39.2698C210.924 39.2698 216.789 39.2386 220.152 41.9446Z" fill="#232338"/>
<path d="M208.355 57.2503C208.355 57.8483 207.87 58.3332 207.272 58.3332C206.674 58.3332 206.19 57.8483 206.19 57.2503C206.19 56.6524 206.674 56.1674 207.272 56.1674C207.87 56.1674 208.355 56.6524 208.355 57.2503Z" fill="#232338"/>
<path d="M218.382 57.2503C218.382 57.8483 217.897 58.3332 217.299 58.3332C216.701 58.3332 216.216 57.8483 216.216 57.2503C216.216 56.6524 216.701 56.1674 217.299 56.1674C217.897 56.1674 218.382 56.6524 218.382 57.2503Z" fill="#232338"/>
<path d="M211.742 59.6094L211.744 61.0705C211.744 61.4392 212.072 61.7156 212.421 61.6425L213.198 61.4791" stroke="#232338" stroke-width="1.51951" stroke-miterlimit="10" stroke-linecap="round" stroke-linejoin="round"/>
<path d="M210.49 53.8945L203.927 54.6837C203.927 54.6837 204.454 52.9428 207.136 52.6438C209.817 52.3449 210.49 53.8945 210.49 53.8945Z" fill="#232338"/>
<path d="M214.274 53.8945L220.838 54.6837C220.838 54.6837 220.311 52.9428 217.629 52.6438C214.947 52.3449 214.274 53.8945 214.274 53.8945" fill="#232338"/>
<path d="M210.685 57.2176C210.685 59.691 208.68 61.6958 206.207 61.6958C203.734 61.6958 201.729 59.691 201.729 57.2176C201.729 54.7447 203.734 52.7399 206.207 52.7399C208.68 52.7399 210.685 54.7447 210.685 57.2176Z" stroke="#0A213D" stroke-width="1.66632" stroke-miterlimit="10"/>
<path d="M223.368 57.2176C223.368 59.691 221.363 61.6958 218.89 61.6958C216.417 61.6958 214.412 59.691 214.412 57.2176C214.412 54.7447 216.417 52.7399 218.89 52.7399C221.363 52.7399 223.368 54.7447 223.368 57.2176Z" stroke="#0A213D" stroke-width="1.66632" stroke-miterlimit="10"/>
<path d="M210.685 57.5901C210.685 57.5901 212.266 55.1585 214.412 57.5901" stroke="#0A213D" stroke-width="1.66632" stroke-miterlimit="10"/>
<path d="M208.701 63.6223C208.701 63.6223 209.36 64.4749 212.286 64.4749C214.947 64.4749 216.155 63.6223 216.155 63.6223" stroke="#232338" stroke-width="1.51951" stroke-miterlimit="10" stroke-linecap="round" stroke-linejoin="round"/>
<path d="M212.186 75.6312C212.186 75.6312 206.138 75.3029 198.239 78.7962C198.239 78.7962 198.073 85.6137 211.707 85.6137C225.341 85.6137 226.555 78.1425 226.555 78.1425C226.555 78.1425 217.897 75.0544 212.186 75.6312" fill="#FFB27E"/>
<path d="M226.366 32.587C226.366 37.5506 222.342 41.5746 217.378 41.5746C212.414 41.5746 208.391 37.5506 208.391 32.587C208.391 27.6234 212.414 23.5999 217.378 23.5999C222.342 23.5999 226.366 27.6234 226.366 32.587Z" fill="#232338"/>
<path d="M222.587 154.638C222.505 154.638 222.423 154.641 222.342 154.646L222.306 154.346C222.397 154.273 222.449 154.159 222.434 154.035C222.412 153.847 222.241 153.712 222.052 153.734C221.863 153.756 221.728 153.927 221.75 154.116C221.764 154.238 221.841 154.338 221.945 154.387L221.98 154.687C221.637 154.743 221.306 154.847 220.99 154.997L221.147 155.327C221.596 155.111 222.081 155.003 222.587 155.003C222.826 155.003 223.064 155.027 223.296 155.079L223.373 154.722C223.116 154.667 222.852 154.638 222.587 154.638" fill="#1F1D21"/>
</svg>
