<svg width="411" height="130" viewBox="0 0 411 130" fill="none" xmlns="http://www.w3.org/2000/svg">
<path d="M0 -3H411V115C411 123.284 404.284 130 396 130H15C6.71573 130 0 123.284 0 115V-3Z" fill="#072227"/>
<mask id="mask0_240_3" style="mask-type:alpha" maskUnits="userSpaceOnUse" x="56" y="0" width="301" height="90">
<path d="M342.493 4.02586C342.654 4.2468 342.892 4.55476 343.245 4.981L343.258 4.99886C343.245 5.05019 338.806 21.1203 342.301 22.341C345.508 23.4613 345.778 11.6782 344.477 6.73732C345.187 7.8353 345.823 8.98904 346.349 10.1941C347.251 12.2517 347.867 14.9074 348.275 17.871C347.623 18.9378 343.642 25.6439 345.635 27.023C347.253 28.1433 348.311 23.7336 348.603 20.8213C348.838 23.4546 348.938 26.2375 348.951 29.0003C346.796 29.527 340.293 31.3949 340.17 34.7334C340.034 38.4625 345.624 37.3623 348.949 30.4464C348.929 33.1936 348.829 35.8894 348.69 38.3643C347.141 39.7591 340.775 45.7645 341.801 49.2347C342.841 52.7495 346.833 48.7236 348.518 41.0467C348.206 45.4431 347.809 48.7817 347.632 49.835C347.574 50.1809 347.51 50.6295 347.441 51.1539C347.416 51.3481 347.389 51.5511 347.362 51.7631C347.362 51.7631 337.467 65.0995 340.301 68.168C342.31 70.3461 345.318 61.4374 346.898 56.068C346.351 61.7677 345.872 69.2035 346.329 71.4977L346.365 71.491C346.014 76.6305 345.776 85.9766 348.608 86.4497C352.526 87.1014 348.608 76.6572 348.608 76.6572C348.608 76.6572 353.388 78.5653 353.832 76.6572C354.573 73.4615 347.876 68.9647 346.796 68.2618C346.809 65.4231 347.066 61.3994 347.389 57.7462C347.748 65.5816 349.706 67.9114 350.469 68.168C351.415 68.4872 353.359 66.5724 352.692 60.5157C352.174 55.8091 349.293 52.7674 348.032 51.6427C348.119 50.9732 348.202 50.3974 348.277 49.9421C348.445 48.9312 348.815 45.8314 349.121 41.7095C349.886 48.1523 351.699 53.4235 353.332 50.1586C354.925 46.9763 350.766 40.8883 349.308 38.9088C349.476 36.0367 349.594 32.841 349.596 29.5984C350.81 32.7829 356.14 38.7705 356.805 35.3449C357.458 31.9751 350.844 28.4669 349.583 27.8331C349.545 25.057 349.411 22.2808 349.139 19.6764C350.618 22.3031 355.131 27.6814 355.666 24.778C356.278 21.464 348.713 16.3736 348.713 16.3736L348.701 16.387C348.295 13.921 347.726 11.7094 346.95 9.93081C346.445 8.78151 345.847 7.67907 345.18 6.6235C347.976 8.5204 352.252 10.2075 352.08 8.22806C351.895 6.08121 345.314 4.34499 343.216 3.84286C343.145 3.7402 343.096 3.69781 343.066 3.69781C342.314 2.7739 341.522 1.90133 340.717 1.08008H339.799C340.723 1.99283 341.636 2.97475 342.493 4.02586Z" fill="#327F6B"/>
<path d="M336.8 9.61831C338.888 10.7944 338.123 4.92069 337.429 1.08002H335.389C335.014 4.29136 334.923 8.56051 336.8 9.61831Z" fill="#327F6B"/>
<path d="M339.529 9.288C342.303 8.8997 339.81 4.71312 335.902 1.07999H331.81C333.872 4.86041 337.012 9.64061 339.529 9.288Z" fill="#327F6B"/>
<path d="M328.442 1.08012H324.247C322.095 3.76256 320.471 7.06763 321.933 10.0313C323.997 14.2156 326.782 6.70388 328.442 1.08012Z" fill="#327F6B"/>
<path d="M331.009 1.08015H330.314C330.493 2.32095 330.687 3.70011 330.888 5.19086C329.208 8.50486 320.631 25.9899 324.72 29.7413C329.239 33.8899 330.848 12.6513 330.848 12.6513L331.087 6.67044C331.772 11.83 332.526 18.121 333.122 24.6152C331.569 25.8939 325.139 31.54 327.815 35.2535C330.303 38.7058 332.504 29.1543 333.213 25.6127C333.595 29.9086 333.901 34.2738 334.066 38.438C332.423 39.2012 325.496 42.6469 327.398 45.6552C329.237 48.5675 333.062 42.1024 334.128 40.172C334.204 42.725 334.224 45.1865 334.169 47.4941C332.374 48.3354 324.345 52.2653 326.329 54.1377C328.558 56.2422 333.14 50.6072 333.14 50.6072C333.14 50.6072 329.549 65.0349 333.452 63.4883C337.358 61.9396 334.749 49.7413 334.874 49.4311L334.807 49.0384C334.883 47.1437 334.903 45.1263 334.876 43.0263C335.601 44.8853 337.003 47.9783 337.846 46.646C338.837 45.0794 335.809 41.8815 334.836 40.9196C334.762 38.0564 334.613 35.0727 334.41 32.0555C335.818 35.6172 338.764 40.7612 340.261 38.3488C341.937 35.6418 335.633 28.6433 334.017 26.9227C333.642 22.4906 333.178 18.101 332.702 14.0416C334.684 19.2302 341.145 30.2054 343.231 26.4607C345.405 22.5598 334.206 10.3393 331.946 7.93354C331.613 5.37384 331.294 3.05516 331.009 1.08015Z" fill="#3C8F7C"/>
<path d="M308.38 4.90749C310.073 9.42435 313.421 17.041 316.704 16.9517C321.136 16.8334 314.811 6.95167 308.288 2.34331C308.277 2.02418 308.264 1.72736 308.252 1.44617C307.19 1.65149 306.132 1.87244 305.112 2.21165C301.395 4.80037 295.097 10.2166 297.032 15.5748C299.31 21.8904 305.331 6.86018 307.132 2.07775C307.219 4.3161 307.333 7.61001 307.422 11.5868C304.764 15.6618 293.682 33.2807 297.661 37.8556C302.171 43.0375 306.623 19.6074 306.623 19.6074L307.471 14.0706C307.572 19.7167 307.61 26.4318 307.465 33.3276C305.293 34.767 297.98 40.0449 300.415 44.3743C302.635 48.3221 306.036 39.1767 307.429 34.9478C307.311 39.5963 307.108 44.2939 306.782 48.7684C304.564 49.5271 296.962 52.4216 298.647 55.8963C300.256 59.2148 304.95 53.2339 306.612 50.9353C306.38 53.707 306.097 56.3694 305.753 58.8577C303.32 59.6946 294.481 62.9349 296.396 65.2023C298.614 67.8245 304.418 62.1271 304.418 62.1271C304.418 62.1271 298.614 77.7308 303.153 76.4989C307.152 75.4099 306.561 64.4904 306.485 61.6852C306.858 59.4223 307.172 56.9787 307.438 54.41C308.047 56.5747 309.125 59.583 310.149 58.3087C311.381 56.7733 308.781 53.1625 307.688 51.7722C307.958 48.6925 308.161 45.4767 308.315 42.214C309.513 46.3136 311.999 51.7633 313.876 49.3799C316.005 46.6751 310.357 38.5876 308.54 36.1261C308.676 31.3169 308.717 26.5344 308.701 22.0801C310.493 28.3465 315.985 40.2859 318.672 36.5233C321.504 32.5621 311.216 18.2349 308.627 14.7513C308.563 10.9173 308.469 7.54753 308.38 4.90749Z" fill="#3C8F7C"/>
<path d="M312.952 12.3634C315.329 15.1463 317.786 6.01883 318.873 1.24086C318.909 4.51916 318.949 8.90436 318.973 13.9836C317.507 15.49 312.961 20.5022 313.595 24.2135C314.211 27.8176 317.717 20.3103 318.989 17.4203C318.996 20.0738 319 22.8745 318.998 25.7712C317.159 27.369 312.722 31.6962 314.84 34.6376C316.554 37.0165 318.11 32.301 318.991 28.7058C318.982 32.0042 318.964 35.4008 318.931 38.8286C316.71 40.6072 310.535 46.1038 312.789 50.672C314.789 54.7247 317.565 46.164 318.906 41.299C318.866 44.9523 318.808 48.6188 318.732 52.2163C317.516 54.2538 313.075 62.0623 315.505 63.745C316.82 64.6555 317.849 62.7408 318.525 60.2592C318.42 63.6133 318.295 66.8381 318.143 69.8575C316.525 70.9287 309.832 75.5928 310.611 78.9448C311.098 81.0403 316.344 78.9448 316.344 78.9448C316.344 78.9448 312.044 90.411 316.344 89.6924C319.393 89.1859 319.199 79.313 318.828 73.6111C318.891 72.5623 318.951 71.4821 319.009 70.3708C319.643 72.7586 320.721 74.4882 321.941 73.0264C324.088 70.46 320.114 64.3632 319.317 63.1938C319.429 60.0561 319.52 56.78 319.596 53.4325C321.245 56.6439 327.521 64.3141 328.239 60.4109C328.931 56.6617 321.526 51.154 319.67 49.8396C319.732 46.5077 319.777 43.1335 319.81 39.7815C321.002 42.3211 325.068 50.4488 328.101 50.0248C331.618 49.5316 325.396 42.0131 319.817 39.2057C319.848 35.9185 319.868 32.6558 319.877 29.4802C319.891 29.5628 319.902 29.6453 319.915 29.7346C320.25 31.8881 323.997 40.0225 325.668 37.3311C327.338 34.6375 319.915 27.0544 319.915 27.0544C319.915 27.0544 319.902 27.0745 319.884 27.1213C319.891 24.0528 319.888 21.0825 319.879 18.2684C321.06 21.2521 325.188 27.8734 326.51 25.6529C327.766 23.544 321.888 17.282 319.868 15.2289C319.853 11.1561 319.824 7.48725 319.795 4.42766C321.196 7.49618 325.443 15.9408 326.739 12.8812C328.123 9.62071 321.341 3.34977 319.77 1.95499C319.766 1.65372 319.763 1.36359 319.759 1.08018H316.389C313.892 4.7691 310.982 10.0581 312.952 12.3634Z" fill="#327F6B"/>
<path d="M70.3554 4.02586C70.196 4.2468 69.9559 4.55476 69.6051 4.981L69.5913 4.99886C69.6053 5.05019 74.043 21.1203 70.5478 22.341C67.3424 23.4613 67.0724 11.6782 68.3721 6.73732C67.6618 7.8353 67.026 8.98904 66.4989 10.1941C65.5982 12.2517 64.9818 14.9074 64.5754 17.871C65.2268 18.9378 69.2074 25.6439 67.2141 27.023C65.5968 28.1433 64.5377 23.7336 64.2453 20.8213C64.0117 23.4546 63.9104 26.2375 63.899 29.0003C66.0532 29.527 72.5565 31.3949 72.679 34.7334C72.816 38.4625 67.2255 37.3623 63.9008 30.4464C63.9193 33.1936 64.0199 35.8894 64.1592 38.3643C65.708 39.7591 72.0742 45.7645 71.0479 49.2347C70.0086 52.7495 66.015 48.7236 64.3304 41.0467C64.6432 45.4431 65.0405 48.7817 65.2161 49.835C65.2739 50.1809 65.3389 50.6295 65.408 51.1539C65.4335 51.3481 65.4594 51.5511 65.4859 51.7631C65.4859 51.7631 75.382 65.0995 72.5482 68.168C70.5391 70.3461 67.5317 61.4374 65.9512 56.068C66.4984 61.7677 66.9787 69.2035 66.5198 71.4977L66.4841 71.491C66.8341 76.6305 67.0737 85.9766 64.2411 86.4497C60.3239 87.1014 64.2411 76.6572 64.2411 76.6572C64.2411 76.6572 59.4609 78.5653 59.0181 76.6572C58.2772 73.4615 64.9735 68.9647 66.0537 68.2618C66.0409 65.4231 65.7827 61.3994 65.4605 57.7462C65.1003 65.5816 63.1427 67.9114 62.3799 68.168C61.4352 68.4872 59.4906 66.5724 60.1572 60.5157C60.6751 55.8091 63.5571 52.7674 64.8171 51.6427C64.731 50.9732 64.6482 50.3974 64.5721 49.9421C64.4036 48.9312 64.0333 45.8314 63.7278 41.7095C62.9621 48.1523 61.1505 53.4235 59.5167 50.1586C57.9242 46.9763 62.0826 40.8883 63.5419 38.9088C63.3732 36.0367 63.2543 32.841 63.2536 29.5984C62.0385 32.7829 56.7104 38.7705 56.0454 35.3449C55.3917 31.9751 62.0057 28.4669 63.2654 27.8331C63.3036 25.057 63.4377 22.2808 63.7095 19.6764C62.2306 22.3031 57.7189 27.6814 57.1835 24.778C56.5725 21.464 64.1358 16.3736 64.1358 16.3736L64.1467 16.387C64.5542 13.921 65.1233 11.7094 65.9008 9.93081C66.4038 8.78151 67.0028 7.67907 67.67 6.6235C64.8742 8.5204 60.5964 10.2075 60.7684 8.22806C60.9552 6.08121 67.5352 4.34499 69.6334 3.84286C69.7049 3.7402 69.7531 3.69781 69.7834 3.69781C70.535 2.7739 71.3268 1.90133 72.1336 1.08008H73.0508C72.1253 1.99283 71.2141 2.97475 70.3554 4.02586Z" fill="#327F6B"/>
<path d="M73.3191 9.288C70.5458 8.8997 73.0384 4.71312 76.9469 1.07999H81.0404C78.9766 4.86041 75.838 9.64061 73.3191 9.288Z" fill="#327F6B"/>
<path d="M84.4058 1.08012H88.602C90.7538 3.76256 92.3793 7.06763 90.9167 10.0313C88.8517 14.2156 86.068 6.70388 84.4058 1.08012Z" fill="#327F6B"/>
<path d="M81.8391 1.08015H82.5343C82.356 2.32095 82.1627 3.70012 81.9605 5.19086C83.6403 8.50486 92.2177 25.9899 88.1302 29.7413C83.6102 33.8899 82.0003 12.6513 82.0003 12.6513L81.7621 6.67044C81.0777 11.83 80.3216 18.121 79.726 24.6152C81.281 25.8939 87.7102 31.54 85.0344 35.2535C82.545 38.7058 80.3455 29.1543 79.6356 25.6127C79.254 29.9086 78.9471 34.2738 78.782 38.438C80.4249 39.2013 87.3524 42.6469 85.452 45.6552C83.6115 48.5675 79.7882 42.1024 78.7213 40.172C78.6441 42.725 78.6256 45.1865 78.6811 47.4941C80.4751 48.3354 88.5037 52.2653 86.5202 54.1377C84.2913 56.2422 79.7092 50.6072 79.7092 50.6072C79.7092 50.6072 83.3006 65.0349 79.3959 63.4883C75.4914 61.9396 78.0995 49.7413 77.9755 49.4311L78.0422 49.0384C77.9663 47.1437 77.946 45.1263 77.9721 43.0263C77.2473 44.8853 75.8471 47.9783 75.0036 46.646C74.0109 45.0794 77.0411 41.8815 78.013 40.9196C78.0868 38.0564 78.237 35.0727 78.4403 32.0555C77.0304 35.6172 74.0844 40.7612 72.5887 38.3488C70.911 35.6418 77.2165 28.6433 78.8322 26.9227C79.208 22.4906 79.6702 18.101 80.1466 14.0416C78.164 19.2302 71.7036 30.2055 69.6166 26.4607C67.4432 22.5598 78.6416 10.3393 80.9027 7.93355C81.2352 5.37384 81.5557 3.05516 81.8391 1.08015Z" fill="#3C8F7C"/>
<path d="M99.8971 12.3634C97.5198 15.1463 95.0641 6.01883 93.9775 1.24086C93.9406 4.51916 93.9005 8.90436 93.8752 13.9836C95.3426 15.49 99.8873 20.5022 99.2535 24.2135C98.6385 27.8176 95.133 20.3103 93.8614 17.4203C93.8527 20.0738 93.8489 22.8745 93.852 25.7712C95.6894 27.369 100.128 31.6962 98.0098 34.6376C96.295 37.0165 94.7384 32.301 93.8578 28.7058C93.867 32.0042 93.886 35.4008 93.9179 38.8286C96.1388 40.6072 102.313 46.1038 100.059 50.672C98.0594 54.7247 95.2839 46.164 93.9433 41.299C93.9839 44.9523 94.0404 48.6188 94.116 52.2163C95.3343 54.2538 99.7746 62.0623 97.3439 63.745C96.0301 64.6555 95.0009 62.7408 94.3238 60.2592C94.4287 63.6133 94.5543 66.8381 94.7052 69.8575C96.3252 70.9287 103.016 75.5928 102.238 78.9448C101.752 81.0403 96.5057 78.9448 96.5057 78.9448C96.5057 78.9448 100.805 90.411 96.5057 89.6924C93.4575 89.1859 93.6512 79.313 94.0219 73.6111C93.9583 72.5623 93.898 71.4821 93.8413 70.3708C93.206 72.7586 92.1276 74.4882 90.9078 73.0264C88.7621 70.46 92.7351 64.3632 93.5334 63.1938C93.4207 60.0561 93.3285 56.78 93.2537 53.4325C91.6043 56.6439 85.3298 64.3141 84.6103 60.4109C83.9187 56.6617 91.3227 51.154 93.1801 49.8396C93.1183 46.5077 93.0719 43.1335 93.0384 39.7815C91.8473 42.3211 87.7822 50.4488 84.7491 50.0248C81.2309 49.5316 87.4537 42.0131 93.0328 39.2057C93.0011 35.9185 92.9815 32.6558 92.9712 29.4802C92.9594 29.5628 92.9487 29.6453 92.9348 29.7346C92.6003 31.8881 88.852 40.0225 87.1821 37.3311C85.5119 34.6375 92.9348 27.0544 92.9348 27.0544C92.9348 27.0544 92.9473 27.0745 92.965 27.1213C92.9594 24.0528 92.9616 21.0825 92.9694 18.2684C91.7887 21.2521 87.6608 27.8734 86.339 25.6529C85.0839 23.544 90.962 17.282 92.9804 15.2289C92.9978 11.1561 93.0257 7.48725 93.0549 4.42766C91.6541 7.49618 87.4075 15.9408 86.1093 12.8812C84.7259 9.62071 91.5081 3.34977 93.0799 1.95499C93.0832 1.65372 93.0864 1.36359 93.0897 1.08018H96.4604C98.9576 4.7691 101.867 10.0581 99.8971 12.3634Z" fill="#327F6B"/>
<path d="M349.862 3.23138H64.1865V-4.52995e-05H349.862V3.23138Z" fill="#13375B"/>
<path d="M225.572 31.5153V29.4889H189.83V31.5153H150.191C150.191 36.4718 154.208 40.4887 159.165 40.4887H254.882C259.839 40.4887 263.856 36.4718 263.856 31.5153H225.572Z" fill="#F7CC7F"/>
<path d="M263.858 26.0052V1.07992H262.508V26.0052H150.867V1.07992H149.517V26.0052H145.598V34.9787H268.449V26.0052H263.858Z" fill="#183658"/>
</mask>
<g mask="url(#mask0_240_3)">
<path d="M56 0H358.658V76.162C358.658 84.4462 351.942 91.162 343.658 91.162H71C62.7157 91.162 56 84.4463 56 76.162V0Z" fill="#0A292F"/>
</g>
</svg>
