<svg width="383" height="105" viewBox="0 0 383 105" fill="none" xmlns="http://www.w3.org/2000/svg">
<path d="M319.432 87.1831H292.917C290.824 87.1831 289.129 85.4858 289.129 83.3943V72.0741C289.129 69.9826 290.824 68.2853 292.917 68.2853H319.432C321.524 68.2853 323.219 69.9826 323.219 72.0741V83.3943C323.219 85.4858 321.524 87.1831 319.432 87.1831Z" fill="#71B3B8"/>
<path d="M294.536 87.1831V97.0065L300.653 87.1831H294.536Z" fill="#71B3B8"/>
<path d="M317.699 75.9555H294.65C293.532 75.9555 292.626 75.0493 292.626 73.9327C292.626 72.8161 293.532 71.91 294.65 71.91H317.699C318.816 71.91 319.721 72.8161 319.721 73.9327C319.721 75.0493 318.816 75.9555 317.699 75.9555Z" fill="#549FA5"/>
<path d="M317.699 82.4881H294.65C293.532 82.4881 292.626 81.5819 292.626 80.4653C292.626 79.3473 293.532 78.4425 294.65 78.4425H317.699C318.816 78.4425 319.721 79.3473 319.721 80.4653C319.721 81.5819 318.816 82.4881 317.699 82.4881Z" fill="#549FA5"/>
<path d="M114.674 42.413C114.174 42.413 113.746 42.0314 113.698 41.5236C113.647 40.9836 114.042 40.5052 114.582 40.4533C115.981 40.3201 117.42 40.2387 118.857 40.2135C119.403 40.2065 119.846 40.6357 119.856 41.1786C119.866 41.72 119.434 42.1675 118.892 42.1773C117.506 42.2012 116.117 42.2797 114.768 42.4088C114.736 42.4116 114.705 42.413 114.674 42.413ZM127.271 42.6332C127.232 42.6332 127.191 42.6304 127.149 42.6248C125.773 42.4551 124.387 42.3302 123.026 42.2559C122.485 42.225 122.07 41.7621 122.099 41.2206C122.13 40.6792 122.59 40.264 123.134 40.2948C124.539 40.372 125.971 40.4996 127.392 40.6764C127.929 40.7437 128.311 41.2333 128.244 41.7719C128.182 42.2685 127.759 42.6332 127.271 42.6332ZM106.404 43.9069C105.972 43.9069 105.577 43.6194 105.457 43.1831C105.316 42.6599 105.623 42.1198 106.146 41.9767C107.506 41.6064 108.915 41.2894 110.334 41.0341C110.867 40.9373 111.378 41.2936 111.474 41.8266C111.57 42.3611 111.215 42.8717 110.681 42.9671C109.319 43.2111 107.967 43.5155 106.663 43.8718C106.576 43.8957 106.489 43.9069 106.404 43.9069ZM135.532 44.2071C135.45 44.2071 135.368 44.1973 135.286 44.1762C133.946 43.8312 132.584 43.5268 131.241 43.2701C130.709 43.1691 130.359 42.6543 130.461 42.1212C130.563 41.5896 131.077 41.2403 131.61 41.3413C132.992 41.605 134.394 41.9192 135.774 42.2741C136.3 42.4102 136.616 42.9446 136.481 43.4693C136.367 43.9125 135.968 44.2071 135.532 44.2071ZM143.533 46.7924C143.415 46.7924 143.295 46.7699 143.177 46.725C141.891 46.2229 140.577 45.7543 139.269 45.3321C138.754 45.1652 138.471 44.6111 138.638 44.0949C138.803 43.5787 139.357 43.2967 139.873 43.4622C141.218 43.8971 142.57 44.3796 143.891 44.8958C144.395 45.0922 144.645 45.6617 144.449 46.1667C144.297 46.5553 143.926 46.7924 143.533 46.7924ZM98.5386 46.8597C98.1656 46.8597 97.8094 46.6451 97.6439 46.2846C97.4195 45.7908 97.6369 45.2087 98.1305 44.9828C98.5722 44.7822 99.0125 44.5816 99.45 44.3825C100.298 43.9981 101.176 43.6334 102.057 43.3009C102.564 43.1101 103.131 43.3654 103.322 43.8732C103.514 44.381 103.257 44.9477 102.75 45.1385C101.908 45.4555 101.071 45.8034 100.262 46.171C99.8244 46.3701 99.3855 46.5693 98.9452 46.7699C98.812 46.8302 98.6746 46.8597 98.5386 46.8597ZM28.2196 48.5486C27.7267 48.5486 27.3018 48.1783 27.2454 47.6761C27.1847 47.1374 27.5723 46.6507 28.111 46.5904C29.5016 46.4347 31.0032 46.4277 32.5134 46.5721C33.0533 46.624 33.4487 47.1038 33.3971 47.6438C33.3455 48.1839 32.8641 48.5781 32.3265 48.5276C30.9507 48.3957 29.5863 48.4013 28.3306 48.5416C28.2933 48.5458 28.2563 48.5486 28.2196 48.5486ZM151.171 50.3105C151.016 50.3105 150.857 50.274 150.71 50.1954C149.497 49.546 148.246 48.9245 146.995 48.348C146.502 48.1222 146.287 47.5386 146.514 47.0463C146.74 46.5525 147.323 46.3379 147.816 46.5651C149.103 47.1571 150.387 47.7953 151.635 48.463C152.114 48.7183 152.294 49.3131 152.038 49.7914C151.861 50.1225 151.522 50.3105 151.171 50.3105ZM90.8878 50.3708C90.5148 50.3708 90.16 50.159 89.9945 49.7985C89.7688 49.3047 89.9847 48.7225 90.4769 48.4967C91.3575 48.0927 92.2326 47.6887 93.102 47.2903L94.3009 46.7377C94.7931 46.5118 95.3764 46.7278 95.6036 47.2202C95.8294 47.714 95.6134 48.2961 95.1212 48.5233L93.9223 49.0732C93.0529 49.4744 92.1765 49.877 91.2958 50.281C91.164 50.3413 91.0238 50.3708 90.8878 50.3708ZM40.3365 51.0623C40.1286 51.0623 39.9189 50.9964 39.7408 50.8603C39.0602 50.3399 38.3361 49.9429 37.5889 49.6834C37.1607 49.5333 36.7211 49.3945 36.2824 49.271C35.7607 49.1251 35.4569 48.5823 35.6039 48.0604C35.7508 47.5386 36.293 47.2342 36.8149 47.3815C37.2916 47.5162 37.7691 47.6663 38.2345 47.8276C39.179 48.1572 40.0871 48.6524 40.9339 49.3005C41.3642 49.6301 41.4464 50.2459 41.117 50.6766C40.9238 50.9291 40.6318 51.0623 40.3365 51.0623ZM21.1429 52.3921C21.0146 52.3921 20.8842 52.3669 20.7585 52.3136C20.2599 52.1004 20.0279 51.5238 20.2405 51.0245C20.8201 49.6652 22.0357 48.5276 23.7561 47.7336C24.2488 47.5064 24.8315 47.7224 25.0584 48.2147C25.2853 48.7071 25.0703 49.2907 24.5779 49.5179C23.3071 50.1028 22.4318 50.8912 22.0464 51.7946C21.8873 52.1677 21.5244 52.3921 21.1429 52.3921ZM83.2216 53.8482C82.8458 53.8482 82.4882 53.6322 82.3256 53.266C82.104 52.7709 82.327 52.1901 82.822 51.9699C84.0195 51.4355 85.2731 50.8702 86.653 50.2431C87.1466 50.0201 87.7285 50.2375 87.9528 50.7313C88.1772 51.225 87.9585 51.8072 87.4649 52.0316C86.0808 52.6601 84.823 53.2268 83.6213 53.764C83.4908 53.8215 83.3548 53.8482 83.2216 53.8482ZM158.338 54.7137C158.143 54.7137 157.946 54.6562 157.774 54.5355C156.651 53.7472 155.486 52.9813 154.308 52.2589C153.847 51.9755 153.702 51.3709 153.986 50.908C154.269 50.4465 154.873 50.3006 155.336 50.5854C156.546 51.3288 157.746 52.1172 158.902 52.928C159.346 53.2394 159.453 53.851 159.142 54.2957C158.951 54.5678 158.647 54.7137 158.338 54.7137ZM75.4993 57.1979C75.1151 57.1979 74.7505 56.9707 74.5935 56.5948C74.3845 56.094 74.6187 55.5189 75.1193 55.3099C76.3477 54.795 77.6448 54.241 78.9783 53.663C79.4761 53.447 80.0539 53.6742 80.2698 54.1722C80.4858 54.6702 80.2572 55.2481 79.7608 55.4642C78.4188 56.0463 77.1133 56.6032 75.8779 57.1208C75.7531 57.1727 75.6255 57.1979 75.4993 57.1979ZM44.9751 57.9498C44.5724 57.9498 44.1949 57.7001 44.0513 57.2989C43.577 55.9776 42.9926 54.774 42.3139 53.7247C42.0192 53.2703 42.1498 52.6615 42.6048 52.3669C43.06 52.0723 43.6676 52.2028 43.9622 52.6587C44.7225 53.8342 45.3742 55.1724 45.899 56.6368C46.082 57.1474 45.8167 57.7085 45.3064 57.8923C45.1969 57.9316 45.0852 57.9498 44.9751 57.9498ZM24.0308 59.7692C23.7826 59.7692 23.5342 59.6752 23.343 59.4872C22.1064 58.271 21.1849 57.0661 20.6047 55.9018C20.3624 55.4179 20.5593 54.8273 21.0443 54.5846C21.5295 54.3434 22.1187 54.5397 22.361 55.0251C22.8442 55.993 23.6375 57.024 24.7189 58.0859C25.1057 58.466 25.1111 59.0888 24.731 59.4746C24.5389 59.671 24.2851 59.7692 24.0308 59.7692ZM164.904 59.967C164.668 59.967 164.431 59.8828 164.243 59.7117C163.233 58.7901 162.173 57.8853 161.092 57.0212C160.669 56.6817 160.6 56.0645 160.938 55.6409C161.277 55.2173 161.894 55.1485 162.318 55.4866C163.433 56.3773 164.525 57.3102 165.565 58.2598C165.967 58.6259 165.995 59.2459 165.63 59.6471C165.436 59.8604 165.17 59.967 164.904 59.967ZM67.6793 60.312C67.2818 60.312 66.9076 60.0694 66.7598 59.6752C66.5697 59.1674 66.8269 58.6007 67.3346 58.4099C68.5881 57.94 69.902 57.4308 71.2392 56.8978C71.7427 56.6958 72.3148 56.9412 72.5153 57.4448C72.7158 57.9498 72.4704 58.5207 71.967 58.7213C70.6166 59.26 69.2901 59.7748 68.0236 60.2489C67.9101 60.2924 67.7937 60.312 67.6793 60.312ZM59.7216 63.053C59.3026 63.053 58.9146 62.7823 58.7843 62.3615C58.6238 61.8424 58.9136 61.2926 59.4316 61.1326C60.7064 60.7371 62.0415 60.2994 63.3997 59.8295C63.9118 59.6527 64.4711 59.9249 64.648 60.4369C64.8251 60.9503 64.5532 61.5086 64.0407 61.6867C62.6626 62.1623 61.3071 62.6069 60.0123 63.0081C59.9154 63.039 59.8178 63.053 59.7216 63.053ZM30.8899 64.5666C30.7586 64.5666 30.6251 64.5413 30.4972 64.4852C29.3618 63.9886 28.2853 63.3883 27.2976 62.7023C27.0892 62.5564 26.8857 62.4134 26.6876 62.2689C26.2482 61.9519 26.1495 61.3374 26.4673 60.8984C26.7849 60.4593 27.3987 60.3597 27.838 60.6782C28.0263 60.8142 28.2196 60.9517 28.4177 61.0892C29.3008 61.7036 30.265 62.2394 31.2835 62.6855C31.7802 62.9029 32.0069 63.4809 31.7897 63.9788C31.6287 64.3478 31.2681 64.5666 30.8899 64.5666ZM51.5868 65.202C51.133 65.202 50.7253 64.885 50.6275 64.4235C50.515 63.8918 50.8538 63.3714 51.3841 63.2592C52.6781 62.9843 54.0382 62.6574 55.4267 62.2885C55.9502 62.1496 56.4882 62.461 56.6276 62.9857C56.7669 63.5089 56.4553 64.0462 55.9313 64.1864C54.5108 64.5638 53.118 64.899 51.7912 65.1796C51.7228 65.195 51.6542 65.202 51.5868 65.202ZM170.717 66.0437C170.436 66.0437 170.156 65.9216 169.963 65.6888C169.091 64.6409 168.165 63.6015 167.208 62.6027C166.832 62.21 166.846 61.5885 167.237 61.214C167.628 60.8381 168.249 60.8521 168.625 61.2435C169.614 62.2759 170.572 63.3504 171.472 64.4333C171.818 64.8513 171.762 65.47 171.344 65.8164C171.162 65.9679 170.939 66.0437 170.717 66.0437ZM43.2626 66.3747C42.7462 66.3747 42.3136 65.9707 42.2836 65.4489C42.2523 64.9074 42.666 64.4431 43.2071 64.4123C43.9094 64.3716 44.6343 64.3127 45.3758 64.2341C45.3307 63.2129 45.2238 62.1959 45.0571 61.2C44.9675 60.6655 45.3285 60.1591 45.863 60.0694C46.3973 59.9796 46.9036 60.3415 46.9932 60.8759C47.1646 61.8986 47.277 62.9408 47.3296 63.9886C47.8577 63.9241 48.3422 64.293 48.4186 64.8219C48.496 65.3591 48.1239 65.8571 47.5872 65.9343C47.3772 65.9651 47.1678 65.9946 46.9594 66.0212C46.7986 66.1391 46.601 66.2078 46.3872 66.2092C46.2619 66.2092 46.1303 66.1854 46.0154 66.1391C45.0918 66.2443 44.1897 66.3228 43.3199 66.3733C43.3006 66.3747 43.2816 66.3747 43.2626 66.3747ZM39.0599 66.3873C39.041 66.3873 39.0219 66.3859 39.003 66.3845C37.4894 66.2976 36.0372 66.1068 34.6865 65.8178C34.1565 65.7042 33.8191 65.181 33.9327 64.6521C34.0464 64.1219 34.5677 63.7824 35.0984 63.8975C36.3506 64.1654 37.7021 64.3435 39.1152 64.4249C39.6566 64.4558 40.0701 64.9201 40.039 65.4615C40.0091 65.9833 39.5762 66.3873 39.0599 66.3873ZM175.593 72.8919C175.259 72.8919 174.934 72.7222 174.75 72.4164C174.049 71.2507 173.286 70.0878 172.484 68.9628C172.17 68.5209 172.274 67.9079 172.714 67.5937C173.156 67.2795 173.769 67.3819 174.084 67.8238C174.914 68.9894 175.705 70.1944 176.433 71.4036C176.712 71.8679 176.562 72.4711 176.098 72.7516C175.939 72.847 175.764 72.8919 175.593 72.8919ZM45.0243 74.4756C44.9144 74.4756 44.8026 74.4573 44.6934 74.4181C44.1829 74.2357 43.9174 73.6732 44.1002 73.1626C44.5407 71.9338 44.8745 70.6222 45.0929 69.2644C45.1791 68.7285 45.6818 68.3652 46.2181 68.4508C46.7533 68.5364 47.1173 69.0413 47.0312 69.5758C46.7937 71.0529 46.4294 72.4823 45.9484 73.8247C45.8047 74.2259 45.4272 74.4756 45.0243 74.4756ZM40.5449 81.5047C40.2839 81.5047 40.0238 81.4009 39.8306 81.1961C39.4587 80.802 39.4769 80.1806 39.8713 79.8088C40.8109 78.9223 41.6511 77.8941 42.3688 76.7536C42.6574 76.2935 43.2635 76.1561 43.7223 76.445C44.1811 76.734 44.3192 77.34 44.0304 77.7987C43.2246 79.0808 42.2785 80.2367 41.2181 81.2368C41.0285 81.4164 40.7864 81.5047 40.5449 81.5047ZM33.2162 85.4282C32.775 85.4282 32.3739 85.1295 32.2638 84.6806C32.1343 84.1545 32.4561 83.6229 32.9825 83.4938C34.3002 83.1684 35.5439 82.6985 36.6782 82.0967C37.1573 81.8428 37.7516 82.0252 38.0053 82.5049C38.2595 82.9832 38.0771 83.578 37.5983 83.8319C36.3213 84.5094 34.926 85.0369 33.4515 85.4002C33.3727 85.4198 33.2939 85.4282 33.2162 85.4282ZM28.0635 86.0202C27.4532 86.0202 26.8246 85.9992 26.1947 85.9571C25.7333 85.9262 25.2716 85.9024 24.8221 85.8855C24.2803 85.8659 23.8572 85.4114 23.8767 84.8685C23.8964 84.3271 24.351 83.9063 24.8934 83.9231C25.3626 83.9399 25.8448 83.9652 26.3261 83.9974C27.2457 84.0592 28.1553 84.0732 29.0211 84.0381C29.5611 84.0171 30.0196 84.4365 30.0415 84.9794C30.0637 85.5208 29.6423 85.9781 29.1006 86.0006C28.7607 86.0132 28.4117 86.0202 28.0635 86.0202ZM16.5008 86.5308C16.0479 86.5308 15.6408 86.2152 15.5419 85.7551C15.4284 85.2248 15.766 84.7016 16.2961 84.588C17.6473 84.299 19.0914 84.097 20.5879 83.9904C21.1293 83.9497 21.5985 84.3579 21.6373 84.898C21.6762 85.4395 21.2692 85.9094 20.7285 85.9487C19.3227 86.0496 17.9697 86.2376 16.7076 86.5084C16.6382 86.5238 16.569 86.5308 16.5008 86.5308ZM8.80532 89.7515C8.49458 89.7515 8.18889 89.6042 7.99832 89.3307C7.68898 88.8846 7.7992 88.273 8.24442 87.963C9.42162 87.1452 10.7252 86.441 12.1187 85.8687C12.6203 85.6625 13.1936 85.9024 13.3996 86.4031C13.6054 86.9053 13.3659 87.4791 12.8643 87.6853C11.6024 88.2029 10.4249 88.8397 9.36441 89.5762C9.19375 89.6954 8.99855 89.7515 8.80532 89.7515ZM3.28054 95.9881C3.12447 95.9881 2.96643 95.9516 2.81933 95.8731C2.34088 95.6178 2.16013 95.023 2.41548 94.5447C3.12026 93.2233 3.96807 91.9987 4.93493 90.9046C5.29405 90.4978 5.91441 90.4599 6.32037 90.819C6.7266 91.1781 6.76475 91.7995 6.40563 92.2049C5.54015 93.184 4.78026 94.2824 4.14728 95.4691C3.97059 95.8001 3.63139 95.9881 3.28054 95.9881ZM0.982507 104.04C0.9654 104.04 0.948005 104.04 0.930758 104.038C0.389203 104.01 -0.0267064 103.549 0.00133896 103.007C0.0335911 102.385 0.172975 100.714 0.767676 98.6365C0.916877 98.1161 1.46026 97.8131 1.98148 97.9632C2.5027 98.1133 2.80419 98.6561 2.65499 99.178C2.11596 101.06 1.99073 102.554 1.96198 103.11C1.93478 103.633 1.50121 104.04 0.982507 104.04Z" fill="#71B3B8"/>
<path d="M176.429 66.132L173.25 71.339L200.614 90.0152L176.429 66.132Z" fill="#549FA5"/>
<path d="M170.428 77.5897L172.086 83.5626L199.397 89.1539L170.428 77.5897Z" fill="#549FA5"/>
<path d="M200.614 90.0152L154.468 74.2806L170.429 68.6668L200.614 90.0152Z" fill="#71B3B8"/>
<path d="M176.429 66.132L200.614 90.0152L186.459 61.8957L176.429 66.132Z" fill="#71B3B8"/>
<path d="M311.309 15.1353C311.224 15.1353 311.138 15.1281 311.053 15.1124C309.514 14.831 307.895 14.711 306.264 14.7524C305.609 14.771 305.055 14.3353 305.035 13.7824C305.014 13.231 305.532 12.7696 306.192 12.7539C308.014 12.7068 309.831 12.8425 311.561 13.1568C312.205 13.2753 312.613 13.8082 312.473 14.3467C312.352 14.8153 311.858 15.1353 311.309 15.1353ZM296.331 16.7081C295.87 16.7081 295.43 16.481 295.236 16.1024C294.975 15.5953 295.254 15.0067 295.859 14.7896C297.537 14.1839 299.229 13.7053 300.891 13.3682C301.532 13.2367 302.176 13.5667 302.331 14.1039C302.488 14.641 302.094 15.181 301.453 15.311C299.921 15.6224 298.356 16.0653 296.804 16.6252C296.649 16.681 296.49 16.7081 296.331 16.7081ZM320.411 18.8781C320.179 18.8781 319.945 18.8209 319.739 18.7038C319.211 18.4009 318.682 18.0923 318.168 17.7838C317.329 17.2838 316.455 16.8395 315.57 16.4624C314.982 16.2124 314.747 15.6095 315.045 15.1181C315.343 14.6253 316.061 14.4282 316.649 14.6782C317.641 15.101 318.618 15.5967 319.552 16.1552C320.054 16.4552 320.571 16.7581 321.086 17.0524C321.629 17.3652 321.769 17.9867 321.398 18.4424C321.166 18.7252 320.793 18.8781 320.411 18.8781ZM287.608 21.1351C287.257 21.1351 286.909 21.0052 286.672 20.7566C286.263 20.3252 286.348 19.6952 286.863 19.3523C288.245 18.4295 289.696 17.5795 291.174 16.8267C291.738 16.5381 292.471 16.6881 292.813 17.1595C293.156 17.6324 292.979 18.2466 292.415 18.5338C291.022 19.2452 289.655 20.0466 288.349 20.9166C288.13 21.0637 287.867 21.1351 287.608 21.1351ZM329.134 23.3522C328.942 23.3522 328.747 23.3137 328.565 23.2308C327.074 22.5522 325.567 21.8208 324.084 21.0608C323.521 20.7723 323.346 20.1566 323.69 19.6852C324.033 19.2152 324.767 19.0666 325.33 19.3552C326.777 20.098 328.25 20.8109 329.705 21.4737C330.285 21.738 330.498 22.3451 330.184 22.8294C329.968 23.1637 329.557 23.3522 329.134 23.3522ZM338.393 26.9907C338.248 26.9907 338.102 26.9693 337.958 26.9222C336.407 26.415 334.802 25.835 333.188 25.1979C332.593 24.9622 332.337 24.3665 332.617 23.8665C332.898 23.3679 333.609 23.1537 334.205 23.3879C335.77 24.0065 337.324 24.5679 338.826 25.0593C339.44 25.2593 339.743 25.8393 339.504 26.3536C339.32 26.7493 338.87 26.9907 338.393 26.9907ZM280.516 27.2793C280.275 27.2793 280.033 27.2193 279.824 27.0936C279.287 26.7736 279.162 26.1493 279.544 25.6993C280.512 24.5622 281.659 23.4208 282.956 22.3066C283.417 21.9108 284.172 21.9037 284.644 22.2894C285.116 22.6751 285.125 23.3079 284.664 23.7036C283.452 24.7436 282.384 25.8065 281.487 26.8607C281.255 27.1336 280.887 27.2793 280.516 27.2793ZM363.007 27.5021C362.626 27.5021 362.251 27.3479 362.019 27.0636C361.649 26.6064 361.79 25.985 362.336 25.675C363.463 25.0322 364.47 24.2279 365.332 23.2822C365.733 22.8437 366.481 22.7608 367.004 23.0951C367.529 23.4308 367.628 24.0579 367.229 24.4979C366.21 25.6136 365.015 26.5664 363.677 27.3293C363.471 27.4464 363.238 27.5021 363.007 27.5021ZM348.209 29.3564C348.143 29.3564 348.074 29.3521 348.008 29.3421C346.379 29.1107 344.659 28.7735 342.895 28.3407C342.262 28.185 341.899 27.6293 342.085 27.0993C342.271 26.5693 342.934 26.2665 343.564 26.4207C345.242 26.8322 346.869 27.1522 348.407 27.3707C349.056 27.4636 349.493 27.9793 349.384 28.5235C349.285 29.0121 348.78 29.3564 348.209 29.3564ZM353.294 29.7378C352.636 29.7378 352.102 29.2892 352.101 28.7378C352.101 28.185 352.634 27.7378 353.294 27.7378C355.01 27.7364 356.614 27.5764 358.061 27.265C358.699 27.1264 359.35 27.4493 359.513 27.9835C359.679 28.5192 359.293 29.0635 358.656 29.2021C357.015 29.5549 355.211 29.7364 353.295 29.7378C353.295 29.7378 353.295 29.7378 353.294 29.7378Z" fill="#71B3B8"/>
<path d="M279.366 22.8615L280.783 27.3292L256.954 36.2367L279.366 22.8615Z" fill="#549FA5"/>
<path d="M281.742 32.5082L279.411 36.6575L258.018 35.8187L281.742 32.5082Z" fill="#549FA5"/>
<path d="M256.954 36.2367L294.25 32.9669L283.377 25.8522L256.954 36.2367Z" fill="#71B3B8"/>
<path d="M279.366 22.8615L256.954 36.2367L272.663 17.8635L279.366 22.8615Z" fill="#71B3B8"/>
<path d="M252.388 91.6045C250.816 91.6045 249.76 90.4192 249.76 88.9758C249.76 87.7386 250.816 86.5533 252.388 86.5533C253.753 86.5533 254.808 87.7386 254.808 88.9758C254.808 90.3926 253.804 91.6045 252.388 91.6045ZM248.859 74.4167C250.018 73.54 251.409 73.1023 253.032 73.1023C256.535 73.1023 258.39 75.0086 258.39 77.6893C258.39 79.2351 257.642 80.8076 256.122 82.3787C254.19 84.4141 252.799 85.4198 251.924 85.4198C251.074 85.4198 250.456 84.7493 250.456 83.9512C250.456 83.2301 251.126 82.5077 252.284 81.4515C252.362 81.3743 252.439 81.2972 252.491 81.2705C253.804 80.0599 254.217 79.3894 254.217 78.566C254.217 77.535 253.521 76.9683 252.516 76.9683C252.053 76.9683 251.512 77.0707 250.868 77.2769C250.224 77.4831 249.76 77.5869 249.477 77.5869C248.756 77.5869 247.932 76.9683 247.932 75.9373C247.932 75.3958 248.24 74.881 248.859 74.4167Z" fill="#71B3B8"/>
<path d="M100.782 19.2116C99.5397 19.2116 98.704 18.2731 98.704 17.1327C98.704 16.1536 99.5397 15.2165 100.782 15.2165C101.862 15.2165 102.698 16.1536 102.698 17.1327C102.698 18.2535 101.904 19.2116 100.782 19.2116ZM97.9916 5.61615C98.9073 4.92319 100.008 4.57669 101.291 4.57669C104.063 4.57669 105.53 6.08466 105.53 8.20422C105.53 9.42741 104.94 10.6702 103.737 11.9145C102.208 13.5248 101.109 14.3188 100.416 14.3188C99.7431 14.3188 99.2537 13.7899 99.2537 13.1573C99.2537 12.5864 99.7837 12.0155 100.701 11.1808C100.763 11.1191 100.823 11.0574 100.863 11.0378C101.904 10.0797 102.229 9.54943 102.229 8.89715C102.229 8.08215 101.68 7.63328 100.884 7.63328C100.517 7.63328 100.089 7.71464 99.5804 7.87876C99.0714 8.04148 98.704 8.12284 98.4796 8.12284C97.9089 8.12284 97.2568 7.63329 97.2568 6.81829C97.2568 6.39045 97.5022 5.98226 97.9916 5.61615Z" fill="#71B3B8"/>
<path d="M55.0912 16.11L46.8407 31.3789C46.5262 31.9611 45.8011 32.1771 45.2202 31.8629L18.6917 17.5198C18.1108 17.2056 17.8944 16.4804 18.2091 15.8982L26.4596 0.627903C26.7741 0.0471668 27.4992 -0.170261 28.08 0.143955L54.6085 14.4885C55.1894 14.8027 55.4057 15.5279 55.0912 16.11Z" fill="#549FA5"/>
<path d="M55.0911 16.1101L54.635 16.9545L37.8557 19.1021C36.2076 19.3462 34.5922 18.4905 33.8677 16.9896L26.1991 1.11047L26.4595 0.627916C26.7737 0.0471802 27.4996 -0.168821 28.0809 0.145393L54.6075 14.4885C55.1887 14.8027 55.4054 15.5279 55.0911 16.1101Z" fill="#71B3B8"/>
<path d="M213.948 33.4873C210.897 33.4873 208.415 35.9701 208.415 39.0225C208.415 42.0749 210.897 44.5578 213.948 44.5578C216.999 44.5578 219.481 42.0749 219.481 39.0225C219.481 35.9701 216.999 33.4873 213.948 33.4873ZM213.948 46.6619C209.737 46.6619 206.311 43.235 206.311 39.0225C206.311 34.8101 209.737 31.3832 213.948 31.3832C218.159 31.3832 221.585 34.8101 221.585 39.0225C221.585 43.235 218.159 46.6619 213.948 46.6619Z" fill="#71B3B8"/>
<path d="M374.635 87.5955C371.585 87.5955 369.102 90.0797 369.102 93.1307C369.102 96.1831 371.585 98.666 374.635 98.666C377.688 98.666 380.17 96.1831 380.17 93.1307C380.17 90.0797 377.688 87.5955 374.635 87.5955ZM374.635 100.77C370.425 100.77 366.998 97.3432 366.998 93.1307C366.998 88.9183 370.425 85.4914 374.635 85.4914C378.847 85.4914 382.273 88.9183 382.273 93.1307C382.273 97.3432 378.847 100.77 374.635 100.77Z" fill="#549FA5"/>
<path d="M231.068 26.8649C231.068 29.2734 229.118 31.2274 226.708 31.2274C224.301 31.2274 222.349 29.2734 222.349 26.8649C222.349 24.4564 224.301 22.5038 226.708 22.5038C229.118 22.5038 231.068 24.4564 231.068 26.8649Z" fill="#71B3B8"/>
<path d="M379.342 75.9555C379.342 78.364 377.39 80.3166 374.981 80.3166C372.574 80.3166 370.622 78.364 370.622 75.9555C370.622 73.547 372.574 71.5929 374.981 71.5929C377.39 71.5929 379.342 73.547 379.342 75.9555Z" fill="#549FA5"/>
</svg>
