<svg width="139" height="83" viewBox="0 0 139 83" fill="none" xmlns="http://www.w3.org/2000/svg">
<path d="M129.768 49.3487C121.133 44.5881 134.845 28.1238 121.543 22.7798C112.857 19.2905 102.581 20.7191 95.3356 15.6767C72.0583 -0.522736 47.8971 11.5084 40.8008 15.6767C19.7927 28.0161 24.8983 31.9825 6.36818 49.3487C-1.68361 56.8948 -2.25111 73.5336 8.59182 82.8383H68.0682H133.129C142.734 75.5882 137.791 53.7714 129.768 49.3487Z" fill="#61C2F3"/>
<path d="M112.579 60.206C112.478 59.2833 112.357 58.3381 111.941 57.5147C111.436 56.5131 110.546 55.7898 109.771 54.9936C108.319 53.5053 107.203 51.6725 106.533 49.678C106.014 48.1362 105.756 46.4931 105.042 45.036C104.606 44.1473 104.012 43.3521 103.516 42.4965C102.346 40.4738 101.709 38.0842 100.121 36.3915C99.8151 38.4433 100.419 40.6208 101.73 42.1957C102.121 42.6658 102.575 43.0893 102.872 43.6266C103.413 44.6028 103.364 45.7933 103.427 46.9156C103.546 49.0239 104.123 51.104 105.103 52.9593C106.145 54.9284 107.648 56.6834 108.206 58.8521C108.622 60.4776 108.499 62.3017 109.388 63.7102C109.484 63.863 109.595 64.0168 109.618 64.1969C109.632 64.2981 109.617 64.4013 109.601 64.5025C109.581 64.6329 109.561 64.7643 109.541 64.8948C109.339 66.2254 109.13 67.9181 110.239 68.9138C111.009 69.604 111.999 69.6195 112.552 68.7036C113.107 67.7799 113.058 66.4288 113.018 65.3902C112.949 63.6605 112.769 61.926 112.579 60.206Z" fill="#3C8F7C"/>
<path d="M114.579 59.1362C114.147 57.5954 113.477 56.1285 113.141 54.5633C112.815 53.0449 112.813 51.4748 112.812 49.9203C112.811 48.216 112.809 46.5116 112.808 44.8072C112.807 43.7462 112.806 42.6804 112.636 41.634C112.269 39.3826 111.133 37.3005 110.942 35.0267C110.858 34.0436 110.955 33.0488 110.85 32.0677C110.789 31.508 110.65 30.9356 110.398 30.4383C110.127 29.9029 109.378 29.9272 109.134 30.4743C108.582 31.7056 108.232 33.0372 108.454 34.3561C108.588 35.1474 108.921 35.8853 109.17 36.6474C110.276 40.0377 109.688 43.79 110.545 47.2562C110.804 48.3026 111.194 49.3295 111.239 50.408C111.348 52.9904 109.476 55.3488 109.648 57.9263C109.789 60.0405 111.264 61.7906 111.884 63.8104C112.23 64.9414 112.304 66.1484 112.676 67.2707C112.964 68.1429 113.636 69.2019 114.678 68.9371C115.667 68.686 115.369 67.8538 115.324 67.0595C115.175 64.371 115.315 61.7624 114.579 59.1362Z" fill="#327F6B"/>
<path d="M116.844 60.5476C116.8 59.7475 116.669 58.9425 116.778 58.1482C116.869 57.4786 117.128 56.8468 117.314 56.1976C117.66 54.9799 117.746 53.7028 117.831 52.4375C117.983 50.1364 118.136 47.8363 118.288 45.5362C118.525 41.9601 118.763 38.3741 119.412 34.8525C119.593 33.8752 119.795 32.8162 119.369 31.9236C119.279 31.7348 119.102 31.5352 118.908 31.5985C118.77 31.6423 118.702 31.8 118.652 31.9401C117.233 35.9115 116.697 40.1875 115.113 44.0927C114.734 45.0281 114.292 45.9489 114.096 46.9428C113.86 48.1351 113.989 49.3684 114.02 50.5851C114.064 52.3314 113.898 54.0902 113.431 55.7683C113.186 56.6463 112.858 57.5048 112.724 58.4081C112.557 59.5343 112.696 60.681 112.801 61.8159C113.003 63.9963 113.072 66.1903 113.005 68.3794C112.968 69.6662 114.022 69.6331 114.721 68.8417C115.21 68.2889 115.205 67.6815 115.373 66.9933C115.922 64.7331 116.977 62.9976 116.844 60.5476Z" fill="#3C8F7C"/>
<path d="M110.253 64.0383C109.321 62.4945 107.463 61.6165 106.867 59.9043C106.714 59.4683 106.656 59.0001 106.47 58.5786C106.059 57.6422 105.122 57.1127 104.203 56.6825C104.075 56.6221 103.93 56.7175 103.928 56.8625C103.925 57.0923 104.031 57.3122 104.216 57.4407C104.925 57.9323 105.463 58.6837 105.703 59.5296C105.987 60.5331 105.864 61.633 106.217 62.6132C106.514 63.4357 107.124 64.1083 107.411 64.9338C107.673 65.6891 107.645 66.5145 107.769 67.3068C107.892 68.0992 108.234 68.9392 108.94 69.275C111.495 70.4878 110.856 65.035 110.253 64.0383Z" fill="#327F6B"/>
<path d="M120.881 63.5281C120.84 64.2747 120.952 65.0573 120.668 65.7445C120.487 66.1845 120.16 66.5407 119.892 66.9311C118.952 68.3016 118.611 70.2425 117.165 71.0144C117.07 71.065 116.964 71.1107 116.858 71.0903C116.711 71.0621 116.613 70.9151 116.554 70.772C116.199 69.9222 116.597 68.9635 116.833 68.0709C116.873 67.9142 116.908 67.7409 116.835 67.5968C116.756 67.4382 116.575 67.3701 116.451 67.2464C116.204 66.9982 116.228 66.5894 116.276 66.238C116.399 65.3591 116.571 64.4889 116.792 63.6313C116.917 63.1446 117.061 62.6541 117.333 62.2365C117.633 61.777 118.068 61.4334 118.475 61.0733C120.275 59.4779 121.653 57.3823 122.425 55.0676C122.592 54.5663 122.741 54.0378 123.086 53.6445C123.431 53.2522 124.046 53.0508 124.466 53.3554C124.765 53.5715 123.54 55.601 123.397 55.8434C122.99 56.5393 122.985 57.1438 122.754 57.9157C122.189 59.8079 120.989 61.5016 120.881 63.5281Z" fill="#3C8F7C"/>
<path d="M119.456 64.3915C119.723 63.679 119.993 62.9577 120.082 62.1995C120.179 61.3575 120.049 60.4951 120.189 59.659C120.369 58.5834 120.977 57.6373 121.279 56.5919C121.496 55.8356 121.55 55.0423 121.68 54.2655C122.055 52.0452 123.068 49.8766 122.777 47.6427C122.713 47.157 122.501 46.5905 122.033 46.5077C121.609 46.4328 121.223 46.8319 121.113 47.2611C121.003 47.6894 121.085 48.142 121.115 48.5849C121.199 49.8191 120.857 51.0797 120.165 52.09C119.499 53.0605 118.534 53.7905 117.935 54.8067C117.199 56.0517 117.099 57.5721 116.724 58.9786C115.978 61.7751 114.108 64.2134 113.767 67.0926C113.632 68.2383 113.893 69.6302 114.919 70.0877C117.888 71.4115 118.784 66.1825 119.456 64.3915Z" fill="#327F6B"/>
<path d="M114.267 67.9404H107.454C106.988 67.9404 106.644 68.3891 106.752 68.8564L109.236 79.6433C109.313 79.9781 109.603 80.2156 109.938 80.2156H113.792H114.267H118.121C118.455 80.2156 118.745 79.9781 118.823 79.6433L121.306 68.8564C121.414 68.3891 121.07 67.9404 120.605 67.9404H114.267Z" fill="#F7CC7F"/>
<path d="M61.0673 20.7834H26.9028C26.0655 20.7834 25.3871 21.4823 25.3871 22.3447V40.4952V43.4037C25.3871 44.0081 25.7754 44.4987 26.2536 44.4987H40.9171V48.8205H32.2298C31.5806 48.8205 31.0551 49.3627 31.0551 50.0304H40.9171H43.7975H43.9855H46.8659H56.7279C56.7279 49.3627 56.2024 48.8205 55.5532 48.8205H46.8659V44.4987H61.7165C62.1956 44.4987 62.583 44.0081 62.583 43.4037V40.4952V22.3447C62.583 21.4823 61.9045 20.7834 61.0673 20.7834Z" fill="#213854"/>
<path d="M56.3632 48.8205H47.6758V43.7103H41.7261V48.8205H33.0397C32.3905 48.8205 31.8641 49.3627 31.8641 50.0304H41.7261H44.6074H44.7945H47.6758H57.5378C57.5378 49.3627 57.0114 48.8205 56.3632 48.8205Z" fill="#001333"/>
<path d="M63.3931 40.4952V22.3447C63.3931 21.4823 62.7146 20.7834 61.8773 20.7834H27.7119C26.8756 20.7834 26.1961 21.4823 26.1961 22.3447V40.4952H63.3931Z" fill="#001333"/>
<path d="M26.1961 40.4952V43.4036C26.1961 44.0081 26.5845 44.4987 27.0636 44.4987H62.5265C63.0047 44.4987 63.3931 44.0081 63.3931 43.4036V40.4952H26.1961Z" fill="#001333"/>
<path d="M62.5227 39.7067V22.3933C62.5227 21.9397 62.1522 21.5718 61.6958 21.5718H27.8933C27.4368 21.5718 27.0674 21.9397 27.0674 22.3933V39.7067H62.5227Z" fill="#BAE1F4"/>
<path d="M89.3483 62.8779H24.9251V59.549H89.3483V62.8779Z" fill="#FAE0B2"/>
<path d="M82.1106 80.2156H81.4746V50.0479H82.1106V80.2156Z" fill="#001333"/>
<path d="M89.3474 80.2156H88.7114V50.2309H89.3474V80.2156Z" fill="#001333"/>
<path d="M25.5611 80.2156H24.9251V50.0479H25.5611V80.2156Z" fill="#001333"/>
<path d="M34.6312 80.2156H33.9961V50.0479H34.6312V80.2156Z" fill="#001333"/>
<path d="M89.3483 51.1829H24.9251V50.0479H89.3483V51.1829Z" fill="#FAE0B2"/>
<path d="M34.6311 51.1829H24.9251V50.0479H34.6311V51.1829Z" fill="#F7CC7F"/>
<path d="M34.6311 62.8779H24.9251V59.549H34.6311V62.8779Z" fill="#F7CC7F"/>
<path d="M46.0494 48.6794L52.5718 47.047C52.5718 47.047 54.8795 43.8602 57.1012 41.1124C57.7844 41.7811 58.1775 42.8216 58.8655 43.4835L53.977 49.2897C53.8012 49.4999 53.547 49.6226 53.2777 49.6294L46.3329 49.8007L46.0494 48.6794Z" fill="#F7A491"/>
<path d="M41.6128 49.3577C41.5448 49.2487 41.7158 49.0648 41.8453 48.9265C41.987 48.7737 42.8508 48.3892 42.9972 48.3425C43.1447 48.2968 44.4024 48.4798 44.8834 48.6423C45.3654 48.8049 45.6829 48.7377 45.6829 48.7377C45.8086 48.7114 45.9985 48.6754 46.146 48.6443L46.4484 49.8006C45.3172 49.786 44.136 49.8727 44.0282 49.8697C43.689 49.861 43.0662 49.495 42.9216 49.4415C42.778 49.3879 42.4851 49.4298 42.2885 49.5252C42.0919 49.6196 41.5202 49.8454 41.4238 49.7928C41.3284 49.7403 41.6128 49.3577 41.6128 49.3577Z" fill="#F7A491"/>
<path d="M45.7518 48.3785L45.4741 48.4321V50.0469C45.4741 50.0469 45.7224 50.116 45.7518 50.0927C45.7821 50.0693 45.7518 48.3785 45.7518 48.3785Z" fill="#F4F4F4"/>
<path d="M58.4718 39.1354C57.2981 38.9534 52.317 46.901 52.317 46.901L45.6888 48.3406V50.1443L52.9331 49.8416C52.9435 49.8396 52.952 49.8367 52.9624 49.8357C53.8536 49.6819 54.412 49.1096 54.5141 48.9977C56.0242 47.3069 59.396 43.4757 59.8108 42.5033C60.3476 41.2447 59.6435 39.3184 58.4718 39.1354Z" fill="#61A3C5"/>
<path d="M63.6946 34.8623L64.9968 38.2779C64.9968 38.2779 63.2929 40.4602 62.0096 40.3736C60.9314 40.3006 61.334 38.7802 61.334 38.7802C61.334 38.7802 61.4682 36.7682 61.0911 35.8153C60.7131 34.8623 63.6946 34.8623 63.6946 34.8623Z" fill="#F7A491"/>
<path d="M63.534 36.0206C63.0691 36.3915 62.1175 36.9687 61.3369 37.2335C61.3076 36.7215 61.2386 36.1871 61.0912 35.8153C60.9164 35.3753 61.4579 35.1388 62.091 35.0112C62.9311 34.8964 63.6947 34.8623 63.6947 34.8623L63.9451 35.5184C63.8251 35.7247 63.689 35.898 63.534 36.0206Z" fill="#FE875E"/>
<path d="M65.4323 30.1862C65.5173 30.1667 65.4606 34.3259 64.2085 35.3236C62.9554 36.3223 60.7942 36.442 60.1743 35.4657C59.4892 34.3863 60.2036 29.9944 62.0606 29.0347C63.9184 28.0749 65.4323 30.1862 65.4323 30.1862Z" fill="#F7A491"/>
<path d="M63.0347 26.9215C64.2944 27.3313 65.0183 28.1986 65.2772 28.5626C65.8565 28.6998 66.6097 29.1106 67.2343 30.5346C68.0026 32.2857 66.9744 34.0038 65.6543 34.7513C64.3341 35.4979 64.3218 36.5092 64.3218 36.5092L63.9401 35.5105C63.9401 35.5105 64.061 34.5372 64.4362 33.9794C64.8123 33.4207 63.975 32.9214 63.7993 32.3987C63.6632 31.9967 63.787 31.1274 63.5781 30.4646C63.5781 30.4646 62.5311 29.4192 61.6928 29.2916C60.265 29.0756 61.4197 26.3959 63.0347 26.9215Z" fill="#FAE0B2"/>
<path d="M62.9509 29.9273C62.9509 29.9273 63.188 30.4354 63.051 30.9474C62.914 31.4594 61.9123 34.9255 62.2043 35.3266C62.4963 35.7266 64.322 36.5092 64.322 36.5092L65.1442 33.6679L64.2946 29.7024L62.9509 29.9273Z" fill="#FAE0B2"/>
<path d="M63.2125 31.0594C63.2125 31.0594 64.5771 28.9452 64.8587 28.0283C64.8587 28.0283 65.2802 28.002 65.5098 28.2162C65.7385 28.4294 64.6583 31.0107 64.1055 32.0172L63.2125 31.0594Z" fill="#071521"/>
<path d="M61.3084 76.2033L60.4702 73.7281H62.6664C62.7798 75.3166 62.8233 76.3893 62.8233 76.3893L63.3808 78.0167L63.9478 79.9508C63.9478 79.9508 62.0805 80.4463 61.1005 79.8895L61.2092 77.9642L61.3084 76.2033Z" fill="#F7A491"/>
<path d="M61.2093 77.9565C62.0711 78.3516 62.9991 78.1132 63.3724 77.9866L63.4971 78.3312L63.9715 79.9635C63.9715 79.9635 62.0806 80.4463 61.1006 79.8896L61.2093 77.9565Z" fill="#001333"/>
<path d="M46.8965 75.7586C46.8965 75.7586 47.507 77.2507 46.9995 77.8688C46.492 78.4869 44.3819 79.0943 44.105 79.4292C43.8281 79.764 43.8498 80.0482 43.8498 80.0482L49.774 79.8759L49.7079 78.0392L49.1616 75.2709L46.8965 75.7586Z" fill="#F7A491"/>
<path d="M46.6317 78.1764C46.6317 78.1764 48.1541 78.8072 48.8893 78.4324C49.6245 78.0577 49.6018 77.9535 49.8145 78.0937C50.028 78.2329 50.1055 79.9538 50.1055 79.9538L43.4433 80.1621C42.9803 80.1514 42.745 79.801 43.122 79.5002C43.38 79.2948 43.6786 79.1566 43.8478 79.0564C44.3685 78.7497 46.6317 78.1764 46.6317 78.1764Z" fill="#001333"/>
<path d="M57.5086 54.2246C56.8452 54.0377 42.9632 56.7972 41.8387 59.9519C41.6553 60.4649 43.8723 68.5858 46.7158 76.3426L49.737 75.8647C49.737 75.8647 49.3552 67.9219 46.7612 62.5022C48.293 62.8945 56.5674 61.1365 58.0832 59.7446C60.0176 57.9692 58.172 54.4115 57.5086 54.2246Z" fill="#355389"/>
<path d="M54.701 63.788C54.701 63.788 58.9582 72.8306 59.6433 74.4873C60.3294 76.143 60.5222 76.9714 60.5222 76.9714H63.1909C63.1909 76.9714 62.1618 66.6371 60.4258 63.788C58.6889 60.9399 54.701 63.788 54.701 63.788Z" fill="#355389"/>
<path d="M59.9409 37.8242L70.4323 37.905C71.2327 37.9118 71.7817 38.492 71.6579 39.2025L67.7097 61.7546C67.5859 62.4652 66.8356 63.0356 66.0343 63.0297L55.5429 62.949C54.7415 62.9421 54.1925 62.362 54.3172 61.6514L58.2645 39.0993C58.3892 38.3898 59.1396 37.8184 59.9409 37.8242Z" fill="#B75742"/>
<path d="M48.4819 61.4675H56.2195L60.3302 38.9524C60.4484 38.3295 61.193 37.8243 61.9944 37.8243H72.4857C73.2871 37.8243 73.8418 38.3295 73.7237 38.9524L69.2689 63.2897C69.1508 63.9127 68.4062 64.4169 67.6048 64.4169H65.7073H57.1135H48.4819C47.4339 64.4169 46.5843 63.7569 46.5843 62.9422C46.5843 62.1285 47.4339 61.4675 48.4819 61.4675Z" fill="#F7CC7F"/>
<path d="M59.0018 64.4168H60.098V78.3312H59.0018V64.4168Z" fill="white"/>
<path d="M65.0941 79.0681H54.1936C53.6918 79.0681 53.2845 79.4866 53.2845 80.0044C53.2845 80.094 53.3563 80.168 53.4442 80.168H65.8435C65.9314 80.168 66.0023 80.094 66.0023 80.0044C66.0023 79.4866 65.5959 79.0681 65.0941 79.0681Z" fill="white"/>
<path d="M60.1839 78.3312H58.8486C58.4536 78.3312 58.1333 78.6612 58.1333 79.0681C58.1333 79.475 58.4536 79.8049 58.8486 79.8049H60.1839C60.5789 79.8049 60.8993 79.475 60.8993 79.0681C60.8993 78.6612 60.5789 78.3312 60.1839 78.3312Z" fill="white"/>
<path d="M33.4508 21.5718H27.8933C27.4368 21.5718 27.0674 21.9397 27.0674 22.3933V39.7067H33.4508V21.5718Z" fill="#61A3C5"/>
<path d="M28.9215 25.5967C28.2524 25.5967 27.7109 25.038 27.7109 24.3498C27.7109 23.6607 28.2524 23.103 28.9215 23.103C29.5896 23.103 30.132 23.6607 30.132 24.3498C30.132 25.038 29.5896 25.5967 28.9215 25.5967Z" fill="#AAD1E2"/>
<path d="M28.9215 29.354C28.2524 29.354 27.7109 28.7953 27.7109 28.1071C27.7109 27.418 28.2524 26.8602 28.9215 26.8602C29.5896 26.8602 30.132 27.418 30.132 28.1071C30.132 28.7953 29.5896 29.354 28.9215 29.354Z" fill="#AAD1E2"/>
<path d="M28.9215 33.1112C28.2524 33.1112 27.7109 32.5535 27.7109 31.8643C27.7109 31.1761 28.2524 30.6174 28.9215 30.6174C29.5896 30.6174 30.132 31.1761 30.132 31.8643C30.132 32.5535 29.5896 33.1112 28.9215 33.1112Z" fill="#AAD1E2"/>
<path d="M28.9215 36.8685C28.2524 36.8685 27.7109 36.3108 27.7109 35.6216C27.7109 34.9335 28.2524 34.3747 28.9215 34.3747C29.5896 34.3747 30.132 34.9335 30.132 35.6216C30.132 36.3108 29.5896 36.8685 28.9215 36.8685Z" fill="#AAD1E2"/>
<path d="M32.8165 24.8949H30.4134C30.3671 24.8949 30.3302 24.8569 30.3302 24.8092C30.3302 24.7625 30.3671 24.7236 30.4134 24.7236H32.8165C32.8619 24.7236 32.8997 24.7625 32.8997 24.8092C32.8997 24.8569 32.8619 24.8949 32.8165 24.8949Z" fill="#AAD1E2"/>
<path d="M32.0964 24.3187H30.4134C30.3671 24.3187 30.3302 24.2807 30.3302 24.233C30.3302 24.1853 30.3671 24.1473 30.4134 24.1473H32.0964C32.1427 24.1473 32.1796 24.1853 32.1796 24.233C32.1796 24.2807 32.1427 24.3187 32.0964 24.3187Z" fill="#AAD1E2"/>
<path d="M32.8165 28.5392H30.4134C30.3671 28.5392 30.3302 28.5003 30.3302 28.4536C30.3302 28.4059 30.3671 28.3679 30.4134 28.3679H32.8165C32.8619 28.3679 32.8997 28.4059 32.8997 28.4536C32.8997 28.5003 32.8619 28.5392 32.8165 28.5392Z" fill="#AAD1E2"/>
<path d="M32.0964 27.9631H30.4134C30.3671 27.9631 30.3302 27.9241 30.3302 27.8764C30.3302 27.8297 30.3671 27.7908 30.4134 27.7908H32.0964C32.1427 27.7908 32.1796 27.8297 32.1796 27.8764C32.1796 27.9241 32.1427 27.9631 32.0964 27.9631Z" fill="#AAD1E2"/>
<path d="M32.8165 32.1826H30.4134C30.3671 32.1826 30.3302 32.1446 30.3302 32.0969C30.3302 32.0502 30.3671 32.0112 30.4134 32.0112H32.8165C32.8619 32.0112 32.8997 32.0502 32.8997 32.0969C32.8997 32.1446 32.8619 32.1826 32.8165 32.1826Z" fill="#AAD1E2"/>
<path d="M32.0964 31.6063H30.4134C30.3671 31.6063 30.3302 31.5684 30.3302 31.5207C30.3302 31.473 30.3671 31.435 30.4134 31.435H32.0964C32.1427 31.435 32.1796 31.473 32.1796 31.5207C32.1796 31.5684 32.1427 31.6063 32.0964 31.6063Z" fill="#AAD1E2"/>
<path d="M32.8165 35.8269H30.4134C30.3671 35.8269 30.3302 35.788 30.3302 35.7412C30.3302 35.6936 30.3671 35.6556 30.4134 35.6556H32.8165C32.8619 35.6556 32.8997 35.6936 32.8997 35.7412C32.8997 35.788 32.8619 35.8269 32.8165 35.8269Z" fill="#AAD1E2"/>
<path d="M32.0964 35.2507H30.4134C30.3671 35.2507 30.3302 35.2117 30.3302 35.164C30.3302 35.1173 30.3671 35.0784 30.4134 35.0784H32.0964C32.1427 35.0784 32.1796 35.1173 32.1796 35.164C32.1796 35.2117 32.1427 35.2507 32.0964 35.2507Z" fill="#AAD1E2"/>
<path d="M57.7949 24.5485H35.3749C35.2681 24.5485 35.1812 24.4599 35.1812 24.3499C35.1812 24.2399 35.2681 24.1504 35.3749 24.1504H57.7949C57.9007 24.1504 57.9877 24.2399 57.9877 24.3499C57.9877 24.4599 57.9007 24.5485 57.7949 24.5485Z" fill="#61A3C5"/>
<path d="M44.2645 25.7019H35.3749C35.2681 25.7019 35.1812 25.6133 35.1812 25.5033C35.1812 25.3933 35.2681 25.3048 35.3749 25.3048H44.2645C44.3713 25.3048 44.4582 25.3933 44.4582 25.5033C44.4582 25.6133 44.3713 25.7019 44.2645 25.7019Z" fill="#61A3C5"/>
<path d="M52.3706 29.1826H35.3749C35.2681 29.1826 35.1812 29.0931 35.1812 28.9831C35.1812 28.8741 35.2681 28.7845 35.3749 28.7845H52.3706C52.4774 28.7845 52.5634 28.8741 52.5634 28.9831C52.5634 29.0931 52.4774 29.1826 52.3706 29.1826Z" fill="#61A3C5"/>
<path d="M48.9129 32.8591H35.3749C35.2681 32.8591 35.1812 32.7706 35.1812 32.6606C35.1812 32.5506 35.2681 32.462 35.3749 32.462H48.9129C49.0197 32.462 49.1057 32.5506 49.1057 32.6606C49.1057 32.7706 49.0197 32.8591 48.9129 32.8591Z" fill="#61A3C5"/>
<path d="M53.5576 36.446H35.3749C35.2681 36.446 35.1812 36.3565 35.1812 36.2465C35.1812 36.1375 35.2681 36.0479 35.3749 36.0479H53.5576C53.6634 36.0479 53.7503 36.1375 53.7503 36.2465C53.7503 36.3565 53.6634 36.446 53.5576 36.446Z" fill="#61A3C5"/>
<path d="M57.7949 28.1616H35.3749C35.2681 28.1616 35.1812 28.073 35.1812 27.963C35.1812 27.853 35.2681 27.7635 35.3749 27.7635H57.7949C57.9007 27.7635 57.9877 27.853 57.9877 27.963C57.9877 28.073 57.9007 28.1616 57.7949 28.1616Z" fill="#61A3C5"/>
<path d="M57.7949 31.8049H35.3749C35.2681 31.8049 35.1812 31.7164 35.1812 31.6064C35.1812 31.4964 35.2681 31.4078 35.3749 31.4078H57.7949C57.9007 31.4078 57.9877 31.4964 57.9877 31.6064C57.9877 31.7164 57.9007 31.8049 57.7949 31.8049Z" fill="#61A3C5"/>
<path d="M57.7949 35.4492H35.3749C35.2681 35.4492 35.1812 35.3597 35.1812 35.2506C35.1812 35.1407 35.2681 35.0511 35.3749 35.0511H57.7949C57.9007 35.0511 57.9877 35.1407 57.9877 35.2506C57.9877 35.3597 57.9007 35.4492 57.7949 35.4492Z" fill="#61A3C5"/>
<path d="M60.3465 34.3036C60.1632 34.3036 59.9581 34.2666 59.7294 34.178L59.7625 34.0865C60.9277 34.5382 61.4493 33.5648 61.6213 33.2455C61.6657 33.1608 61.6799 33.1365 61.7026 33.1239L61.7479 33.2085L61.7253 33.1657L61.7545 33.2037C61.746 33.2124 61.7243 33.2533 61.7035 33.2923C61.5561 33.5677 61.1611 34.3036 60.3465 34.3036Z" fill="#13375B"/>
<path d="M60.2187 34.2578C60.1857 34.3854 60.0231 34.4515 59.8549 34.4058C59.6867 34.3601 59.5761 34.2199 59.6092 34.0933C59.6413 33.9658 59.8039 33.8996 59.9721 33.9454C60.1403 33.9911 60.2509 34.1313 60.2187 34.2578Z" fill="#13375B"/>
<path d="M64.3805 31.8955C64.5657 32.7569 64.0375 33.6086 63.2011 33.7984C62.3658 33.9892 61.5379 33.4451 61.3537 32.5837C61.1694 31.7232 61.6967 30.8705 62.533 30.6807C63.3694 30.4909 64.1962 31.035 64.3805 31.8955Z" fill="#DD6652"/>
<path d="M64.2002 31.9363C64.3854 32.7977 63.8571 33.6494 63.0208 33.8402C62.1855 34.03 61.3576 33.4859 61.1734 32.6245C60.9891 31.764 61.5173 30.9113 62.3527 30.7215C63.189 30.5317 64.0159 31.0758 64.2002 31.9363Z" fill="#F7CC7F"/>
<path d="M63.6262 32.0677C63.7405 32.6011 63.4126 33.1306 62.8938 33.2484C62.375 33.3662 61.8618 33.0284 61.7475 32.4941C61.6332 31.9597 61.9601 31.4311 62.4789 31.3133C62.9977 31.1956 63.5109 31.5333 63.6262 32.0677Z" fill="#13375B"/>
<path d="M62.6864 33.2717C62.3282 33.2717 61.9984 33.0644 61.834 32.7393C61.9984 33.0644 62.3282 33.2717 62.6864 33.2717ZM62.7166 33.2708C62.7195 33.2708 62.7223 33.2708 62.7251 33.2708C62.7223 33.2708 62.7195 33.2708 62.7166 33.2708ZM62.7261 33.2708C62.728 33.2708 62.7299 33.2708 62.7318 33.2708C62.7299 33.2708 62.728 33.2708 62.7261 33.2708ZM62.7468 33.2698C62.778 33.2678 62.8102 33.2639 62.8423 33.2581C62.8102 33.2639 62.778 33.2678 62.7468 33.2698ZM62.8432 33.2581C62.8451 33.2581 62.847 33.2581 62.8489 33.2571C62.847 33.2581 62.8451 33.2581 62.8432 33.2581ZM62.8489 33.2571C62.8546 33.2562 62.8603 33.2552 62.8659 33.2542C62.8603 33.2552 62.8546 33.2562 62.8489 33.2571ZM62.8801 33.2513H62.881H62.8801ZM61.834 32.7373C61.8331 32.7373 61.833 32.7373 61.833 32.7373C61.833 32.7373 61.8331 32.7373 61.834 32.7373ZM61.8198 32.7091C61.8198 32.7091 61.8189 32.7081 61.8189 32.7072C61.8189 32.7081 61.8198 32.7091 61.8198 32.7091ZM61.8151 32.6994C61.8142 32.6965 61.8132 32.6945 61.8123 32.6916C61.8132 32.6945 61.8142 32.6965 61.8151 32.6994ZM61.7745 32.5943C61.765 32.5641 61.7565 32.5329 61.7499 32.5008C61.7565 32.5329 61.765 32.5641 61.7745 32.5943ZM62.4794 31.3133C62.4841 31.3123 62.4879 31.3114 62.4927 31.3104C62.4879 31.3114 62.4841 31.3123 62.4794 31.3133ZM62.4936 31.3104C62.4955 31.3104 62.4964 31.3094 62.4983 31.3094C62.4964 31.3094 62.4955 31.3104 62.4936 31.3104ZM62.5021 31.3084C62.5031 31.3084 62.503 31.3084 62.503 31.3084C62.503 31.3084 62.5031 31.3084 62.5021 31.3084Z" fill="#847C56"/>
<path d="M62.6861 33.2717C62.328 33.2717 61.9982 33.0644 61.8338 32.7393C61.8338 32.7383 61.8338 32.7383 61.8338 32.7373C61.8328 32.7373 61.8328 32.7373 61.8328 32.7373C61.8281 32.7286 61.8243 32.7189 61.8196 32.7091C61.8196 32.7091 61.8186 32.7081 61.8186 32.7072C61.8177 32.7052 61.8158 32.7023 61.8149 32.6994C61.8139 32.6965 61.813 32.6945 61.812 32.6916C61.8016 32.6702 61.7931 32.6478 61.7846 32.6254C61.7817 32.6147 61.778 32.605 61.7742 32.5943C61.7648 32.5641 61.7562 32.5329 61.7496 32.5008C61.7487 32.4989 61.7477 32.4969 61.7477 32.494C61.7326 32.4229 61.7251 32.3529 61.7251 32.2828C61.7232 31.8272 62.0293 31.4155 62.4792 31.3133C62.4839 31.3123 62.4877 31.3114 62.4924 31.3104H62.4933C62.4952 31.3104 62.4962 31.3094 62.4981 31.3094C62.499 31.3094 62.5009 31.3084 62.5019 31.3084C62.5028 31.3084 62.5028 31.3084 62.5028 31.3084C62.5566 31.2977 62.6105 31.2919 62.6634 31.2909C62.2505 31.4759 62.0076 31.9411 62.1087 32.4122C62.2079 32.8746 62.6058 33.189 63.0471 33.189C63.0547 33.189 63.0622 33.189 63.0707 33.189C63.015 33.2133 62.9555 33.2338 62.894 33.2484C62.8902 33.2493 62.8855 33.2503 62.8808 33.2513H62.8799C62.8751 33.2523 62.8704 33.2532 62.8657 33.2542C62.86 33.2552 62.8543 33.2562 62.8487 33.2571C62.8468 33.2581 62.8449 33.2581 62.843 33.2581H62.8421C62.8099 33.2639 62.7778 33.2678 62.7466 33.2698C62.7419 33.2698 62.7362 33.2698 62.7315 33.2708C62.7296 33.2708 62.7277 33.2708 62.7258 33.2708H62.7249C62.722 33.2708 62.7192 33.2708 62.7164 33.2708C62.706 33.2717 62.6965 33.2717 62.6861 33.2717Z" fill="#0A213D"/>
<path d="M79.5543 49.3384C79.4268 49.3384 79.3237 49.2323 79.3237 49.1009V48.0535C79.3237 47.9231 79.4268 47.817 79.5543 47.817C79.681 47.817 79.784 47.9231 79.784 48.0535V49.1009C79.784 49.2323 79.681 49.3384 79.5543 49.3384Z" fill="#B75742"/>
<path d="M81.9706 31.8186C81.586 31.2988 81.1542 31.0126 80.6883 30.9659C79.9691 30.8949 79.3964 31.4098 79.3908 31.4156L79.1035 31.0827C79.1328 31.0565 79.8255 30.4335 80.7298 30.523C81.3205 30.5824 81.8534 30.927 82.3137 31.548L81.9706 31.8186Z" fill="#50BFA5"/>
<path d="M78.2938 31.0866L77.1456 32.2683C76.8291 32.5944 76.8291 33.1229 77.1456 33.45C77.4632 33.776 77.9763 33.776 78.2929 33.45L79.4411 32.2673C79.7576 31.9412 79.7576 31.4127 79.4411 31.0866C79.1235 30.7596 78.6104 30.7596 78.2938 31.0866Z" fill="#B75742"/>
<path d="M74.3059 32.4844L78.5036 36.8071C79.6621 35.6138 79.6621 33.6777 78.5036 32.4844C77.3441 31.29 75.4644 31.29 74.3059 32.4844Z" fill="#F47458"/>
<path d="M82.0595 32.0998L85.8716 40.098L86.3772 39.843L82.565 31.8438L82.0595 32.0998ZM85.6665 40.7191L81.4566 31.8876L82.771 31.2228L86.9801 40.0552L85.6665 40.7191Z" fill="#B75742"/>
<path d="M83.3712 49.1505L83.9032 49.3384L86.6985 40.905L86.1665 40.7182L83.3712 49.1505ZM84.1839 49.9272L82.7994 49.4396L85.8858 40.1293L87.2712 40.616L84.1839 49.9272Z" fill="#B75742"/>
<path d="M78.6131 37.25C78.5242 37.3415 78.3816 37.3415 78.2927 37.25L73.8758 32.7004C73.7879 32.6099 73.7879 32.462 73.8758 32.3705C73.9646 32.2799 74.1073 32.2799 74.1962 32.3705L78.6131 36.921C78.7009 37.0115 78.7009 37.1595 78.6131 37.25Z" fill="#96D9C9"/>
<path d="M87.465 40.5429C87.465 41.1503 86.9868 41.6418 86.3971 41.6418C85.8084 41.6418 85.3302 41.1503 85.3302 40.5429C85.3302 39.9365 85.8084 39.444 86.3971 39.444C86.9868 39.444 87.465 39.9365 87.465 40.5429Z" fill="#F47458"/>
<path d="M77.8035 48.5422H84.804C85.6111 48.5422 86.2659 49.2167 86.2659 50.048H76.3406C76.3406 49.2167 76.9955 48.5422 77.8035 48.5422Z" fill="#50BFA5"/>
<path d="M62.2959 -5.72205e-06H82.9554C84.0468 -5.72205e-06 84.9314 0.914968 84.9314 2.04311V15.5175C84.9314 16.6457 84.0468 17.5597 82.9554 17.5597H69.0157C68.0093 19.0119 66.1836 21.6108 66.0229 21.6108C65.8717 21.6108 66.1628 19.156 66.3669 17.5597H62.2959C61.2044 17.5597 60.3199 16.6457 60.3199 15.5175V2.04311C60.3199 0.914968 61.2044 -5.72205e-06 62.2959 -5.72205e-06Z" fill="#61A3C5"/>
<path d="M82.6314 6.92734H77.484H72.588C72.554 6.92734 72.5266 6.95557 72.5266 6.98964V7.78683C72.5266 7.82187 72.554 7.8501 72.588 7.8501H77.484H77.7354H82.6314C82.6654 7.8501 82.6928 7.82187 82.6928 7.78683V6.98964C82.6928 6.95557 82.6654 6.92734 82.6314 6.92734Z" fill="white"/>
<path d="M62.6758 7.8501H71.0088C71.0542 7.8501 71.0901 7.81311 71.0901 7.76639V7.01105C71.0901 6.96433 71.0542 6.92734 71.0088 6.92734H62.6758C62.6305 6.92734 62.5946 6.96433 62.5946 7.01105V7.76639C62.5946 7.81311 62.6305 7.8501 62.6758 7.8501Z" fill="white"/>
<path d="M62.6399 4.83569H73.7625C73.8069 4.83569 73.8438 4.79871 73.8438 4.75296V3.99665C73.8438 3.94993 73.8069 3.91294 73.7625 3.91294H62.6399C62.5945 3.91294 62.5586 3.94993 62.5586 3.99665V4.75296C62.5586 4.79871 62.5945 4.83569 62.6399 4.83569Z" fill="white"/>
<path d="M75.834 4.83569H82.6116C82.656 4.83569 82.6928 4.79871 82.6928 4.75296V3.99665C82.6928 3.94993 82.656 3.91294 82.6116 3.91294H75.834C75.7896 3.91294 75.7537 3.94993 75.7537 3.99665V4.75296C75.7537 4.79871 75.7896 4.83569 75.834 4.83569Z" fill="white"/>
<path d="M62.5586 13.7536H82.6927V12.8308H62.5586V13.7536Z" fill="white"/>
<path d="M73.117 10.8364H82.6926V9.91366H73.117V10.8364Z" fill="white"/>
<path d="M62.5946 10.8364H72.1693V9.91366H62.5946V10.8364Z" fill="white"/>
</svg>
