<svg width="301" height="90" viewBox="0 0 301 90" fill="none" xmlns="http://www.w3.org/2000/svg">
<mask id="mask0_309_3" style="mask-type:alpha" maskUnits="userSpaceOnUse" x="0" y="0" width="301" height="90">
<path d="M286.493 4.02587C286.654 4.2468 286.892 4.55477 287.245 4.98101L287.258 4.99886C287.245 5.05019 282.806 21.1203 286.301 22.341C289.508 23.4613 289.778 11.6782 288.477 6.73733C289.187 7.8353 289.823 8.98905 290.349 10.1941C291.251 12.2517 291.867 14.9074 292.275 17.871C291.623 18.9378 287.642 25.6439 289.635 27.0231C291.253 28.1433 292.311 23.7336 292.603 20.8213C292.838 23.4546 292.938 26.2375 292.951 29.0003C290.796 29.527 284.293 31.3949 284.17 34.7334C284.034 38.4625 289.624 37.3623 292.949 30.4464C292.929 33.1936 292.829 35.8894 292.69 38.3643C291.141 39.7591 284.775 45.7645 285.801 49.2347C286.841 52.7495 290.833 48.7236 292.518 41.0468C292.206 45.4431 291.809 48.7817 291.632 49.835C291.574 50.1809 291.51 50.6295 291.441 51.1539C291.416 51.3481 291.389 51.5511 291.362 51.7632C291.362 51.7632 281.467 65.0995 284.301 68.1681C286.31 70.3461 289.318 61.4374 290.898 56.068C290.351 61.7677 289.872 69.2035 290.329 71.4977L290.365 71.491C290.014 76.6305 289.776 85.9766 292.608 86.4497C296.526 87.1014 292.608 76.6572 292.608 76.6572C292.608 76.6572 297.388 78.5653 297.832 76.6572C298.573 73.4615 291.876 68.9647 290.796 68.2618C290.809 65.4231 291.066 61.3994 291.389 57.7462C291.748 65.5816 293.706 67.9114 294.469 68.1681C295.415 68.4872 297.359 66.5724 296.692 60.5157C296.174 55.8091 293.293 52.7674 292.032 51.6427C292.119 50.9732 292.202 50.3974 292.277 49.9421C292.445 48.9312 292.815 45.8314 293.121 41.7096C293.886 48.1523 295.699 53.4235 297.332 50.1586C298.925 46.9763 294.766 40.8883 293.308 38.9088C293.476 36.0367 293.594 32.841 293.596 29.5984C294.81 32.7829 300.14 38.7705 300.805 35.3449C301.458 31.9751 294.844 28.4669 293.583 27.8331C293.545 25.057 293.411 22.2808 293.139 19.6765C294.618 22.3031 299.131 27.6814 299.666 24.778C300.278 21.464 292.713 16.3736 292.713 16.3736L292.701 16.387C292.295 13.921 291.726 11.7094 290.95 9.93082C290.445 8.78152 289.847 7.67908 289.18 6.6235C291.976 8.52041 296.252 10.2075 296.08 8.22807C295.895 6.08122 289.314 4.34499 287.216 3.84287C287.145 3.74021 287.096 3.69781 287.066 3.69781C286.314 2.77391 285.522 1.90134 284.717 1.08009H283.799C284.723 1.99284 285.636 2.97476 286.493 4.02587Z" fill="#327F6B"/>
<path d="M280.8 9.61832C282.888 10.7944 282.123 4.9207 281.429 1.08002H279.389C279.014 4.29137 278.923 8.56052 280.8 9.61832Z" fill="#327F6B"/>
<path d="M283.529 9.288C286.303 8.89969 283.81 4.71311 279.902 1.07998H275.81C277.872 4.8604 281.012 9.6406 283.529 9.288Z" fill="#327F6B"/>
<path d="M272.442 1.08011H268.247C266.095 3.76256 264.471 7.06763 265.933 10.0313C267.997 14.2156 270.782 6.70388 272.442 1.08011Z" fill="#327F6B"/>
<path d="M275.009 1.08015H274.314C274.493 2.32095 274.687 3.70011 274.888 5.19086C273.208 8.50486 264.631 25.9899 268.72 29.7413C273.239 33.8899 274.848 12.6513 274.848 12.6513L275.087 6.67044C275.772 11.83 276.526 18.121 277.122 24.6152C275.569 25.8939 269.139 31.54 271.815 35.2535C274.303 38.7058 276.504 29.1543 277.213 25.6127C277.595 29.9086 277.901 34.2738 278.066 38.438C276.423 39.2012 269.496 42.6469 271.398 45.6552C273.237 48.5675 277.062 42.1024 278.128 40.172C278.204 42.725 278.224 45.1865 278.169 47.4941C276.374 48.3354 268.345 52.2653 270.329 54.1377C272.558 56.2422 277.14 50.6072 277.14 50.6072C277.14 50.6072 273.549 65.0349 277.452 63.4883C281.358 61.9396 278.749 49.7413 278.874 49.4311L278.807 49.0384C278.883 47.1437 278.903 45.1263 278.876 43.0263C279.601 44.8853 281.003 47.9783 281.846 46.646C282.837 45.0794 279.809 41.8815 278.836 40.9196C278.762 38.0564 278.613 35.0727 278.41 32.0555C279.818 35.6172 282.764 40.7612 284.261 38.3488C285.937 35.6418 279.633 28.6433 278.017 26.9227C277.642 22.4906 277.178 18.101 276.702 14.0416C278.684 19.2302 285.145 30.2054 287.231 26.4607C289.405 22.5598 278.206 10.3393 275.946 7.93354C275.613 5.37384 275.294 3.05516 275.009 1.08015Z" fill="#3C8F7C"/>
<path d="M252.38 4.90749C254.073 9.42435 257.421 17.041 260.704 16.9517C265.136 16.8334 258.811 6.95167 252.288 2.34331C252.277 2.02418 252.264 1.72736 252.252 1.44617C251.19 1.65149 250.132 1.87244 249.112 2.21165C245.395 4.80037 239.097 10.2166 241.032 15.5748C243.31 21.8904 249.331 6.86018 251.132 2.07775C251.219 4.3161 251.333 7.61001 251.422 11.5868C248.764 15.6618 237.682 33.2807 241.661 37.8556C246.171 43.0375 250.623 19.6074 250.623 19.6074L251.471 14.0706C251.572 19.7167 251.61 26.4318 251.465 33.3276C249.293 34.767 241.98 40.0449 244.415 44.3743C246.635 48.3221 250.036 39.1767 251.429 34.9478C251.311 39.5963 251.108 44.2939 250.782 48.7684C248.564 49.5271 240.962 52.4216 242.647 55.8963C244.256 59.2148 248.95 53.2339 250.612 50.9353C250.38 53.707 250.097 56.3694 249.753 58.8577C247.32 59.6946 238.481 62.9349 240.396 65.2023C242.614 67.8245 248.418 62.1271 248.418 62.1271C248.418 62.1271 242.614 77.7308 247.153 76.4989C251.152 75.4099 250.561 64.4904 250.485 61.6852C250.858 59.4223 251.172 56.9787 251.438 54.41C252.047 56.5747 253.125 59.583 254.149 58.3087C255.381 56.7733 252.781 53.1625 251.688 51.7722C251.958 48.6925 252.161 45.4767 252.315 42.214C253.513 46.3136 255.999 51.7633 257.876 49.3799C260.005 46.6751 254.357 38.5876 252.54 36.1261C252.676 31.3169 252.717 26.5344 252.701 22.0801C254.493 28.3465 259.985 40.2859 262.672 36.5233C265.504 32.5621 255.216 18.2349 252.627 14.7513C252.563 10.9173 252.469 7.54753 252.38 4.90749Z" fill="#3C8F7C"/>
<path d="M256.952 12.3634C259.329 15.1463 261.786 6.01884 262.873 1.24088C262.909 4.51917 262.949 8.90437 262.973 13.9836C261.507 15.49 256.961 20.5023 257.595 24.2135C258.211 27.8176 261.717 20.3103 262.989 17.4204C262.996 20.0738 263 22.8745 262.998 25.7712C261.159 27.3691 256.722 31.6962 258.84 34.6376C260.554 37.0165 262.11 32.301 262.991 28.7058C262.982 32.0042 262.964 35.4008 262.931 38.8286C260.71 40.6072 254.535 46.1038 256.789 50.672C258.789 54.7247 261.565 46.1641 262.906 41.299C262.866 44.9523 262.808 48.6189 262.732 52.2163C261.516 54.2538 257.075 62.0623 259.505 63.745C260.82 64.6555 261.849 62.7408 262.525 60.2592C262.42 63.6133 262.295 66.8381 262.143 69.8575C260.525 70.9287 253.832 75.5929 254.611 78.9448C255.098 81.0403 260.344 78.9448 260.344 78.9448C260.344 78.9448 256.044 90.411 260.344 89.6925C263.393 89.1859 263.199 79.313 262.828 73.6111C262.891 72.5623 262.951 71.4821 263.009 70.3708C263.643 72.7586 264.721 74.4882 265.941 73.0264C268.088 70.46 264.114 64.3632 263.317 63.1938C263.429 60.0561 263.52 56.78 263.596 53.4325C265.245 56.6439 271.521 64.3141 272.239 60.4109C272.931 56.6617 265.526 51.154 263.67 49.8396C263.732 46.5077 263.777 43.1335 263.81 39.7815C265.002 42.3211 269.068 50.4488 272.101 50.0248C275.618 49.5316 269.396 42.0132 263.817 39.2057C263.848 35.9185 263.868 32.6558 263.877 29.4802C263.891 29.5628 263.902 29.6454 263.915 29.7346C264.25 31.8882 267.997 40.0225 269.668 37.3312C271.338 34.6376 263.915 27.0544 263.915 27.0544C263.915 27.0544 263.902 27.0745 263.884 27.1213C263.891 24.0528 263.888 21.0825 263.879 18.2684C265.06 21.2521 269.188 27.8734 270.51 25.6529C271.766 23.544 265.888 17.282 263.868 15.2289C263.853 11.1561 263.824 7.48727 263.795 4.42767C265.196 7.49619 269.443 15.9408 270.739 12.8812C272.123 9.62073 265.341 3.34978 263.77 1.955C263.766 1.65373 263.763 1.36361 263.759 1.08019H260.389C257.892 4.76911 254.982 10.0581 256.952 12.3634Z" fill="#327F6B"/>
<path d="M14.3554 4.02587C14.196 4.2468 13.9559 4.55477 13.6051 4.98101L13.5913 4.99886C13.6053 5.05019 18.043 21.1203 14.5478 22.341C11.3424 23.4613 11.0724 11.6782 12.3721 6.73733C11.6618 7.8353 11.026 8.98905 10.4989 10.1941C9.59817 12.2517 8.98179 14.9074 8.57541 17.871C9.22683 18.9378 13.2074 25.6439 11.2141 27.0231C9.59684 28.1433 8.53769 23.7336 8.24534 20.8213C8.01169 23.4546 7.91037 26.2375 7.89899 29.0003C10.0532 29.527 16.5565 31.3949 16.679 34.7334C16.816 38.4625 11.2255 37.3623 7.90078 30.4464C7.9193 33.1936 8.01995 35.8894 8.15921 38.3643C9.70797 39.7591 16.0742 45.7645 15.0479 49.2347C14.0086 52.7495 10.015 48.7236 8.33037 41.0468C8.64325 45.4431 9.04048 48.7817 9.21611 49.835C9.27391 50.1809 9.33886 50.6295 9.40804 51.1539C9.43348 51.3481 9.45937 51.5511 9.48593 51.7632C9.48593 51.7632 19.382 65.0995 16.5482 68.1681C14.5391 70.3461 11.5317 61.4374 9.95122 56.068C10.4984 61.7677 10.9787 69.2035 10.5198 71.4977L10.4841 71.491C10.8341 76.6305 11.0737 85.9766 8.24111 86.4497C4.32388 87.1014 8.24111 76.6572 8.24111 76.6572C8.24111 76.6572 3.4609 78.5653 3.01814 76.6572C2.27723 73.4615 8.97354 68.9647 10.0537 68.2618C10.0409 65.4231 9.78273 61.3994 9.46048 57.7462C9.10029 65.5816 7.14269 67.9114 6.37991 68.1681C5.43525 68.4872 3.49058 66.5724 4.15718 60.5157C4.67515 55.8091 7.5571 52.7674 8.8171 51.6427C8.73095 50.9732 8.64816 50.3974 8.57206 49.9421C8.40357 48.9312 8.03334 45.8314 7.72782 41.7096C6.96214 48.1523 5.1505 53.4235 3.5167 50.1586C1.92419 46.9763 6.08265 40.8883 7.54193 38.9088C7.37321 36.0367 7.25427 32.841 7.2536 29.5984C6.03846 32.7829 0.710391 38.7705 0.0453589 35.3449C-0.608292 31.9751 6.00566 28.4669 7.26543 27.8331C7.30359 25.057 7.43771 22.2808 7.70953 19.6765C6.23061 22.3031 1.71888 27.6814 1.1835 24.778C0.572475 21.464 8.13578 16.3736 8.13578 16.3736L8.14671 16.387C8.55421 13.921 9.12328 11.7094 9.90079 9.93082C10.4038 8.78152 11.0028 7.67908 11.67 6.6235C8.87422 8.52041 4.59637 10.2075 4.76843 8.22807C4.95522 6.08122 11.5352 4.34499 13.6334 3.84287C13.7049 3.74021 13.7531 3.69781 13.7834 3.69781C14.535 2.77391 15.3268 1.90134 16.1336 1.08009H17.0508C16.1253 1.99284 15.2141 2.97476 14.3554 4.02587Z" fill="#327F6B"/>
<path d="M17.3191 9.288C14.5458 8.89969 17.0383 4.71311 20.9469 1.07998H25.0404C22.9766 4.8604 19.838 9.6406 17.3191 9.288Z" fill="#327F6B"/>
<path d="M28.4059 1.08011H32.602C34.7538 3.76256 36.3793 7.06763 34.9167 10.0313C32.8518 14.2156 30.068 6.70388 28.4059 1.08011Z" fill="#327F6B"/>
<path d="M25.8391 1.08015H26.5343C26.356 2.32095 26.1627 3.70012 25.9605 5.19086C27.6403 8.50486 36.2177 25.9899 32.1302 29.7413C27.6102 33.8899 26.0003 12.6513 26.0003 12.6513L25.7621 6.67044C25.0777 11.83 24.3216 18.121 23.726 24.6152C25.281 25.8939 31.7102 31.54 29.0344 35.2535C26.545 38.7058 24.3455 29.1543 23.6356 25.6127C23.254 29.9086 22.9471 34.2738 22.782 38.438C24.4249 39.2013 31.3524 42.6469 29.452 45.6552C27.6115 48.5675 23.7882 42.1024 22.7213 40.172C22.6441 42.725 22.6256 45.1865 22.6811 47.4941C24.4751 48.3354 32.5037 52.2653 30.5202 54.1377C28.2913 56.2422 23.7092 50.6072 23.7092 50.6072C23.7092 50.6072 27.3006 65.0349 23.3959 63.4883C19.4914 61.9396 22.0995 49.7413 21.9755 49.4311L22.0422 49.0384C21.9663 47.1437 21.946 45.1263 21.9721 43.0263C21.2473 44.8853 19.8471 47.9783 19.0036 46.646C18.0109 45.0794 21.0411 41.8815 22.013 40.9196C22.0868 38.0564 22.237 35.0727 22.4403 32.0555C21.0304 35.6172 18.0844 40.7612 16.5887 38.3488C14.911 35.6418 21.2165 28.6433 22.8322 26.9227C23.208 22.4906 23.6702 18.101 24.1466 14.0416C22.164 19.2302 15.7036 30.2055 13.6166 26.4607C11.4432 22.5598 22.6416 10.3393 24.9027 7.93355C25.2352 5.37384 25.5557 3.05516 25.8391 1.08015Z" fill="#3C8F7C"/>
<path d="M43.8971 12.3634C41.5198 15.1463 39.0641 6.01884 37.9775 1.24088C37.9406 4.51917 37.9005 8.90437 37.8752 13.9836C39.3426 15.49 43.8873 20.5023 43.2535 24.2135C42.6385 27.8176 39.133 20.3103 37.8614 17.4204C37.8527 20.0738 37.8489 22.8745 37.852 25.7712C39.6894 27.3691 44.1279 31.6962 42.0098 34.6376C40.295 37.0165 38.7384 32.301 37.8578 28.7058C37.867 32.0042 37.886 35.4008 37.9179 38.8286C40.1388 40.6072 46.3131 46.1038 44.0594 50.672C42.0594 54.7247 39.2839 46.1641 37.9433 41.299C37.9839 44.9523 38.0404 48.6189 38.116 52.2163C39.3343 54.2538 43.7746 62.0623 41.3439 63.745C40.0301 64.6555 39.0009 62.7408 38.3238 60.2592C38.4287 63.6133 38.5543 66.8381 38.7052 69.8575C40.3252 70.9287 47.0159 75.5929 46.2381 78.9448C45.7523 81.0403 40.5057 78.9448 40.5057 78.9448C40.5057 78.9448 44.805 90.411 40.5057 89.6925C37.4575 89.1859 37.6512 79.313 38.0219 73.6111C37.9583 72.5623 37.898 71.4821 37.8413 70.3708C37.206 72.7586 36.1276 74.4882 34.9078 73.0264C32.7621 70.46 36.7351 64.3632 37.5334 63.1938C37.4207 60.0561 37.3285 56.78 37.2537 53.4325C35.6043 56.6439 29.3298 64.3141 28.6103 60.4109C27.9187 56.6617 35.3227 51.154 37.1801 49.8396C37.1183 46.5077 37.0719 43.1335 37.0384 39.7815C35.8473 42.3211 31.7822 50.4488 28.7491 50.0248C25.2309 49.5316 31.4537 42.0132 37.0328 39.2057C37.0011 35.9185 36.9815 32.6558 36.9712 29.4802C36.9594 29.5628 36.9487 29.6454 36.9348 29.7346C36.6003 31.8882 32.852 40.0225 31.1821 37.3312C29.5119 34.6376 36.9348 27.0544 36.9348 27.0544C36.9348 27.0544 36.9473 27.0745 36.965 27.1213C36.9594 24.0528 36.9616 21.0825 36.9694 18.2684C35.7887 21.2521 31.6608 27.8734 30.339 25.6529C29.0839 23.544 34.962 17.282 36.9804 15.2289C36.9978 11.1561 37.0257 7.48727 37.0549 4.42767C35.6541 7.49619 31.4075 15.9408 30.1093 12.8812C28.7259 9.62073 35.5081 3.34978 37.0799 1.955C37.0832 1.65373 37.0864 1.36361 37.0897 1.08019H40.4604C42.9576 4.76911 45.8672 10.0581 43.8971 12.3634Z" fill="#327F6B"/>
<path d="M293.862 3.23138H8.18646V-4.72069e-05H293.862V3.23138Z" fill="#13375B"/>
<path d="M169.572 31.5153V29.4889H133.83V31.5153H94.1911C94.1911 36.4718 98.2081 40.4887 103.165 40.4887H198.882C203.839 40.4887 207.856 36.4718 207.856 31.5153H169.572Z" fill="#F7CC7F"/>
<path d="M207.858 26.0052V1.07993H206.508V26.0052H94.8674V1.07993H93.5172V26.0052H89.5982V34.9787H212.449V26.0052H207.858Z" fill="#183658"/>
</mask>
<g mask="url(#mask0_309_3)">
<path d="M0 0H302.658V76.162C302.658 84.4462 295.942 91.162 287.658 91.162H15C6.7157 91.162 0 84.4463 0 76.162V0Z" fill="#0A292F"/>
</g>
</svg>
