<svg width="289" height="156" viewBox="0 0 289 156" fill="none" xmlns="http://www.w3.org/2000/svg">
<path d="M232.65 47.4442C232.796 43.4087 229.813 39.9404 225.8 39.4823C221.469 38.9878 217.585 42.1663 217.218 46.5099C216.956 49.6196 217.255 54.974 217.631 60.6629L233.438 58.7596L232.65 47.4442Z" fill="#13375B"/>
<path d="M233.438 58.7595L217.631 60.6629C218.129 68.1936 218.762 72.5098 218.41 76.8049C218.014 81.6483 221.833 85.7987 226.693 85.8074C231.18 85.8146 234.865 82.2664 235.027 77.7835L233.438 58.7595Z" fill="#FFB27E"/>
<path d="M192.494 55.7772L228.809 73.9451C232.835 76.1806 233.969 80.6073 231.874 83.9641C229.755 87.3594 225.21 88.2601 221.955 85.9309L189.127 62.2856L192.494 55.7772Z" fill="#FFB27E"/>
<path d="M186.819 64.4336C190.546 65.6934 194.589 63.6929 195.849 59.965C197.108 56.2376 195.108 52.1945 191.38 50.9352C187.653 49.6754 183.61 51.6758 182.35 55.4037C181.09 59.1311 183.091 63.1738 186.819 64.4336Z" fill="#FFB27E"/>
<path d="M187.48 51.1495C187.48 51.1495 187.12 48.3622 190.743 49.2841C194.367 50.2055 197.607 53.0149 195.849 59.965L187.48 51.1495Z" fill="#FFB27E"/>
<path d="M193.029 37.6578L185.354 35.8664C184.926 35.7669 184.524 36.063 184.456 36.5273L181.507 56.4669C181.438 56.9312 181.729 57.3887 182.156 57.4882L189.832 59.2791C190.259 59.3791 190.661 59.083 190.729 58.6187L193.678 38.6796C193.747 38.2148 193.456 37.7577 193.029 37.6578Z" fill="#3B3261"/>
<path d="M193.771 37.8169L186.096 36.0255C185.668 35.926 185.266 36.2216 185.198 36.6864L182.249 56.6255C182.18 57.0903 182.471 57.5474 182.898 57.6469L190.574 59.4387C191.001 59.5382 191.403 59.2421 191.471 58.7778L194.42 38.8382C194.489 38.3735 194.198 37.9164 193.771 37.8169Z" fill="#2D2445"/>
<path d="M193.349 39.7548L186.604 38.1807L184.201 54.4318L190.946 56.0054L193.349 39.7548Z" fill="#E0DEDC"/>
<path d="M186.604 38.1807L190.946 56.0054L193.349 39.7548L186.604 38.1807Z" fill="white"/>
<path d="M192.763 50.0469C192.763 50.0469 191.282 49.3399 189.624 49.1351C188.894 49.0448 188.19 49.4432 187.908 50.1224C187.649 50.7414 187.799 51.4557 188.283 51.9195L191.02 54.5409C191.02 54.5409 190.581 58.4246 192.413 60.2568L194.062 54.0887L192.763 50.0469Z" fill="#FFB27E"/>
<path d="M238.252 72.3988L221.51 76.0796C221.51 76.0796 217.047 85.9982 209.626 130.272C209.512 130.955 209.399 131.632 209.288 132.303C217.287 132.414 225.288 132.637 233.287 132.907L243.941 80.7058L238.252 72.3988Z" fill="#0A213D"/>
<path d="M257.853 107.86C257.288 86.437 246.432 74.8573 246.432 74.8573L225.823 75.4999L231.315 132.84C240.197 133.131 249.08 133.483 257.963 133.807C258.037 123.654 258.025 114.366 257.853 107.86Z" fill="#0A213D"/>
<path d="M222.111 94.2653L228.436 99.4966L231.315 132.84" stroke="#071521" stroke-width="1.51951" stroke-miterlimit="10" stroke-linecap="round" stroke-linejoin="round"/>
<path d="M227.265 37.9082L221.421 40.3749C220.483 40.7767 219.892 41.7192 219.94 42.7397L221.51 76.0796L248.126 75.7552L249.697 41.2919C249.744 39.454 248.276 37.2526 246.442 37.1108L235.615 36.9152L227.265 37.9082Z" fill="#13375B"/>
<path d="M220.751 50.0469C220.751 50.0469 218.023 53.5114 220.766 60.2856" stroke="#232338" stroke-width="1.51951" stroke-miterlimit="10" stroke-linecap="round" stroke-linejoin="round"/>
<path d="M260.086 52.4732L246.099 60.0775C249.342 66.8921 252.928 74.2037 254.186 78.3247C255.605 82.973 260.688 85.42 265.207 83.6334C269.379 81.9848 271.494 77.3264 269.99 73.1001L260.086 52.4732Z" fill="#FFB27E"/>
<path d="M255.177 42.2475C253.823 38.4431 249.769 36.3211 245.871 37.3766C241.664 38.5157 241.772 48.3007 243.035 52.4732C243.938 55.4604 243.649 54.9293 246.099 60.0775L260.087 52.4732L255.177 42.2475Z" fill="#13375B"/>
<path d="M245.962 60.0775L242.898 52.4732" stroke="#232338" stroke-width="1.51951" stroke-miterlimit="10" stroke-linecap="round" stroke-linejoin="round"/>
<path d="M225.758 69.4712L263.003 70.2792C266.955 70.4849 269.934 73.9503 269.543 77.8883C269.149 81.8709 265.473 84.6928 261.523 84.0468L226.116 77.9334L225.758 69.4712Z" fill="#FFB27E"/>
<path d="M226.376 80.2011C230.276 79.6787 233.013 76.0935 232.49 72.1936C231.968 68.2936 228.383 65.5559 224.483 66.0788C220.583 66.6017 217.845 70.1869 218.368 74.0864C218.891 77.9863 222.476 80.7241 226.376 80.2011Z" fill="#FFB27E"/>
<path d="M221.082 68C221.082 68 219.523 65.6607 223.18 64.8815C226.836 64.1019 230.986 65.1843 232.49 72.1936L221.082 68Z" fill="#FFB27E"/>
<path d="M232.331 27.8565C233.407 32.4096 237.971 35.2281 242.524 34.152C247.077 33.0753 249.896 28.5116 248.819 23.9585C247.743 19.4053 243.179 16.5868 238.626 17.6634C234.073 18.7396 231.254 23.3033 232.331 27.8565Z" fill="#232338"/>
<path d="M214.285 4.97725C214.285 4.97725 227.97 -3.08124 237.346 5.30939C243.057 10.4201 240.889 18.7775 233.229 23.9589C225.932 28.8942 223.234 5.84867 223.234 5.84867L214.285 4.97725Z" fill="#232338"/>
<path d="M221.785 2.88796C221.785 2.88796 208.471 3.60509 209.404 13.6765C210.023 20.3666 220.444 20.1475 220.444 20.1475L221.785 2.88796Z" fill="#232338"/>
<path d="M219.41 21.1375C219.984 22.9818 218.953 24.9423 217.109 25.5162C215.265 26.0901 213.304 25.0601 212.731 23.2154C212.156 21.3711 213.187 19.4106 215.031 18.8367C216.876 18.2628 218.836 19.2928 219.41 21.1375Z" fill="#FFB27E"/>
<path d="M223.863 31.1345L226.405 39.4818C227.292 42.4147 228.861 43.6183 231.741 42.7228C234.199 41.9576 236.827 39.7885 236.372 37.2541L231.739 24.3112L223.863 31.1345Z" fill="#FFB27E"/>
<path d="M227.456 37.6458L224.494 38.932C224.494 38.932 219.889 46.6291 228.682 46.9141C239.29 47.2582 240.156 41.131 241.849 37.0282L236.428 36.5096L227.456 37.6458Z" fill="#FFB27E"/>
<path d="M225.206 35.5516C225.206 35.5516 232.569 34.4716 232.569 24.6405L223.585 30.2842L225.206 35.5516Z" fill="#232338"/>
<path d="M226.765 31.8944C221.762 33.0931 216.696 30.128 215.579 26.0747L213.004 16.4969C211.605 11.417 214.488 6.14382 219.519 4.57836C224.669 2.97636 231.046 5.57185 232.648 10.722L234.636 18.4479C236.173 24.4232 232.657 30.0617 226.765 31.8944Z" fill="#FFB27E"/>
<path d="M226.092 9.36219C226.128 15.4943 231.951 18.7636 231.951 18.7636L236.096 10.3629C236.096 10.3629 226.063 4.32454 226.092 9.36219Z" fill="#232338"/>
<path d="M227.79 10.448C227.79 10.448 215.611 9.33823 211.72 15.1685C211.72 15.1685 211.385 3.25182 224.452 2.55537C237.519 1.8594 233.727 11.0883 233.727 11.0883L227.79 10.448Z" fill="#232338"/>
<path d="M220.095 22.0378L220.305 23.9017L221.553 23.6547" stroke="#232338" stroke-width="1.46843" stroke-miterlimit="10" stroke-linecap="round" stroke-linejoin="round"/>
<path d="M217.955 20.9626C218.086 21.4476 217.8 21.947 217.315 22.0787C216.83 22.2099 216.33 21.9234 216.199 21.4384C216.067 20.9539 216.354 20.4541 216.839 20.3224C217.323 20.1912 217.823 20.4771 217.955 20.9626Z" fill="#232338"/>
<path d="M225.33 18.9621C225.461 19.4466 225.175 19.9465 224.69 20.0782C224.205 20.2094 223.706 19.9229 223.574 19.4384C223.443 18.9534 223.729 18.4536 224.214 18.3219C224.699 18.1907 225.198 18.4771 225.33 18.9621Z" fill="#232338"/>
<path d="M220.853 16.7074L226.231 16.1595C226.231 16.1595 225.386 14.7146 223.194 14.9593C221.003 15.2039 220.853 16.7074 220.853 16.7074Z" fill="#232338"/>
<path d="M218.137 17.5418L214.35 18.7636C214.35 18.7636 214.454 17.3015 216.002 16.8208C217.551 16.3407 218.137 17.5418 218.137 17.5418Z" fill="#232338"/>
<path d="M220.038 25.9113L225.524 24.6405C225.524 24.6405 225.091 27.2504 222.191 27.3004C220.179 27.335 220.038 25.9113 220.038 25.9113Z" fill="white"/>
<path d="M237.215 17.4962C237.339 19.2804 235.994 20.8271 234.21 20.9511C232.425 21.0756 230.879 19.7298 230.755 17.9456C230.63 16.1615 231.976 14.6147 233.76 14.4907C235.544 14.3667 237.091 15.7121 237.215 17.4962Z" fill="#FFB27E"/>
<path d="M232.922 18.7598C232.922 18.7598 232.76 16.4181 235.024 16.631" stroke="#232338" stroke-width="1.30803" stroke-miterlimit="10" stroke-linecap="round" stroke-linejoin="round"/>
<path d="M53.472 107.188V131.637L75.5524 132.204V114.688L80.3185 113.857L83.5225 131.637L103.497 132.907L95.7193 96.2037L53.472 107.188Z" fill="#0A213D"/>
<path d="M35.4032 66.9367L27.4346 120.617L36.053 121.549L50.3133 66.4782L35.4032 66.9367Z" fill="#FFB27E"/>
<path d="M27.4346 120.617C27.4346 120.617 13.168 123.903 13.7374 127.706H31.1331C31.1331 127.706 37.7199 127.203 36.053 121.549L27.4346 120.617Z" fill="#FFB27E"/>
<path d="M56.5929 43.401C56.5929 43.401 38.8773 41.9456 29.0466 68.3974L50.9054 76.2536L56.5929 43.401Z" fill="#13375B"/>
<path d="M119.212 24.5122L111.442 50.4848L120.511 60.7451C120.511 60.7451 126.155 37.8405 126.333 24.5848L119.212 24.5122Z" fill="#FFB27E"/>
<path d="M118.909 25.2538C118.909 25.2538 125.867 26.1752 126.843 24.4367C128.548 21.3976 127.647 13.1478 127.647 13.1478C127.647 13.1478 115.438 13.4174 115.6 13.5337C115.763 13.65 118.909 25.2538 118.909 25.2538Z" fill="#FFB27E"/>
<path d="M118.909 25.2538C118.78 24.6429 114.099 19.3721 112.415 17.3674C112.008 16.8833 112.147 16.1186 112.704 15.7596C113.068 15.526 113.711 15.3237 114.232 15.7692L118.721 19.2438L118.909 25.2538Z" fill="#FFB27E"/>
<path d="M116.425 18.5199L114.594 8.70179C114.46 8.05388 114.899 7.393 115.552 7.2637C116.115 7.15171 116.649 7.47999 116.799 8.03033L118.725 15.1141L116.425 18.5199Z" fill="#FFB27E"/>
<path d="M118.707 13.7083L118.575 6.2246C118.552 5.57429 119.065 5.00232 119.705 4.96435C120.261 4.93118 120.733 5.31378 120.821 5.867L121.998 14.1019L118.707 13.7083Z" fill="#FFB27E"/>
<path d="M122.141 14.5484L122.713 6.91284C122.763 6.20581 123.368 5.64297 124.059 5.66172C124.708 5.6795 125.205 6.20726 125.197 6.87103L125.118 13.8942L122.141 14.5484Z" fill="#FFB27E"/>
<path d="M127.648 13.1478L128.538 8.25293C128.557 7.71172 128.161 7.27241 127.633 7.24837C127.128 7.22482 126.663 7.59011 126.547 8.10104L125.117 13.8943L127.648 13.1478Z" fill="#FFB27E"/>
<path d="M116.646 17.638C116.646 17.638 120.187 15.762 122.549 20.5358" stroke="#28262C" stroke-width="1.57747" stroke-miterlimit="10" stroke-linecap="round" stroke-linejoin="round"/>
<path d="M121.074 54.0122C121.074 54.0122 122.101 64.1058 116.411 64.9993C110.72 65.8923 98.1302 58.0376 98.1302 58.0376L92.3048 38.3196L114.156 50.4242L121.074 54.0122Z" fill="#FFB27E"/>
<path d="M77.0823 39.7505C77.0823 39.7505 89.1806 31.7242 107.993 44.3085L96.9545 61.7699L85.968 60.7538L77.0823 39.7505Z" fill="#13375B"/>
<path d="M48.5156 72.7017L51.2721 107.917L99.9821 100.978L92.4452 49.7071L77.0823 39.7505L56.5929 43.401L48.5156 72.7017Z" fill="#13375B"/>
<path d="M48.7329 75.4725L47.4385 63.6222" stroke="#232338" stroke-width="1.51951" stroke-miterlimit="10" stroke-linecap="round" stroke-linejoin="round"/>
<path d="M94.1808 61.5132L92.3048 51.2831" stroke="#232338" stroke-width="1.51951" stroke-miterlimit="10" stroke-linecap="round" stroke-linejoin="round"/>
<path d="M60.3579 40.7296L58.1022 26.9851L70.7725 24.9053L73.0282 38.6499L77.0824 39.7505C77.0824 39.7505 77.1329 45.5923 67.7978 47.2539C58.4632 48.9155 56.593 43.401 56.593 43.401L60.3579 40.7296Z" fill="#FFB27E"/>
<path d="M71.4857 29.2498C71.4857 29.2498 71.2737 34.6489 66.6509 36.0241C61.3311 37.6063 58.837 31.4623 58.837 31.4623C58.837 31.4623 61.7132 33.965 65.5108 33.3464C69.7462 32.6567 71.4857 29.2498 71.4857 29.2498Z" fill="#232338"/>
<path d="M56.3112 4.7687C56.3112 4.7687 58.5663 -0.816879 66.15 0.102114C71.5024 0.750504 73.2909 5.11524 74.2354 7.10174C74.5968 7.8626 74.7569 8.70133 74.6978 9.5415L73.6581 18.9016L64.7768 6.97775L57.4618 8.29567L56.3112 4.7687Z" fill="#232338"/>
<path d="M73.6582 18.9016C73.6582 18.9016 74.4672 17.277 76.5243 17.8321C78.5815 18.3868 78.1638 23.2908 75.2511 24.2002C75.2511 24.2002 74.2081 24.5386 73.2997 23.8916C73.2997 23.8916 73.677 20.2627 73.6582 18.9016Z" fill="#FFB27E"/>
<path d="M76.3003 19.5697C76.3003 19.5697 74.5844 19.1808 73.6486 21.7432" stroke="#1A181B" stroke-width="0.930455" stroke-miterlimit="10" stroke-linecap="round" stroke-linejoin="round"/>
<path d="M53.3639 20.9203C53.3639 20.9203 52.2508 19.487 50.3431 20.4363C48.4354 21.3851 49.811 26.1108 52.8458 26.4285C52.8458 26.4285 53.9349 26.5549 54.6982 25.7422C54.6982 25.7422 53.6134 22.2584 53.3639 20.9203Z" fill="#FFB27E"/>
<path d="M50.9055 22.0955C50.9055 22.0955 52.5109 21.3764 53.9326 23.7042" stroke="#1A181B" stroke-width="0.930455" stroke-miterlimit="10" stroke-linecap="round" stroke-linejoin="round"/>
<path d="M73.4019 14.3133C73.6917 17.2155 74.0104 23.3163 72.5848 27.0975C71.2457 30.6486 69.1323 32.3885 65.5107 32.8581C61.8885 33.3277 58.5668 32.5538 55.9612 28.3775C53.3556 24.2017 52.687 16.4282 52.687 16.4282C52.687 16.4282 51.6556 6.05923 61.9034 5.04026C72.6968 3.9665 73.4019 14.3133 73.4019 14.3133Z" fill="#FFB27E"/>
<path d="M53.364 20.9203L50.6176 11.9957C50.4397 11.2636 50.4676 10.4975 50.7127 9.78567C51.327 8.0068 53.2111 4.01601 56.3113 4.7687L57.462 8.29567C57.462 8.29567 53.7345 9.44201 52.7036 14.57L53.364 20.9203Z" fill="#232338"/>
<path d="M55.1188 7.8131C55.1188 7.8131 61.9699 14.6089 74.0754 12.6638C74.0754 12.6638 72.0461 3.99245 66.3553 3.93092C60.664 3.8694 56.2074 6.82249 56.2074 6.82249L55.1188 7.8131Z" fill="#232338"/>
<path d="M57.4619 8.2957C57.4619 8.2957 56.2536 12.4725 52.629 15.849C52.629 15.849 50.9867 7.66941 57.4619 8.2957Z" fill="#232338"/>
<path d="M66.9229 18.717C67.0013 19.2169 67.4704 19.5586 67.9707 19.4803C68.4706 19.4019 68.8123 18.9328 68.7335 18.4325C68.6552 17.9326 68.1861 17.5909 67.6862 17.6697C67.1858 17.748 66.8441 18.2171 66.9229 18.717Z" fill="#232338"/>
<path d="M58.4342 20.0508C58.5125 20.5507 58.9816 20.8924 59.4815 20.814C59.9814 20.7352 60.3231 20.2666 60.2448 19.7662C60.1664 19.2664 59.6973 18.9246 59.1969 19.0035C58.6971 19.0818 58.3553 19.5509 58.4342 20.0508Z" fill="#232338"/>
<path d="M60.452 15.5371L54.6117 18.0663C54.6117 18.0663 54.6203 16.3153 57.013 15.3035C59.4061 14.2917 60.452 15.5371 60.452 15.5371Z" fill="#232338"/>
<path d="M64.7321 14.943L71.0665 15.5592C71.0665 15.5592 70.5214 13.8952 67.9336 13.6659C65.3458 13.4367 64.7321 14.943 64.7321 14.943Z" fill="#232338"/>
<path d="M63.1426 21.5365L63.4065 22.8246C63.4733 23.1495 63.8116 23.3341 64.1063 23.2067L64.7624 22.9231" stroke="#232338" stroke-width="1.36761" stroke-miterlimit="10" stroke-linecap="round" stroke-linejoin="round"/>
<path d="M61.2355 25.7767L67.8285 24.2886C67.8285 24.2886 68.3706 26.851 65.1258 27.4777C61.8815 28.105 61.2355 25.7767 61.2355 25.7767Z" fill="white"/>
<path d="M288.285 134.328H0V127.129H288.285V134.328Z" fill="#61A3C5"/>
<path d="M126.872 113.446H112.482C108.704 113.446 105.641 116.509 105.641 120.287C105.641 124.065 108.704 127.129 112.482 127.129H129.411L126.872 113.446Z" fill="#FFB27E"/>
<path d="M107.224 115.912L116.154 101.287L129.411 103.077L127.444 120.287L107.224 115.912Z" fill="#FFB27E"/>
<path d="M123.313 113.446H112.482" stroke="#232338" stroke-width="1.51951" stroke-miterlimit="10" stroke-linecap="round" stroke-linejoin="round"/>
<path d="M171.915 113.446H186.305C190.084 113.446 193.147 116.509 193.147 120.287C193.147 124.065 190.084 127.129 186.305 127.129H169.377L171.915 113.446Z" fill="#FFB27E"/>
<path d="M191.412 115.735L180.165 98.4075L169.377 103.077L171.344 120.287L191.412 115.735Z" fill="#FFB27E"/>
<path d="M172.731 113.446H186.305" stroke="#232338" stroke-width="1.51951" stroke-miterlimit="10" stroke-linecap="round" stroke-linejoin="round"/>
<path d="M148.186 75.6312C148.186 75.6312 133.86 75.6312 123.313 86.0025V115.069C123.313 115.069 173.784 115.837 173.784 115.069C173.784 114.301 173.797 84.0819 173.797 84.0819C173.797 84.0819 163.472 75.6312 148.186 75.6312Z" fill="#13375B"/>
<path d="M125.447 84.0819C125.447 84.0819 117.66 90.3682 109.451 104.21C109.451 104.21 111.222 112.22 126.512 113.446L125.447 84.0819Z" fill="#13375B"/>
<path d="M173.797 84.0819C173.797 84.0819 181.584 90.3682 189.793 104.21C189.793 104.21 188.022 112.22 172.731 113.446L173.797 84.0819Z" fill="#13375B"/>
<path d="M171.493 127.129H125.603C124.338 127.129 123.313 126.103 123.313 124.839V95.8673C123.313 94.6027 124.338 93.577 125.603 93.577H171.493C172.759 93.577 173.784 94.6027 173.784 95.8673V124.839C173.784 126.103 172.759 127.129 171.493 127.129Z" fill="#AAD1E2"/>
<path d="M151.641 110.353C151.641 112.061 150.257 113.446 148.549 113.446C146.84 113.446 145.455 112.061 145.455 110.353C145.455 108.645 146.84 107.26 148.549 107.26C150.257 107.26 151.641 108.645 151.641 110.353Z" fill="#D3E5F4"/>
<path d="M153.378 80.5996H143.478V69.5092H153.378V80.5996Z" fill="#FFB27E"/>
<path d="M142.994 68.9098C142.994 68.9098 143.867 74.4195 148.018 74.5194C153.468 74.6507 153.378 69.1545 153.378 69.1545C153.378 69.1545 152.634 70.7714 148.421 70.7771C143.722 70.7839 142.994 68.9098 142.994 68.9098Z" fill="#232338"/>
<path d="M162.217 50.901C162.217 58.7009 156.053 65.0243 148.448 65.0243C140.845 65.0243 134.68 58.7009 134.68 50.901C134.68 43.1011 140.845 36.7782 148.448 36.7782C156.053 36.7782 162.217 43.1011 162.217 50.901Z" fill="#232338"/>
<path d="M160.349 56.054C160.349 56.054 161.34 54.477 163.385 55.2528C165.43 56.0285 164.505 60.9941 161.438 61.6266C161.438 61.6266 160.338 61.8665 159.476 61.1138C159.476 61.1138 160.23 57.446 160.349 56.054Z" fill="#FFB27E"/>
<path d="M162.979 57.0047C162.979 57.0047 161.266 56.4333 160.051 58.9552" stroke="#1A181B" stroke-width="1.0338" stroke-miterlimit="10" stroke-linecap="round" stroke-linejoin="round"/>
<path d="M136.869 56.054C136.869 56.054 135.878 54.477 133.833 55.2528C131.788 56.0285 132.713 60.9941 135.781 61.6266C135.781 61.6266 136.88 61.8665 137.742 61.1138C137.742 61.1138 136.988 57.446 136.869 56.054Z" fill="#FFB27E"/>
<path d="M134.239 57.0047C134.239 57.0047 135.951 56.4333 137.167 58.9552" stroke="#1A181B" stroke-width="1.0338" stroke-miterlimit="10" stroke-linecap="round" stroke-linejoin="round"/>
<path d="M160.542 51.7748C160.543 54.9572 160.214 61.6151 158.151 65.5664C156.214 69.2765 153.011 71.2736 148.811 71.3923C144.612 71.5111 141.483 69.9759 138.976 65.1608C136.469 60.3452 136.589 51.8339 136.589 51.8339C136.589 51.8339 136.589 40.4657 148.435 40.4657C160.913 40.4657 160.542 51.7748 160.542 51.7748Z" fill="#FFB27E"/>
<path d="M136.869 56.054C136.869 56.054 139.398 50.5059 137.167 46.5117C137.167 46.5117 135.147 52.937 136.869 56.054Z" fill="#232338"/>
<path d="M160.312 56.054C160.312 56.054 157.783 50.5059 160.014 46.5117C160.014 46.5117 162.034 52.937 160.312 56.054Z" fill="#232338"/>
<path d="M154.586 41.104C154.586 41.104 153.42 47.8292 160.375 50.8861C160.375 50.8861 160.089 43.0146 154.586 41.104Z" fill="#232338"/>
<path d="M156.152 41.9446C156.152 41.9446 155.111 48.6549 145.988 47.1592C138.887 45.995 136.72 51.423 136.72 51.423C136.72 51.423 135.46 41.3332 146.924 39.2698C146.924 39.2698 152.789 39.2386 156.152 41.9446Z" fill="#232338"/>
<path d="M144.355 57.2503C144.355 57.8483 143.87 58.3332 143.272 58.3332C142.674 58.3332 142.19 57.8483 142.19 57.2503C142.19 56.6524 142.674 56.1674 143.272 56.1674C143.87 56.1674 144.355 56.6524 144.355 57.2503Z" fill="#232338"/>
<path d="M154.382 57.2503C154.382 57.8483 153.897 58.3332 153.299 58.3332C152.701 58.3332 152.216 57.8483 152.216 57.2503C152.216 56.6524 152.701 56.1674 153.299 56.1674C153.897 56.1674 154.382 56.6524 154.382 57.2503Z" fill="#232338"/>
<path d="M147.742 59.6094L147.744 61.0705C147.744 61.4392 148.072 61.7156 148.421 61.6425L149.198 61.4791" stroke="#232338" stroke-width="1.51951" stroke-miterlimit="10" stroke-linecap="round" stroke-linejoin="round"/>
<path d="M146.49 53.8945L139.927 54.6837C139.927 54.6837 140.454 52.9428 143.136 52.6438C145.817 52.3449 146.49 53.8945 146.49 53.8945Z" fill="#232338"/>
<path d="M150.274 53.8945L156.838 54.6837C156.838 54.6837 156.311 52.9428 153.629 52.6438C150.947 52.3449 150.274 53.8945 150.274 53.8945Z" fill="#232338"/>
<path d="M146.685 57.2176C146.685 59.691 144.68 61.6958 142.207 61.6958C139.734 61.6958 137.729 59.691 137.729 57.2176C137.729 54.7447 139.734 52.7399 142.207 52.7399C144.68 52.7399 146.685 54.7447 146.685 57.2176Z" stroke="#0A213D" stroke-width="1.66632" stroke-miterlimit="10"/>
<path d="M159.368 57.2176C159.368 59.691 157.363 61.6958 154.89 61.6958C152.417 61.6958 150.412 59.691 150.412 57.2176C150.412 54.7447 152.417 52.7399 154.89 52.7399C157.363 52.7399 159.368 54.7447 159.368 57.2176Z" stroke="#0A213D" stroke-width="1.66632" stroke-miterlimit="10"/>
<path d="M146.685 57.5901C146.685 57.5901 148.266 55.1585 150.412 57.5901" stroke="#0A213D" stroke-width="1.66632" stroke-miterlimit="10"/>
<path d="M144.701 63.6223C144.701 63.6223 145.36 64.4749 148.286 64.4749C150.947 64.4749 152.155 63.6223 152.155 63.6223" stroke="#232338" stroke-width="1.51951" stroke-miterlimit="10" stroke-linecap="round" stroke-linejoin="round"/>
<path d="M148.186 75.6312C148.186 75.6312 142.138 75.3029 134.239 78.7962C134.239 78.7962 134.073 85.6137 147.707 85.6137C161.341 85.6137 162.555 78.1425 162.555 78.1425C162.555 78.1425 153.897 75.0544 148.186 75.6312Z" fill="#FFB27E"/>
<path d="M162.366 32.587C162.366 37.5506 158.342 41.5746 153.378 41.5746C148.414 41.5746 144.391 37.5506 144.391 32.587C144.391 27.6234 148.414 23.5999 153.378 23.5999C158.342 23.5999 162.366 27.6234 162.366 32.587Z" fill="#232338"/>
<path d="M158.587 154.638C158.505 154.638 158.423 154.641 158.342 154.646L158.306 154.346C158.397 154.273 158.449 154.159 158.434 154.035C158.412 153.847 158.241 153.712 158.052 153.734C157.863 153.756 157.728 153.927 157.75 154.116C157.764 154.238 157.841 154.338 157.945 154.387L157.98 154.687C157.637 154.743 157.306 154.847 156.99 154.997L157.147 155.327C157.596 155.111 158.081 155.003 158.587 155.003C158.826 155.003 159.064 155.027 159.296 155.079L159.373 154.722C159.116 154.667 158.852 154.638 158.587 154.638Z" fill="#1F1D21"/>
</svg>
